<svg width="1282" height="144" viewBox="0 0 1282 144" fill="none" xmlns="http://www.w3.org/2000/svg">
<rect width="1282" height="119" transform="translate(0 6)" fill="#1E1E1E"/>
<path d="M305.902 54.79V68.9C305.902 85.9 300.405 99.9533 289.412 111.06C278.532 122.167 264.195 127.72 246.402 127.72C227.815 127.72 212.629 121.827 200.842 110.04C189.055 98.14 183.162 83.35 183.162 65.67C183.162 47.99 189.055 33.2 200.842 21.3C212.629 9.28666 227.362 3.28 245.042 3.28C256.149 3.28 266.292 5.77333 275.472 10.76C284.765 15.7467 292.075 22.49 297.402 30.99L268.502 47.48C263.742 40.2267 256.149 36.6 245.722 36.6C237.222 36.6 230.309 39.32 224.982 44.76C219.769 50.2 217.162 57.2267 217.162 65.84C217.162 74 219.599 81.14 224.472 87.26C229.345 93.2667 236.882 96.27 247.082 96.27C258.869 96.27 266.745 92.0767 270.712 83.69H245.382V54.79H305.902ZM369.9 40H401.35V125H369.9V117.35C364.46 124.037 356.867 127.38 347.12 127.38C335.674 127.38 326.324 123.13 319.07 114.63C311.817 106.13 308.19 95.42 308.19 82.5C308.19 69.58 311.817 58.87 319.07 50.37C326.324 41.87 335.674 37.62 347.12 37.62C356.867 37.62 364.46 40.9633 369.9 47.65V40ZM343.72 93.89C346.554 96.95 350.237 98.48 354.77 98.48C359.304 98.48 362.93 96.95 365.65 93.89C368.484 90.83 369.9 87.0333 369.9 82.5C369.9 77.9667 368.484 74.17 365.65 71.11C362.93 68.05 359.304 66.52 354.77 66.52C350.237 66.52 346.554 68.05 343.72 71.11C341 74.17 339.64 77.9667 339.64 82.5C339.64 87.0333 341 90.83 343.72 93.89ZM510.226 37.62C520.086 37.62 527.793 40.7367 533.346 46.97C538.9 53.09 541.676 61.8733 541.676 73.32V125H510.226V77.57C510.226 71.11 507.336 67.88 501.556 67.88C494.87 67.88 491.526 72.0733 491.526 80.46V125H460.076V77.57C460.076 71.11 457.186 67.88 451.406 67.88C444.719 67.88 441.376 72.0733 441.376 80.46V125H409.926V40H441.376V47.99C446.929 41.0767 454.636 37.62 464.496 37.62C474.243 37.62 481.326 41.1333 485.746 48.16C491.866 41.1333 500.026 37.62 510.226 37.62ZM576.978 93.21C579.698 98.8767 585.478 101.71 594.318 101.71C599.531 101.71 604.348 99.8967 608.768 96.27L629.338 113.61C620.838 122.79 608.824 127.38 593.298 127.38C578.791 127.38 567.118 123.187 558.278 114.8C549.551 106.3 545.188 95.6467 545.188 82.84C545.188 69.92 549.438 59.1533 557.938 50.54C566.551 41.9267 577.374 37.62 590.408 37.62C603.328 37.62 613.924 41.87 622.198 50.37C630.584 58.7567 634.778 69.3533 634.778 82.16C634.778 85.9 634.324 89.5833 633.418 93.21H576.978ZM576.468 72.98H605.028C603.101 66.18 598.511 62.78 591.258 62.78C583.891 62.78 578.961 66.18 576.468 72.98ZM670.405 56.49C671.991 50.71 675.108 46.2333 679.755 43.06C684.401 39.8867 689.785 38.3 695.905 38.3V72.3C689.105 71.3933 683.155 72.7533 678.055 76.38C672.955 79.8933 670.405 85.56 670.405 93.38V125H638.955V40H670.405V56.49ZM728.035 64.99C728.035 66.35 729.055 67.4267 731.095 68.22C733.248 69.0133 735.911 69.6367 739.085 70.09C742.258 70.43 745.658 71.1667 749.285 72.3C752.911 73.4333 756.311 74.85 759.485 76.55C762.658 78.25 765.265 80.97 767.305 84.71C769.458 88.3367 770.535 92.7567 770.535 97.97C770.535 103.41 769.288 108.17 766.795 112.25C764.415 116.33 761.241 119.39 757.275 121.43C753.308 123.47 749.228 124.943 745.035 125.85C740.955 126.87 736.705 127.38 732.285 127.38C711.771 127.38 698.511 120.637 692.505 107.15L719.875 94.91C722.028 100.69 726.051 103.58 731.945 103.58C735.798 103.58 737.725 102.333 737.725 99.84C737.725 98.3667 736.308 97.1767 733.475 96.27C730.641 95.3633 727.241 94.4567 723.275 93.55C719.308 92.53 715.285 91.2267 711.205 89.64C707.238 87.94 703.838 85.1633 701.005 81.31C698.171 77.4567 696.755 72.64 696.755 66.86C696.755 57.5667 700.268 50.37 707.295 45.27C714.435 40.17 722.651 37.62 731.945 37.62C750.531 37.62 762.828 44.8167 768.835 59.21L742.825 68.56C740.785 63.8 737.611 61.42 733.305 61.42C729.791 61.42 728.035 62.61 728.035 64.99ZM888.782 5.99999V38.98H860.732V125H826.732V38.98H798.682V5.99999H888.782ZM936.505 40H967.955V125H936.505V117.35C931.065 124.037 923.472 127.38 913.725 127.38C902.279 127.38 892.929 123.13 885.675 114.63C878.422 106.13 874.795 95.42 874.795 82.5C874.795 69.58 878.422 58.87 885.675 50.37C892.929 41.87 902.279 37.62 913.725 37.62C923.472 37.62 931.065 40.9633 936.505 47.65V40ZM910.325 93.89C913.159 96.95 916.842 98.48 921.375 98.48C925.909 98.48 929.535 96.95 932.255 93.89C935.089 90.83 936.505 87.0333 936.505 82.5C936.505 77.9667 935.089 74.17 932.255 71.11C929.535 68.05 925.909 66.52 921.375 66.52C916.842 66.52 913.159 68.05 910.325 71.11C907.605 74.17 906.245 77.9667 906.245 82.5C906.245 87.0333 907.605 90.83 910.325 93.89ZM976.531 125V0.899997H1007.98V125H976.531ZM1103.12 125H1068.27L1047.87 91V125H1016.42V5.99999H1047.87V72.98L1065.72 40H1101.42L1075.58 82.5L1103.12 125Z" fill="#E91D27"/>
<path d="M386.083 138.696C385.474 138.696 384.866 138.503 384.257 138.115C383.261 137.562 382.763 136.455 382.763 134.795C382.763 133.522 383.067 131.89 383.676 129.897C385.059 125.36 388.38 117.861 393.637 107.402C396.238 102.201 397.538 99.4336 397.538 99.1016H397.289C395.85 99.1016 390.787 99.987 382.099 101.758C371.972 103.861 365.165 105.438 361.679 106.489C360.351 106.932 359.299 107.153 358.524 107.153C357.473 107.153 356.726 106.517 356.283 105.244C355.951 104.58 355.785 103.999 355.785 103.501C355.785 101.951 357.196 100.845 360.019 100.181C363.948 99.0739 369.315 97.8288 376.122 96.4453C382.929 95.0065 389.21 93.8167 394.965 92.876L396.625 92.627C398.34 92.3503 399.586 92.1289 400.36 91.9629C401.19 91.7415 401.771 91.4648 402.104 91.1328C402.491 90.7454 402.878 90.1367 403.266 89.3066L403.681 88.5596C412.147 73.7288 420.614 60.5583 429.081 49.0479C437.603 37.4821 445.406 28.2406 452.489 21.3232C459.13 14.7933 464.138 11.5283 467.514 11.5283C472.826 11.5283 475.482 14.8486 475.482 21.4893C475.482 27.3551 473.656 36.5137 470.004 48.9648C469.118 52.0638 467.818 56.3525 466.103 61.8311C464.442 67.2542 462.81 72.4284 461.205 77.3535C459.656 82.2233 458.66 85.2946 458.217 86.5674C458.217 86.7887 459.988 86.8994 463.529 86.8994H469.34C472.715 86.8994 476.036 86.9548 479.301 87.0654C483.673 87.2314 486.356 87.4251 487.353 87.6465C488.404 87.8125 489.068 88.1445 489.345 88.6426C489.621 89.1406 489.76 89.777 489.76 90.5518V90.9668L489.843 91.7969C489.843 92.1842 489.732 92.4886 489.511 92.71C489.289 92.9313 488.653 93.0973 487.602 93.208C486.938 93.2633 481.957 93.291 472.66 93.291C463.917 93.291 459.019 93.3187 457.968 93.374C456.916 93.4294 456.197 93.6507 455.81 94.0381C455.478 94.4255 455.09 95.5046 454.647 97.2754L447.011 121.016C444.354 129.98 442.528 134.74 441.532 135.293C441.09 135.57 440.674 135.708 440.287 135.708C439.844 135.708 439.346 135.542 438.793 135.21C437.963 134.878 437.437 134.435 437.216 133.882C437.05 133.328 436.967 132.803 436.967 132.305C436.967 131.419 437.133 130.229 437.465 128.735C438.35 124.806 441.062 115.952 445.6 102.173C447.204 97.0817 448.007 94.3701 448.007 94.0381C448.007 93.9827 447.979 93.9274 447.924 93.8721C447.868 93.8167 447.398 93.7891 446.513 93.7891C443.746 93.7891 437.41 94.2594 427.504 95.2002C414.499 96.4176 407.388 97.3031 406.171 97.8564C405.507 98.4098 404.206 100.513 402.27 104.165C398.174 111.968 394.135 120.628 390.15 130.146C388.435 134.186 387.577 136.621 387.577 137.451C387.577 138.281 387.079 138.696 386.083 138.696ZM410.321 90.5518C410.598 90.5518 411.705 90.4134 413.642 90.1367C422.108 89.0299 432.374 88.1722 444.438 87.5635L446.43 87.4805C447.868 87.4805 448.948 87.3145 449.667 86.9824C450.386 86.6504 451.023 85.7096 451.576 84.1602C452.074 82.9427 452.711 81.1165 453.485 78.6816L454.896 74.1992C462.699 50.957 467.541 34.3555 469.423 24.3945C469.81 22.1257 470.004 20.3825 470.004 19.165C470.004 17.7262 469.727 17.0068 469.174 17.0068C467.901 17.0068 465.909 18.1136 463.197 20.3271C454.896 27.2445 444.438 39.3359 431.82 56.6016C428.943 60.6413 425.788 65.2897 422.357 70.5469C418.926 75.804 416.049 80.3418 413.725 84.1602C411.4 87.9232 410.238 90.026 410.238 90.4688L410.321 90.5518ZM476.728 134.463C476.063 134.463 475.399 134.269 474.735 133.882C473.905 133.328 473.407 132.775 473.241 132.222C473.02 131.724 472.909 131.226 472.909 130.728C472.909 130.285 472.965 129.814 473.075 129.316C475.289 115.98 481.708 91.9629 492.333 57.2656C496.428 43.929 499.693 33.0827 502.128 24.7266C502.958 21.7383 503.622 19.4141 504.12 17.7539C504.674 16.0938 505.116 14.904 505.448 14.1846C505.78 13.4652 506.057 13.0778 506.278 13.0225C506.5 12.9671 506.666 12.9395 506.776 12.9395L507.606 13.0225C509.156 13.3545 510.014 13.9079 510.18 14.6826C510.401 15.402 510.512 15.9554 510.512 16.3428C510.512 17.5049 510.235 19.0544 509.682 20.9912L505.531 35.2686C502.156 46.779 498.337 59.5068 494.076 73.4521C493.412 75.555 492.776 77.7132 492.167 79.9268C491.89 80.7015 491.752 81.1719 491.752 81.3379C491.752 81.4486 491.78 81.5039 491.835 81.5039C491.946 81.5039 492.582 80.7568 493.744 79.2627L494.325 78.5156C499.361 72.4284 504.258 69.3848 509.018 69.3848C513.943 69.3848 517.595 72.373 519.975 78.3496L520.556 80.0098L524.789 79.8438C527.501 79.7331 529.521 79.5394 530.849 79.2627C531.568 79.0413 532.204 78.9307 532.758 78.9307C533.699 78.9307 534.639 79.4287 535.58 80.4248C536.189 81.1995 536.493 81.8636 536.493 82.417C536.493 83.3024 535.884 83.9941 534.667 84.4922C532.951 85.2116 530.351 85.5713 526.864 85.5713C524.983 85.5713 522.769 85.4606 520.224 85.2393C518.065 92.1012 514.026 96.5007 508.104 98.4375C506.5 98.9355 504.923 99.1846 503.373 99.1846C499.001 99.1846 495.709 97.4691 493.495 94.0381C493.384 93.9274 493.274 93.8721 493.163 93.8721C492.167 93.8721 490.285 97.3307 487.519 104.248C484.309 112.383 481.819 120.518 480.048 128.652C479.494 130.921 479.135 132.222 478.969 132.554C478.747 132.886 478.498 133.273 478.222 133.716C477.945 134.214 477.447 134.463 476.728 134.463ZM501.215 93.54C502.543 93.54 504.12 93.125 505.946 92.2949C506.942 91.7969 508.049 91.0498 509.267 90.0537C510.484 89.0023 511.452 88.0615 512.172 87.2314C512.947 86.346 513.334 85.7373 513.334 85.4053L513.251 85.2393C513.03 85.0732 512.532 84.9902 511.757 84.9902C509.986 84.9902 507.662 85.3776 504.784 86.1523C502.903 86.6504 501.492 87.1484 500.551 87.6465C498.669 88.9746 497.729 90.1921 497.729 91.2988V91.6309C497.95 92.627 498.503 93.208 499.389 93.374C500.274 93.4847 500.883 93.54 501.215 93.54ZM500.8 81.0889L506.195 80.4248L514.994 79.8438V78.8477C514.828 76.3021 513.611 75.0293 511.342 75.0293C508.298 75.0293 505.116 76.7171 501.796 80.0928L500.8 81.0889ZM537.406 97.6904C536.355 97.6904 535.331 97.5521 534.335 97.2754C530.295 95.6706 528.275 92.959 528.275 89.1406C528.275 85.1562 530.572 80.7845 535.165 76.0254C539.149 72.1517 542.553 70.2148 545.375 70.2148C547.146 70.2148 548.474 71.0449 549.359 72.7051C549.747 73.4245 550.189 73.9225 550.688 74.1992C551.186 74.4206 551.96 75.1676 553.012 76.4404C555.391 79.6501 558.407 81.2826 562.06 81.3379C564.55 81.3379 567.344 80.5908 570.443 79.0967C571.716 78.5433 572.878 78.2666 573.93 78.2666L575.092 78.3496C576.973 78.6816 577.914 79.4564 577.914 80.6738C577.914 81.3932 577.527 82.1403 576.752 82.915C573.764 85.5713 569.945 86.8994 565.297 86.8994C562.087 86.8994 558.961 86.2077 555.917 84.8242C554.589 84.1602 553.814 83.8281 553.593 83.8281C553.537 83.8281 553.51 83.8835 553.51 83.9941C553.51 84.0495 553.316 84.4645 552.929 85.2393C551.767 88.4489 549.913 91.1605 547.367 93.374C544.047 96.2516 540.727 97.6904 537.406 97.6904ZM535.414 92.0459C536.078 92.0459 537.047 91.6862 538.319 90.9668C540.644 89.7493 542.636 88.1169 544.296 86.0693C546.454 83.3024 547.533 80.7292 547.533 78.3496C547.533 77.6855 547.45 77.0768 547.284 76.5234C547.118 75.9701 546.786 75.6934 546.288 75.6934C545.071 75.6934 543.272 76.9661 540.893 79.5117C539.177 81.2826 537.683 83.2471 536.41 85.4053C535.137 87.5081 534.446 89.3066 534.335 90.8008C534.335 91.6309 534.695 92.0459 535.414 92.0459ZM601.156 98.0225C600.16 98.0225 599.219 97.8841 598.334 97.6074C596.895 97.054 595.65 96.1686 594.599 94.9512C593.547 93.6784 592.883 92.2673 592.606 90.7178C592.44 90.1644 592.274 89.8877 592.108 89.8877C591.887 89.8877 591.168 90.4688 589.95 91.6309C585.468 95.6152 581.428 97.6074 577.831 97.6074C572.961 97.6074 570.443 94.7021 570.277 88.8916C570.388 86.5674 570.914 83.8558 571.854 80.7568C572.795 77.6025 573.874 74.7803 575.092 72.29C576.309 69.7998 577.333 68.5547 578.163 68.5547C580.155 68.5547 581.151 69.4954 581.151 71.377C581.151 72.7051 580.681 74.4759 579.74 76.6895C577.084 83.4408 575.756 87.8955 575.756 90.0537C575.756 91.1051 576.06 91.6309 576.669 91.6309C582.646 90.1921 589.397 83.5791 596.923 71.792C597.864 70.3532 598.528 69.5508 598.915 69.3848C599.358 69.1634 599.69 69.0527 599.911 69.0527C600.409 69.0527 600.963 69.3294 601.571 69.8828C602.512 70.6576 602.982 71.2663 602.982 71.709C603.038 72.0964 603.065 72.3177 603.065 72.373C603.065 73.0371 602.733 73.8672 602.069 74.8633C600.575 77.1322 599.413 79.5947 598.583 82.251C597.753 84.9072 597.338 87.2314 597.338 89.2236C597.338 91.4372 597.919 92.5439 599.081 92.5439C603.729 92.5439 611.034 88.2829 620.995 79.7607C622.545 78.3773 623.845 77.6855 624.896 77.6855C625.948 77.6855 626.75 78.3219 627.304 79.5947C627.636 80.1481 627.802 80.6185 627.802 81.0059C627.802 81.7253 626.944 82.8597 625.229 84.4092C622.13 87.2314 619.197 89.611 616.43 91.5479C610.287 95.8643 605.196 98.0225 601.156 98.0225ZM611.532 142.515C611.145 142.515 610.647 142.376 610.038 142.1C609.319 141.768 608.71 141.242 608.212 140.522C607.714 139.858 607.465 139.194 607.465 138.53C607.465 135.708 609.651 125.913 614.022 109.146C618.505 91.9352 624.066 72.373 630.707 50.459C632.201 45.8659 633.861 40.415 635.688 34.1064C636.352 31.8376 636.684 30.6478 636.684 30.5371C636.684 30.4818 636.269 30.4541 635.438 30.4541L627.387 30.5371C622.738 30.7031 618.643 30.9798 615.102 31.3672L613.773 31.4502C611.781 31.4502 610.785 30.4818 610.785 28.5449C610.785 27.6042 610.924 26.9124 611.2 26.4697C611.477 26.027 612.196 25.6673 613.358 25.3906C614.908 25.0586 619.999 24.7266 628.632 24.3945C632.561 24.2839 635.245 24.1732 636.684 24.0625C638.122 23.9518 638.869 23.7858 638.925 23.5645C638.98 23.3431 639.423 21.9596 640.253 19.4141C640.917 16.9238 641.47 15.485 641.913 15.0977C642.356 14.7103 642.743 14.5166 643.075 14.5166C643.573 14.5166 644.154 14.738 644.818 15.1807C645.814 15.734 646.368 16.2598 646.479 16.7578C646.589 17.2559 646.645 17.6709 646.645 18.0029C646.645 18.7223 646.285 20.3271 645.565 22.8174L645.399 23.8135C645.399 23.8688 645.427 23.9242 645.482 23.9795C645.538 23.9795 647.004 24.0348 649.882 24.1455C652.815 24.2008 656.439 24.2562 660.756 24.3115C673.373 24.3669 681.203 24.5605 684.247 24.8926C685.907 25.0586 687.014 25.3076 687.567 25.6396C688.121 25.9717 688.48 26.3867 688.646 26.8848C688.979 27.6595 689.145 28.3236 689.145 28.877C689.145 30.2604 688.121 30.9521 686.073 30.9521H685.575C683.528 30.7861 676.334 30.5924 663.993 30.3711C659.289 30.3158 652.427 30.2881 643.407 30.2881L641.498 36.6797L638.759 46.3086C634.83 59.9772 632.865 70.7406 632.865 78.5986C632.865 82.1403 633.308 84.9349 634.193 86.9824C634.857 88.3659 636.13 89.0576 638.012 89.0576C640.668 89.0576 644.265 87.6742 648.803 84.9072C650.85 83.6344 652.981 82.0573 655.194 80.1758C657.076 78.571 658.266 77.7132 658.764 77.6025C659.262 77.4919 659.594 77.4365 659.76 77.4365C660.479 77.4365 661.226 77.8516 662.001 78.6816C662.776 79.4564 663.163 80.1758 663.163 80.8398C663.163 81.7806 662.195 83.0811 660.258 84.7412C652.842 91.3265 646.174 94.6191 640.253 94.6191C634.608 94.6191 630.79 91.6585 628.798 85.7373C628.576 85.0732 628.383 84.5475 628.217 84.1602L627.968 83.5791C627.691 84.0771 626.75 87.2868 625.146 93.208C623.541 99.0739 621.798 105.825 619.916 113.462C617.481 122.925 615.6 130.562 614.271 136.372C613.773 138.42 613.358 139.914 613.026 140.854C612.694 141.795 612.39 142.293 612.113 142.349C611.837 142.459 611.643 142.515 611.532 142.515ZM743.432 143.179C742.934 143.179 742.27 142.764 741.439 141.934C740.443 141.104 739.918 140.218 739.862 139.277V137.7C739.862 135.929 740.277 133.245 741.107 129.648L741.273 129.067C741.55 127.795 741.688 126.882 741.688 126.328C741.688 126.273 741.661 126.245 741.605 126.245C741.439 126.245 741.024 126.577 740.36 127.241L740.111 127.407C730.372 136.151 721.462 140.522 713.383 140.522C707.074 140.522 702.287 137.534 699.022 131.558C696.975 127.684 695.951 122.814 695.951 116.948C695.951 112.023 696.671 106.351 698.109 99.9316C702.979 81.0059 710.588 64.1276 720.937 49.2969C731.34 34.4108 742.408 23.7581 754.14 17.3389C760.116 14.0739 765.733 12.4414 770.99 12.4414C774.477 12.4414 777.825 13.1608 781.034 14.5996C787.841 17.9753 791.244 23.8135 791.244 32.1143C791.244 39.917 788.09 49.3522 781.781 60.4199C778.24 66.6178 776.109 69.7721 775.39 69.8828L774.726 69.9658C774.172 69.9658 773.591 69.6615 772.982 69.0527C771.876 68.112 771.322 67.1436 771.322 66.1475C771.322 65.1514 771.848 63.8786 772.899 62.3291C781.698 48.7712 786.098 37.9525 786.098 29.873C786.098 27.8809 785.821 26.1377 785.268 24.6436C783.663 20.4932 780.01 18.418 774.311 18.418C772.816 18.418 771.212 18.5563 769.496 18.833C762.8 20.1058 755.938 23.5091 748.91 29.043C741.938 34.5215 735.297 41.4388 728.988 49.7949C722.071 59.0365 716.15 69.1911 711.225 80.2588C706.355 91.2712 703.145 102.256 701.596 113.213C701.374 115.15 701.264 116.948 701.264 118.608C701.264 121.873 701.706 124.64 702.592 126.909C704.473 131.779 707.849 134.214 712.719 134.214C715.928 134.214 719.581 133.079 723.676 130.811C729.818 127.49 736.431 121.403 743.515 112.549C745.673 110.114 746.752 108.481 746.752 107.651C746.752 107.485 746.724 107.347 746.669 107.236C746.337 106.738 744.815 106.489 742.104 106.489L738.949 106.572C737.289 106.683 734.439 106.738 730.399 106.738C728.02 106.738 726.581 106.711 726.083 106.655C724.368 106.545 723.51 105.549 723.51 103.667C723.51 103.335 723.565 103.003 723.676 102.671C723.897 101.73 724.423 101.094 725.253 100.762C726.747 100.43 731.645 100.264 739.945 100.264C749.63 100.264 759.563 100.43 769.745 100.762C774.836 100.983 777.769 101.26 778.544 101.592C779.429 102.145 779.872 103.169 779.872 104.663C779.872 105.936 779.512 106.766 778.793 107.153C778.406 107.319 777.548 107.402 776.22 107.402L768.832 107.07L755.8 106.738C753.808 110.723 751.926 115.454 750.155 120.933C748.44 126.411 747.056 131.779 746.005 137.036C745.341 140.301 744.815 142.127 744.428 142.515C744.04 142.957 743.708 143.179 743.432 143.179ZM799.379 97.6904C798.327 97.6904 797.304 97.5521 796.308 97.2754C792.268 95.6706 790.248 92.959 790.248 89.1406C790.248 85.1562 792.545 80.7845 797.138 76.0254C801.122 72.1517 804.525 70.2148 807.348 70.2148C809.118 70.2148 810.447 71.0449 811.332 72.7051C811.719 73.4245 812.162 73.9225 812.66 74.1992C813.158 74.4206 813.933 75.1676 814.984 76.4404C817.364 79.6501 820.38 81.2826 824.032 81.3379C826.522 81.3379 829.317 80.5908 832.416 79.0967C833.689 78.5433 834.851 78.2666 835.902 78.2666L837.064 78.3496C838.946 78.6816 839.887 79.4564 839.887 80.6738C839.887 81.3932 839.499 82.1403 838.725 82.915C835.736 85.5713 831.918 86.8994 827.27 86.8994C824.06 86.8994 820.933 86.2077 817.89 84.8242C816.562 84.1602 815.787 83.8281 815.565 83.8281C815.51 83.8281 815.482 83.8835 815.482 83.9941C815.482 84.0495 815.289 84.4645 814.901 85.2393C813.739 88.4489 811.885 91.1605 809.34 93.374C806.02 96.2516 802.699 97.6904 799.379 97.6904ZM797.387 92.0459C798.051 92.0459 799.019 91.6862 800.292 90.9668C802.616 89.7493 804.608 88.1169 806.269 86.0693C808.427 83.3024 809.506 80.7292 809.506 78.3496C809.506 77.6855 809.423 77.0768 809.257 76.5234C809.091 75.9701 808.759 75.6934 808.261 75.6934C807.043 75.6934 805.245 76.9661 802.865 79.5117C801.15 81.2826 799.656 83.2471 798.383 85.4053C797.11 87.5081 796.418 89.3066 796.308 90.8008C796.308 91.6309 796.667 92.0459 797.387 92.0459ZM857.982 98.8525C856.876 98.8525 855.824 98.7419 854.828 98.5205C851.176 97.2477 849.045 95.1172 848.437 92.1289C848.381 91.4095 848.271 91.0498 848.104 91.0498H847.855C847.634 91.0498 847.164 91.3818 846.444 92.0459C842.958 95.0895 839.555 96.6113 836.234 96.6113C833.689 96.6113 831.752 95.6152 830.424 93.623C829.704 92.5716 829.345 91.3265 829.345 89.8877C829.345 87.7295 830.147 85.1286 831.752 82.085C834.076 78.1559 836.815 75.14 839.97 73.0371C843.179 70.9342 846.14 69.8828 848.852 69.8828C851.895 69.8828 853.97 71.4046 855.077 74.4482C855.132 74.6143 855.215 74.6973 855.326 74.6973C855.492 74.6973 855.824 74.4482 856.322 73.9502C857.263 73.1755 858.176 72.7881 859.062 72.7881L859.726 72.8711C861.33 73.2585 862.133 74.1715 862.133 75.6104C862.133 76.3851 861.828 77.1875 861.22 78.0176C859.394 80.2865 857.844 82.6937 856.571 85.2393C855.022 88.4489 854.247 90.8838 854.247 92.5439C854.247 93.374 854.773 93.7891 855.824 93.7891C856.986 93.7891 858.702 93.3464 860.971 92.4609C867.169 90.026 873.782 86.097 880.81 80.6738C882.636 79.1243 883.798 78.3219 884.296 78.2666C884.849 78.2113 885.209 78.1836 885.375 78.1836C886.205 78.1836 887.063 78.6816 887.948 79.6777C888.502 80.2311 888.778 80.7845 888.778 81.3379C888.778 82.334 887.312 84.0218 884.379 86.4014C881.446 88.7809 878.43 90.9115 875.331 92.793C868.358 96.8327 862.576 98.8525 857.982 98.8525ZM836.151 90.4688C836.594 90.4688 837.424 89.9984 838.642 89.0576C839.914 88.2275 841.436 86.9824 843.207 85.3223C844.978 83.6621 846.555 82.0573 847.938 80.5078C849.377 78.9583 850.18 77.9069 850.346 77.3535L850.429 76.6895C850.429 75.6934 850.014 75.1953 849.184 75.1953C848.464 75.1953 847.551 75.5273 846.444 76.1914C844.895 77.1322 843.262 78.5433 841.547 80.4248C839.831 82.251 838.42 84.2708 837.313 86.4844C836.317 88.2552 835.819 89.445 835.819 90.0537C835.819 90.3304 835.93 90.4688 836.151 90.4688ZM872.343 142.515C871.955 142.515 871.457 142.376 870.849 142.1C870.129 141.768 869.521 141.242 869.022 140.522C868.524 139.858 868.275 139.194 868.275 138.53C868.275 135.708 870.461 125.913 874.833 109.146C879.315 91.9352 884.877 72.373 891.518 50.459C893.012 45.8659 894.672 40.415 896.498 34.1064C897.162 31.8376 897.494 30.6478 897.494 30.5371C897.494 30.4818 897.079 30.4541 896.249 30.4541L888.197 30.5371C883.549 30.7031 879.454 30.9798 875.912 31.3672L874.584 31.4502C872.592 31.4502 871.596 30.4818 871.596 28.5449C871.596 27.6042 871.734 26.9124 872.011 26.4697C872.287 26.027 873.007 25.6673 874.169 25.3906C875.718 25.0586 880.81 24.7266 889.442 24.3945C893.371 24.2839 896.055 24.1732 897.494 24.0625C898.933 23.9518 899.68 23.7858 899.735 23.5645C899.791 23.3431 900.233 21.9596 901.063 19.4141C901.728 16.9238 902.281 15.485 902.724 15.0977C903.166 14.7103 903.554 14.5166 903.886 14.5166C904.384 14.5166 904.965 14.738 905.629 15.1807C906.625 15.734 907.178 16.2598 907.289 16.7578C907.4 17.2559 907.455 17.6709 907.455 18.0029C907.455 18.7223 907.095 20.3271 906.376 22.8174L906.21 23.8135C906.21 23.8688 906.238 23.9242 906.293 23.9795C906.348 23.9795 907.815 24.0348 910.692 24.1455C913.625 24.2008 917.25 24.2562 921.566 24.3115C934.184 24.3669 942.014 24.5605 945.058 24.8926C946.718 25.0586 947.825 25.3076 948.378 25.6396C948.931 25.9717 949.291 26.3867 949.457 26.8848C949.789 27.6595 949.955 28.3236 949.955 28.877C949.955 30.2604 948.931 30.9521 946.884 30.9521H946.386C944.338 30.7861 937.144 30.5924 924.804 30.3711C920.1 30.3158 913.238 30.2881 904.218 30.2881L902.309 36.6797L899.569 46.3086C895.64 59.9772 893.676 70.7406 893.676 78.5986C893.676 82.1403 894.118 84.9349 895.004 86.9824C895.668 88.3659 896.941 89.0576 898.822 89.0576C901.479 89.0576 905.076 87.6742 909.613 84.9072C911.661 83.6344 913.791 82.0573 916.005 80.1758C917.886 78.571 919.076 77.7132 919.574 77.6025C920.072 77.4919 920.404 77.4365 920.57 77.4365C921.29 77.4365 922.037 77.8516 922.812 78.6816C923.586 79.4564 923.974 80.1758 923.974 80.8398C923.974 81.7806 923.005 83.0811 921.068 84.7412C913.653 91.3265 906.985 94.6191 901.063 94.6191C895.419 94.6191 891.601 91.6585 889.608 85.7373C889.387 85.0732 889.193 84.5475 889.027 84.1602L888.778 83.5791C888.502 84.0771 887.561 87.2868 885.956 93.208C884.351 99.0739 882.608 105.825 880.727 113.462C878.292 122.925 876.41 130.562 875.082 136.372C874.584 138.42 874.169 139.914 873.837 140.854C873.505 141.795 873.201 142.293 872.924 142.349C872.647 142.459 872.453 142.515 872.343 142.515Z" fill="white"/>
</svg>
