<svg width="601" height="198" viewBox="0 0 601 198" fill="none" xmlns="http://www.w3.org/2000/svg">
<path d="M126.99 87.79V101.9C126.99 118.9 121.493 132.953 110.5 144.06C99.62 155.167 85.2833 160.72 67.49 160.72C48.9033 160.72 33.7167 154.827 21.93 143.04C10.1433 131.14 4.25 116.35 4.25 98.67C4.25 80.99 10.1433 66.2 21.93 54.3C33.7167 42.2867 48.45 36.28 66.13 36.28C77.2367 36.28 87.38 38.7733 96.56 43.76C105.853 48.7467 113.163 55.49 118.49 63.99L89.59 80.48C84.83 73.2267 77.2367 69.6 66.81 69.6C58.31 69.6 51.3967 72.32 46.07 77.76C40.8567 83.2 38.25 90.2267 38.25 98.84C38.25 107 40.6867 114.14 45.56 120.26C50.4333 126.267 57.97 129.27 68.17 129.27C79.9567 129.27 87.8333 125.077 91.8 116.69H66.47V87.79H126.99ZM190.988 73H222.438V158H190.988V150.35C185.548 157.037 177.955 160.38 168.208 160.38C156.762 160.38 147.412 156.13 140.158 147.63C132.905 139.13 129.278 128.42 129.278 115.5C129.278 102.58 132.905 91.87 140.158 83.37C147.412 74.87 156.762 70.62 168.208 70.62C177.955 70.62 185.548 73.9633 190.988 80.65V73ZM164.808 126.89C167.642 129.95 171.325 131.48 175.858 131.48C180.392 131.48 184.018 129.95 186.738 126.89C189.572 123.83 190.988 120.033 190.988 115.5C190.988 110.967 189.572 107.17 186.738 104.11C184.018 101.05 180.392 99.52 175.858 99.52C171.325 99.52 167.642 101.05 164.808 104.11C162.088 107.17 160.728 110.967 160.728 115.5C160.728 120.033 162.088 123.83 164.808 126.89ZM331.314 70.62C341.174 70.62 348.881 73.7367 354.434 79.97C359.987 86.09 362.764 94.8733 362.764 106.32V158H331.314V110.57C331.314 104.11 328.424 100.88 322.644 100.88C315.957 100.88 312.614 105.073 312.614 113.46V158H281.164V110.57C281.164 104.11 278.274 100.88 272.494 100.88C265.807 100.88 262.464 105.073 262.464 113.46V158H231.014V73H262.464V80.99C268.017 74.0767 275.724 70.62 285.584 70.62C295.331 70.62 302.414 74.1333 306.834 81.16C312.954 74.1333 321.114 70.62 331.314 70.62ZM386.158 66.54C381.398 66.54 377.261 64.84 373.748 61.44C370.348 57.9267 368.648 53.8467 368.648 49.2C368.648 44.5533 370.348 40.53 373.748 37.13C377.261 33.6167 381.398 31.86 386.158 31.86C390.804 31.86 394.828 33.6167 398.228 37.13C401.741 40.53 403.498 44.5533 403.498 49.2C403.498 53.8467 401.741 57.9267 398.228 61.44C394.828 64.84 390.804 66.54 386.158 66.54ZM370.348 158V73H401.798V158H370.348ZM464.468 70.62C473.761 70.62 481.185 73.85 486.738 80.31C492.405 86.6567 495.238 96.1767 495.238 108.87V158H463.788V112.27C463.788 104.677 460.275 100.88 453.248 100.88C449.508 100.88 446.618 102.07 444.578 104.45C442.651 106.83 441.688 110.117 441.688 114.31V158H410.238V73H441.688V81.33C446.901 74.19 454.495 70.62 464.468 70.62ZM561.749 73H593.199V155.45C593.199 162.25 591.896 168.257 589.289 173.47C586.796 178.683 583.396 182.763 579.089 185.71C574.782 188.77 570.022 191.037 564.809 192.51C559.709 193.983 554.326 194.72 548.659 194.72C538.686 194.72 529.846 192.907 522.139 189.28C514.432 185.653 508.709 180.553 504.969 173.98L530.469 159.19C534.549 164.743 540.046 167.52 546.959 167.52C550.926 167.52 554.382 166.5 557.329 164.46C560.276 162.533 561.749 159.53 561.749 155.45V146.95C556.309 153.637 548.716 156.98 538.969 156.98C527.636 156.98 518.286 152.843 510.919 144.57C503.666 136.297 500.039 126.04 500.039 113.8C500.039 101.56 503.666 91.3033 510.919 83.03C518.286 74.7567 527.636 70.62 538.969 70.62C548.716 70.62 556.309 73.9633 561.749 80.65V73ZM535.569 124.68C538.402 127.627 542.086 129.1 546.619 129.1C551.152 129.1 554.779 127.627 557.499 124.68C560.332 121.733 561.749 118.107 561.749 113.8C561.749 109.493 560.332 105.867 557.499 102.92C554.779 99.9733 551.152 98.5 546.619 98.5C542.086 98.5 538.402 99.9733 535.569 102.92C532.849 105.867 531.489 109.493 531.489 113.8C531.489 118.107 532.849 121.733 535.569 124.68Z" fill="#E91D27"/>
<path d="M220.831 175.107C219.226 175.107 217.677 174.969 216.183 174.692C210.372 173.309 205.696 170.127 202.154 165.146C197.118 158.008 194.601 148.628 194.601 137.007C194.601 128.374 196.15 119.215 199.249 109.531C200.743 104.717 202.68 99.93 205.06 95.1709C211.922 82.0003 220.278 71.1816 230.128 62.7148C237.599 56.2956 244.35 51.9238 250.382 49.5996C256.469 47.2201 261.56 46.0303 265.655 46.0303C267.758 46.0303 269.75 46.2793 271.632 46.7773C277.608 48.3822 281.648 52.8369 283.751 60.1416C284.138 61.9124 284.332 63.6833 284.332 65.4541C284.332 69.2725 283.447 73.1462 281.676 77.0752C279.075 82.8857 275.644 87.7279 271.383 91.6016C267.896 94.7559 265.213 96.4714 263.331 96.748C261.45 97.0247 260.343 97.1631 260.011 97.1631C257.133 97.1631 254.809 95.5859 253.038 92.4316C252.54 91.3802 252.291 90.2181 252.291 88.9453C252.291 86.7871 252.706 84.9333 253.536 83.3838C254.2 82.1663 255.003 81.5576 255.943 81.5576C258.157 81.945 259.264 83.1071 259.264 85.0439C259.264 85.708 259.125 86.5104 258.849 87.4512C258.185 89.1113 257.853 90.2458 257.853 90.8545C257.853 91.2419 258.074 91.4355 258.517 91.4355C258.904 91.4355 259.513 91.2419 260.343 90.8545C265.489 88.4749 269.584 84.9333 272.628 80.2295C276.28 74.4743 278.106 68.9681 278.106 63.7109C278.106 59.3392 276.889 56.0465 274.454 53.833C272.849 52.3942 270.663 51.6748 267.896 51.6748C261.588 51.6748 254.975 53.833 248.058 58.1494C241.14 62.4105 234.555 68.0827 228.302 75.166C222.049 82.194 216.625 89.9967 212.032 98.5742C204.672 112.575 200.992 127.018 200.992 141.904C200.992 149.707 202.293 155.794 204.894 160.166C208.159 165.645 213.028 168.384 219.503 168.384C230.073 168.384 243.824 161.439 260.758 147.549C268.948 140.742 277.664 132.275 286.905 122.148C288.953 119.824 290.309 118.579 290.973 118.413C291.637 118.247 292.052 118.164 292.218 118.164C293.269 118.164 294.182 118.856 294.957 120.239C295.455 120.848 295.704 121.401 295.704 121.899C295.704 122.397 295.289 123.172 294.459 124.224C293.629 125.275 292.245 126.88 290.309 129.038C286.767 133.022 283.225 136.785 279.684 140.327C267.841 151.948 256.497 160.83 245.65 166.973C236.077 172.396 227.804 175.107 220.831 175.107ZM311.937 133.853C310.83 133.853 309.779 133.742 308.783 133.521C305.13 132.248 303 130.117 302.391 127.129C302.336 126.41 302.225 126.05 302.059 126.05H301.81C301.589 126.05 301.118 126.382 300.399 127.046C296.913 130.09 293.509 131.611 290.189 131.611C287.643 131.611 285.707 130.615 284.379 128.623C283.659 127.572 283.299 126.326 283.299 124.888C283.299 122.729 284.102 120.129 285.707 117.085C288.031 113.156 290.77 110.14 293.924 108.037C297.134 105.934 300.095 104.883 302.806 104.883C305.85 104.883 307.925 106.405 309.032 109.448C309.087 109.614 309.17 109.697 309.281 109.697C309.447 109.697 309.779 109.448 310.277 108.95C311.218 108.175 312.131 107.788 313.016 107.788L313.68 107.871C315.285 108.258 316.088 109.172 316.088 110.61C316.088 111.385 315.783 112.188 315.174 113.018C313.348 115.286 311.799 117.694 310.526 120.239C308.976 123.449 308.202 125.884 308.202 127.544C308.202 128.374 308.727 128.789 309.779 128.789C310.941 128.789 312.657 128.346 314.925 127.461C321.123 125.026 327.736 121.097 334.764 115.674C336.59 114.124 337.753 113.322 338.251 113.267C338.804 113.211 339.164 113.184 339.33 113.184C340.16 113.184 341.018 113.682 341.903 114.678C342.456 115.231 342.733 115.785 342.733 116.338C342.733 117.334 341.267 119.022 338.334 121.401C335.401 123.781 332.385 125.911 329.286 127.793C322.313 131.833 316.53 133.853 311.937 133.853ZM290.106 125.469C290.549 125.469 291.379 124.998 292.596 124.058C293.869 123.228 295.391 121.982 297.162 120.322C298.933 118.662 300.51 117.057 301.893 115.508C303.332 113.958 304.134 112.907 304.3 112.354L304.383 111.689C304.383 110.693 303.968 110.195 303.138 110.195C302.419 110.195 301.506 110.527 300.399 111.191C298.85 112.132 297.217 113.543 295.502 115.425C293.786 117.251 292.375 119.271 291.268 121.484C290.272 123.255 289.774 124.445 289.774 125.054C289.774 125.33 289.885 125.469 290.106 125.469ZM329 197.354L328.004 197.271C321.529 195.887 318.292 189.08 318.292 176.851C318.292 171.04 319.067 164.289 320.616 156.597C321.225 153.276 322.083 149.541 323.19 145.391C325.237 137.533 330.245 120.571 338.214 94.5068L345.104 71.3477C347.594 62.9362 349.42 57.0703 350.582 53.75C351.8 50.4297 352.685 48.6589 353.238 48.4375C353.571 48.2715 353.903 48.1885 354.235 48.1885C354.622 48.1885 355.037 48.2992 355.48 48.5205C356.31 48.8525 356.918 49.3229 357.306 49.9316C357.749 50.5404 357.97 51.0938 357.97 51.5918C357.97 51.8685 357.804 52.5602 357.472 53.667C356.586 56.2679 355.922 58.3154 355.48 59.8096C354.816 61.9678 353.764 65.6478 352.325 70.8496L346.681 90.6055C344.689 97.5228 341.617 107.926 337.467 121.816C336.582 124.694 336.139 126.188 336.139 126.299C336.139 126.354 336.305 126.382 336.637 126.382C338.352 126.382 340.511 126.133 343.112 125.635C349.033 124.583 355.369 121.733 362.12 117.085C364.168 115.757 365.634 114.871 366.52 114.429C367.405 113.931 368.097 113.682 368.595 113.682C369.314 113.682 370.006 114.124 370.67 115.01C371.334 115.84 371.666 116.615 371.666 117.334C371.666 118.33 370.615 119.548 368.512 120.986C359.104 127.904 349.807 131.556 340.621 131.943C338.131 131.943 336.886 132.082 336.886 132.358V132.524C339.376 139.165 340.87 145.225 341.368 150.703C341.922 156.126 342.198 160.443 342.198 163.652C342.198 167.581 341.949 171.4 341.451 175.107C340.566 182.025 339.016 187.448 336.803 191.377C334.589 195.361 331.988 197.354 329 197.354ZM327.008 191.211C327.174 191.211 327.451 191.1 327.838 190.879C330.826 188.389 333.04 183.104 334.479 175.024C335.253 170.431 335.641 165.617 335.641 160.581C335.641 155.933 335.336 151.727 334.728 147.964C334.174 144.146 333.676 141.351 333.234 139.58C332.957 138.639 332.791 138.169 332.736 138.169C332.625 138.28 332.376 138.971 331.988 140.244C331.656 141.462 331.269 142.983 330.826 144.81C330.328 146.58 329.858 148.351 329.415 150.122C328.917 151.893 328.557 153.332 328.336 154.438C326.067 164.731 324.933 173.198 324.933 179.839C324.933 184.045 325.403 187.531 326.344 190.298C326.565 190.907 326.787 191.211 327.008 191.211ZM372.128 133.687C370.468 133.687 368.863 133.521 367.313 133.188C363.938 132.248 361.53 130.754 360.092 128.706C358.597 126.603 357.85 124.362 357.85 121.982C357.85 118.939 358.874 115.978 360.922 113.101C362.748 110.61 365.376 108.48 368.807 106.709C370.966 105.713 373.041 105.215 375.033 105.215C377.523 105.215 379.543 105.741 381.093 106.792C382.642 107.788 383.444 108.729 383.5 109.614C383.61 110.444 383.666 110.942 383.666 111.108C383.666 112.547 382.891 114.069 381.342 115.674C379.46 117.279 377.274 118.413 374.784 119.077C372.349 119.741 370.495 120.073 369.222 120.073C368.06 120.073 367.092 119.907 366.317 119.575H366.234C365.736 119.299 365.404 119.16 365.238 119.16C364.961 119.16 364.685 119.492 364.408 120.156L364.325 120.405C363.716 121.899 363.412 123.172 363.412 124.224C363.412 125.275 363.689 126.105 364.242 126.714C365.404 127.821 367.12 128.374 369.388 128.374C371.713 128.374 374.59 127.821 378.021 126.714C384.385 124.556 391.275 120.71 398.69 115.176C400.627 113.626 401.872 112.796 402.426 112.686C403.034 112.575 403.422 112.52 403.588 112.52C404.418 112.52 405.165 112.99 405.829 113.931C406.548 114.65 406.908 115.286 406.908 115.84C406.908 116.67 405.691 118.053 403.256 119.99C400.212 122.48 397.113 124.639 393.959 126.465C385.658 131.279 378.381 133.687 372.128 133.687ZM368.89 114.844C369.444 114.844 370.661 114.484 372.543 113.765C374.092 113.045 375.393 112.326 376.444 111.606C376.942 111.274 377.191 111.081 377.191 111.025C377.191 110.915 377.219 110.776 377.274 110.61C377.385 110.444 377.44 110.306 377.44 110.195C377.44 110.029 377.33 109.946 377.108 109.946C376.444 109.946 375.448 110.251 374.12 110.859C371.851 111.911 370.08 113.073 368.807 114.346C368.697 114.456 368.641 114.567 368.641 114.678C368.641 114.788 368.724 114.844 368.89 114.844Z" fill="#1E1E1E"/>
</svg>
