<svg width="312" height="156" viewBox="0 0 312 156" fill="none" xmlns="http://www.w3.org/2000/svg">
<path d="M9.688 58V48.208H37.72V58H9.688ZM11.704 0.399998V58H0.76V0.399998H11.704ZM60.991 59.152C56.383 59.152 52.351 58.288 48.895 56.56C45.503 54.768 42.879 52.144 41.023 48.688C39.167 45.232 38.239 41.008 38.239 36.016C38.239 30.896 39.135 26.544 40.927 22.96C42.783 19.312 45.407 16.528 48.799 14.608C52.191 12.688 56.255 11.728 60.991 11.728C65.535 11.728 69.311 12.592 72.319 14.32C75.327 16.048 77.567 18.448 79.039 21.52C80.511 24.592 81.247 28.208 81.247 32.368C81.247 33.264 81.247 34.224 81.247 35.248C81.247 36.208 81.183 37.264 81.055 38.416H45.439V31.504H74.335L71.743 34.192C71.935 29.456 71.135 25.872 69.343 23.44C67.615 20.944 64.735 19.696 60.703 19.696C56.671 19.696 53.599 20.976 51.487 23.536C49.439 26.032 48.415 30 48.415 35.44C48.415 40.496 49.471 44.304 51.583 46.864C53.695 49.424 56.863 50.704 61.087 50.704C63.519 50.704 65.439 50.352 66.847 49.648C68.255 48.944 69.343 48.016 70.111 46.864C70.943 45.712 71.583 44.4 72.031 42.928L80.863 45.424C80.159 48.112 79.007 50.512 77.407 52.624C75.871 54.672 73.759 56.272 71.071 57.424C68.383 58.576 65.023 59.152 60.991 59.152ZM83.7295 12.88H113.682V21.232H83.7295V12.88ZM90.0655 44.272V0.688H100.434V42.832C100.434 45.008 100.882 46.672 101.778 47.824C102.738 48.976 104.338 49.552 106.578 49.552C107.73 49.552 108.818 49.456 109.842 49.264C110.93 49.008 112.018 48.72 113.106 48.4L114.354 57.616C113.266 57.936 112.21 58.224 111.186 58.48C110.226 58.736 109.202 58.928 108.114 59.056C107.026 59.184 105.714 59.248 104.178 59.248C100.914 59.248 98.2255 58.576 96.1135 57.232C94.0655 55.888 92.5295 54.096 91.5055 51.856C90.5455 49.616 90.0655 47.088 90.0655 44.272ZM121.02 0.399998H131.676L122.844 26.992H117.084V26.416L121.02 0.399998ZM151.552 59.248C146.688 59.248 142.816 58.64 139.936 57.424C137.056 56.208 134.912 54.48 133.504 52.24C132.096 50 131.104 47.472 130.528 44.656L139.84 42.736C140.352 44.528 141.056 46.096 141.952 47.44C142.912 48.784 144.16 49.84 145.696 50.608C147.296 51.312 149.312 51.664 151.744 51.664C154.496 51.664 156.576 51.184 157.984 50.224C159.392 49.2 160.096 47.76 160.096 45.904C160.096 44.688 159.744 43.696 159.04 42.928C158.4 42.096 157.248 41.36 155.584 40.72C153.92 40.08 151.616 39.504 148.672 38.992C144.64 38.16 141.44 37.136 139.072 35.92C136.704 34.704 135.008 33.232 133.984 31.504C132.96 29.712 132.448 27.568 132.448 25.072C132.448 20.976 133.92 17.744 136.864 15.376C139.872 12.944 144.384 11.728 150.4 11.728C154.56 11.728 157.856 12.272 160.288 13.36C162.784 14.384 164.672 15.888 165.952 17.872C167.296 19.792 168.256 22.096 168.832 24.784L159.52 26.8C158.944 23.984 157.92 22 156.448 20.848C154.976 19.696 152.896 19.12 150.208 19.12C147.52 19.12 145.504 19.6 144.16 20.56C142.88 21.456 142.24 22.768 142.24 24.496C142.24 25.52 142.528 26.48 143.104 27.376C143.68 28.208 144.704 28.944 146.176 29.584C147.712 30.224 149.888 30.832 152.704 31.408C157.184 32.24 160.672 33.328 163.168 34.672C165.728 35.952 167.52 37.488 168.544 39.28C169.568 41.072 170.08 43.152 170.08 45.52C170.08 48.272 169.44 50.704 168.16 52.816C166.88 54.864 164.864 56.464 162.112 57.616C159.424 58.704 155.904 59.248 151.552 59.248ZM209.859 20.944C206.275 20.944 203.683 21.68 202.083 23.152C200.547 24.624 199.779 26.512 199.779 28.816C199.779 31.184 200.547 33.104 202.083 34.576C203.619 35.984 206.243 36.688 209.955 36.688C213.731 36.688 216.419 35.984 218.019 34.576C219.619 33.104 220.419 31.184 220.419 28.816C220.419 26.448 219.523 24.56 217.731 23.152C216.003 21.68 213.379 20.944 209.859 20.944ZM201.987 41.776L202.659 42.256L201.219 44.56C200.899 45.136 200.611 45.648 200.355 46.096C200.163 46.544 200.067 46.992 200.067 47.44C200.067 48.336 200.419 48.976 201.123 49.36C201.891 49.744 203.011 49.936 204.483 49.936C207.043 49.936 209.603 49.936 212.163 49.936C214.723 49.872 217.219 49.84 219.651 49.84C224.387 49.84 227.907 50.832 230.211 52.816C232.579 54.736 233.763 57.456 233.763 60.976C233.763 63.984 233.027 66.48 231.555 68.464C230.083 70.512 227.619 72.016 224.163 72.976C220.707 74 216.003 74.512 210.051 74.512C204.355 74.512 199.907 74.128 196.707 73.36C193.507 72.592 191.235 71.504 189.891 70.096C188.611 68.688 187.971 67.024 187.971 65.104C187.971 63.504 188.547 62.128 189.699 60.976C190.851 59.824 192.451 58.864 194.499 58.096C196.547 57.328 198.883 56.784 201.507 56.464L203.427 56.848C201.827 56.848 200.451 57.104 199.299 57.616C198.211 58.064 197.379 58.672 196.803 59.44C196.291 60.208 196.035 61.008 196.035 61.84C196.035 63.056 196.451 64.048 197.283 64.816C198.115 65.584 199.587 66.128 201.699 66.448C203.811 66.832 206.787 67.024 210.627 67.024C214.659 67.024 217.731 66.8 219.843 66.352C222.019 65.968 223.491 65.328 224.259 64.432C225.091 63.6 225.507 62.544 225.507 61.264C225.507 59.984 225.027 58.928 224.067 58.096C223.107 57.264 221.507 56.848 219.267 56.848H201.891C199.843 56.848 198.083 56.624 196.611 56.176C195.139 55.664 194.019 54.928 193.251 53.968C192.547 53.008 192.195 51.856 192.195 50.512C192.195 49.296 192.643 48.176 193.539 47.152C194.435 46.128 195.683 45.232 197.283 44.464L201.987 41.776ZM213.027 19.888L218.403 19.408L218.307 22.192L214.275 20.656C216.195 20.848 218.019 21.168 219.747 21.616C221.539 22 223.139 22.576 224.547 23.344C226.019 24.048 227.171 25.04 228.003 26.32C228.835 27.536 229.251 29.04 229.251 30.832C229.251 33.52 228.515 35.824 227.043 37.744C225.571 39.664 223.395 41.168 220.515 42.256C217.635 43.28 214.083 43.792 209.859 43.792C203.651 43.792 198.851 42.448 195.459 39.76C192.131 37.072 190.467 33.36 190.467 28.624C190.467 25.232 191.235 22.352 192.771 19.984C194.371 17.616 196.675 15.856 199.683 14.704C202.691 13.488 206.275 12.88 210.435 12.88H232.707V20.848H227.523C226.435 20.848 225.187 20.816 223.779 20.752C222.435 20.624 220.867 20.496 219.075 20.368C217.347 20.24 215.331 20.08 213.027 19.888ZM198.339 57.424V55.408H200.451L200.643 56.944L198.339 57.424ZM258.252 59.152C253.644 59.152 249.612 58.288 246.156 56.56C242.764 54.768 240.14 52.144 238.284 48.688C236.428 45.232 235.5 41.008 235.5 36.016C235.5 30.896 236.396 26.544 238.188 22.96C240.044 19.312 242.668 16.528 246.06 14.608C249.452 12.688 253.516 11.728 258.252 11.728C262.796 11.728 266.572 12.592 269.58 14.32C272.588 16.048 274.828 18.448 276.3 21.52C277.772 24.592 278.508 28.208 278.508 32.368C278.508 33.264 278.508 34.224 278.508 35.248C278.508 36.208 278.444 37.264 278.316 38.416H242.7V31.504H271.596L269.004 34.192C269.196 29.456 268.396 25.872 266.604 23.44C264.876 20.944 261.996 19.696 257.964 19.696C253.932 19.696 250.86 20.976 248.748 23.536C246.7 26.032 245.676 30 245.676 35.44C245.676 40.496 246.732 44.304 248.844 46.864C250.956 49.424 254.124 50.704 258.348 50.704C260.78 50.704 262.7 50.352 264.108 49.648C265.516 48.944 266.604 48.016 267.372 46.864C268.204 45.712 268.844 44.4 269.292 42.928L278.124 45.424C277.42 48.112 276.268 50.512 274.668 52.624C273.132 54.672 271.02 56.272 268.332 57.424C265.644 58.576 262.284 59.152 258.252 59.152ZM280.991 12.88H310.943V21.232H280.991V12.88ZM287.327 44.272V0.688H297.695V42.832C297.695 45.008 298.143 46.672 299.039 47.824C299.999 48.976 301.599 49.552 303.839 49.552C304.991 49.552 306.079 49.456 307.103 49.264C308.191 49.008 309.279 48.72 310.367 48.4L311.615 57.616C310.527 57.936 309.471 58.224 308.447 58.48C307.487 58.736 306.463 58.928 305.375 59.056C304.287 59.184 302.975 59.248 301.439 59.248C298.175 59.248 295.487 58.576 293.375 57.232C291.327 55.888 289.791 54.096 288.767 51.856C287.807 49.616 287.327 47.088 287.327 44.272ZM11.8 101.2H0.568V92.848H11.8V101.2ZM11.32 154H1.048V108.88H11.32V154ZM29.6943 120.784H32.9583L30.8463 125.008C31.4223 121.36 32.4783 118.256 34.0143 115.696C35.5503 113.072 37.4703 111.088 39.7743 109.744C42.1423 108.4 44.7663 107.728 47.6463 107.728C50.7823 107.728 53.3743 108.4 55.4223 109.744C57.5343 111.024 59.0703 112.88 60.0303 115.312C61.0543 117.744 61.5663 120.592 61.5663 123.856V154H51.2943V126.544C51.2943 124.688 51.0063 123.056 50.4303 121.648C49.8543 120.24 48.9263 119.12 47.6463 118.288C46.4303 117.456 44.7663 117.04 42.6543 117.04C40.3503 117.04 38.3343 117.52 36.6063 118.48C34.9423 119.44 33.5983 120.784 32.5743 122.512C31.6143 124.176 31.1343 126.16 31.1343 128.464V154H20.8623V108.88H30.9423V125.104L29.6943 120.784ZM82.4657 108.88H112.418V117.232H82.4657V108.88ZM88.8017 140.272V96.688H99.1697V138.832C99.1697 141.008 99.6177 142.672 100.514 143.824C101.474 144.976 103.074 145.552 105.314 145.552C106.466 145.552 107.554 145.456 108.578 145.264C109.666 145.008 110.754 144.72 111.842 144.4L113.09 153.616C112.002 153.936 110.946 154.224 109.922 154.48C108.962 154.736 107.938 154.928 106.85 155.056C105.762 155.184 104.45 155.248 102.914 155.248C99.6497 155.248 96.9617 154.576 94.8497 153.232C92.8017 151.888 91.2657 150.096 90.2417 147.856C89.2817 145.616 88.8017 143.088 88.8017 140.272ZM138.392 155.248C133.592 155.248 129.464 154.288 126.008 152.368C122.616 150.448 119.992 147.696 118.136 144.112C116.344 140.464 115.448 136.208 115.448 131.344C115.448 126.352 116.376 122.096 118.232 118.576C120.152 115.056 122.808 112.368 126.2 110.512C129.656 108.656 133.72 107.728 138.392 107.728C143 107.728 147 108.656 150.392 110.512C153.784 112.368 156.408 115.056 158.264 118.576C160.184 122.096 161.144 126.352 161.144 131.344C161.144 138.768 159.128 144.624 155.096 148.912C151.128 153.136 145.56 155.248 138.392 155.248ZM138.296 116.464C134.136 116.464 131 117.776 128.888 120.4C126.84 123.024 125.816 126.64 125.816 131.248C125.816 134.384 126.232 137.072 127.064 139.312C127.96 141.552 129.336 143.28 131.192 144.496C133.048 145.712 135.416 146.32 138.296 146.32C142.584 146.32 145.752 144.976 147.8 142.288C149.848 139.6 150.872 135.92 150.872 131.248C150.872 128.176 150.392 125.552 149.432 123.376C148.536 121.136 147.16 119.44 145.304 118.288C143.448 117.072 141.112 116.464 138.296 116.464ZM198.889 142.096H195.721L197.737 137.872C197.225 141.52 196.201 144.656 194.665 147.28C193.129 149.84 191.177 151.824 188.809 153.232C186.505 154.576 183.913 155.248 181.033 155.248C177.833 155.248 175.209 154.576 173.161 153.232C171.113 151.888 169.577 150 168.553 147.568C167.529 145.136 167.017 142.288 167.017 139.024V108.88H177.385V136.336C177.385 138.128 177.673 139.76 178.249 141.232C178.825 142.64 179.721 143.76 180.937 144.592C182.217 145.424 183.881 145.84 185.929 145.84C188.297 145.84 190.313 145.36 191.977 144.4C193.705 143.44 195.049 142.096 196.009 140.368C196.969 138.64 197.449 136.656 197.449 134.416V108.88H207.817V154H197.737V137.776L198.889 142.096ZM247.772 126.448C247.388 124.528 246.748 122.864 245.852 121.456C245.02 119.984 243.868 118.864 242.396 118.096C240.988 117.264 239.068 116.848 236.636 116.848C232.924 116.848 229.98 118.064 227.804 120.496C225.692 122.864 224.636 126.512 224.636 131.44C224.636 134.448 225.084 137.072 225.98 139.312C226.94 141.488 228.316 143.184 230.108 144.4C231.964 145.552 234.236 146.128 236.924 146.128C239.356 146.128 241.308 145.68 242.78 144.784C244.252 143.824 245.372 142.608 246.14 141.136C246.972 139.6 247.612 137.936 248.06 136.144L257.564 138.448C256.668 143.696 254.556 147.824 251.228 150.832C247.964 153.776 243.228 155.248 237.02 155.248C232.284 155.248 228.188 154.352 224.732 152.56C221.34 150.768 218.716 148.112 216.86 144.592C215.004 141.072 214.076 136.816 214.076 131.824C214.076 126.704 215.004 122.352 216.86 118.768C218.716 115.184 221.34 112.464 224.732 110.608C228.188 108.688 232.22 107.728 236.828 107.728C241.18 107.728 244.764 108.4 247.58 109.744C250.396 111.024 252.572 112.944 254.108 115.504C255.708 118 256.828 121.04 257.468 124.624L247.772 126.448ZM273.087 120.784H275.871L273.951 125.008C274.591 121.36 275.647 118.256 277.119 115.696C278.655 113.136 280.575 111.184 282.879 109.84C285.247 108.432 287.935 107.728 290.943 107.728C294.015 107.728 296.575 108.4 298.623 109.744C300.671 111.024 302.175 112.88 303.135 115.312C304.159 117.744 304.671 120.592 304.671 123.856V154H294.399V126.544C294.399 124.688 294.111 123.056 293.535 121.648C292.959 120.24 292.031 119.12 290.751 118.288C289.535 117.456 287.903 117.04 285.855 117.04C283.551 117.04 281.535 117.52 279.807 118.48C278.079 119.44 276.703 120.784 275.679 122.512C274.719 124.176 274.239 126.16 274.239 128.464V154H263.967V92.368H274.239V125.104L273.087 120.784Z" fill="#E91D27"/>
</svg>
