<svg width="1282" height="140" viewBox="0 0 1282 140" fill="none" xmlns="http://www.w3.org/2000/svg">
<rect width="1282" height="119" transform="translate(0 3)" fill="#1E1E1E"/>
<path d="M490.521 51.79V65.9C490.521 82.9 485.025 96.9533 474.031 108.06C463.151 119.167 448.815 124.72 431.021 124.72C412.435 124.72 397.248 118.827 385.461 107.04C373.675 95.14 367.781 80.35 367.781 62.67C367.781 44.99 373.675 30.2 385.461 18.3C397.248 6.28666 411.981 0.279997 429.661 0.279997C440.768 0.279997 450.911 2.77333 460.091 7.75999C469.385 12.7467 476.695 19.49 482.021 27.99L453.121 44.48C448.361 37.2267 440.768 33.6 430.341 33.6C421.841 33.6 414.928 36.32 409.601 41.76C404.388 47.2 401.781 54.2267 401.781 62.84C401.781 71 404.218 78.14 409.091 84.26C413.965 90.2667 421.501 93.27 431.701 93.27C443.488 93.27 451.365 89.0767 455.331 80.69H430.001V51.79H490.521ZM520.553 118.94C516.813 122.68 512.223 124.55 506.783 124.55C501.343 124.55 496.696 122.68 492.843 118.94C489.103 115.087 487.233 110.44 487.233 105C487.233 99.56 489.103 94.97 492.843 91.23C496.696 87.3767 501.343 85.45 506.783 85.45C512.223 85.45 516.813 87.3767 520.553 91.23C524.406 94.97 526.333 99.56 526.333 105C526.333 110.44 524.406 115.087 520.553 118.94ZM630.713 106.87C618.586 118.77 603.683 124.72 586.003 124.72C568.323 124.72 553.363 118.77 541.123 106.87C528.996 94.8567 522.933 80.0667 522.933 62.5C522.933 44.9333 528.996 30.2 541.123 18.3C553.363 6.28666 568.323 0.279997 586.003 0.279997C603.683 0.279997 618.586 6.28666 630.713 18.3C642.953 30.2 649.073 44.9333 649.073 62.5C649.073 80.0667 642.953 94.8567 630.713 106.87ZM565.093 83.24C570.646 88.68 577.616 91.4 586.003 91.4C594.39 91.4 601.303 88.68 606.743 83.24C612.296 77.6867 615.073 70.7733 615.073 62.5C615.073 54.2267 612.296 47.37 606.743 41.93C601.303 36.3767 594.39 33.6 586.003 33.6C577.616 33.6 570.646 36.3767 565.093 41.93C559.653 47.37 556.933 54.2267 556.933 62.5C556.933 70.7733 559.653 77.6867 565.093 83.24ZM679.025 118.94C675.285 122.68 670.695 124.55 665.255 124.55C659.815 124.55 655.168 122.68 651.315 118.94C647.575 115.087 645.705 110.44 645.705 105C645.705 99.56 647.575 94.97 651.315 91.23C655.168 87.3767 659.815 85.45 665.255 85.45C670.695 85.45 675.285 87.3767 679.025 91.23C682.878 94.97 684.805 99.56 684.805 105C684.805 110.44 682.878 115.087 679.025 118.94ZM762.972 122L758.892 106.7H724.552L720.472 122H683.922L721.832 2.99999H761.612L799.522 122H762.972ZM731.862 79.5H751.582L741.722 42.95L731.862 79.5ZM835.339 118.94C831.599 122.68 827.009 124.55 821.569 124.55C816.129 124.55 811.482 122.68 807.629 118.94C803.889 115.087 802.019 110.44 802.019 105C802.019 99.56 803.889 94.97 807.629 91.23C811.482 87.3767 816.129 85.45 821.569 85.45C827.009 85.45 831.599 87.3767 835.339 91.23C839.192 94.97 841.119 99.56 841.119 105C841.119 110.44 839.192 115.087 835.339 118.94ZM916.802 2.99999V35.98H888.752V122H854.752V35.98H826.702V2.99999H916.802Z" fill="#E91D27"/>
<path d="M531.596 138.436C530.876 138.436 530.185 138.353 529.521 138.187C523.765 136.471 520.888 131.048 520.888 121.917C520.888 113.838 523.157 102.493 527.694 87.8838C530.019 80.4684 533.118 72.0016 536.991 62.4834C540.865 52.9098 544.905 43.613 549.11 34.5928C554.368 23.359 558.905 14.7539 562.724 8.77734C563.72 7.44922 564.826 6.78516 566.044 6.78516C567.372 6.78516 568.285 7.17253 568.783 7.94727C569.281 8.72201 569.53 9.38607 569.53 9.93945C569.53 10.6589 569.281 11.4613 568.783 12.3467C565.74 17.6592 561.811 25.4896 556.996 35.8379C549.691 51.6647 543.715 65.859 539.066 78.4209C534.141 92.3662 530.738 104.873 528.856 115.94C528.082 120.478 527.694 124.158 527.694 126.98C527.694 130.245 528.275 131.878 529.438 131.878C532.481 131.878 537.434 128.115 544.296 120.589C555.972 107.695 570.001 87.9668 586.381 61.4043C587.93 58.8034 589.065 57.0602 589.784 56.1748C590.504 55.2894 591.14 54.8467 591.693 54.8467C592.191 54.8467 592.828 55.0957 593.603 55.5938C594.433 56.0365 595.069 56.5345 595.512 57.0879L596.342 58.25L596.01 71.1162C595.899 73.3298 595.761 75.1559 595.595 76.5947C594.211 92.5322 593.437 102.798 593.271 107.391C593.104 111.984 593.021 115.138 593.021 116.854C593.021 121.834 593.437 125.708 594.267 128.475C594.377 128.973 594.488 129.222 594.599 129.222H594.848C595.124 129.222 595.456 129.111 595.844 128.89C599.164 126.953 603.84 121.225 609.872 111.707C619.667 96.0462 632.118 71.891 647.226 39.2412C650.657 31.6598 653.728 24.9915 656.439 19.2363C658.487 14.7539 659.926 11.9316 660.756 10.7695C661.143 10.2715 661.475 9.99479 661.752 9.93945C662.029 9.93945 662.278 9.99479 662.499 10.1055C662.72 10.2161 662.914 10.2992 663.08 10.3545C664.408 10.7419 665.238 11.2122 665.57 11.7656C665.902 12.2637 666.068 12.7617 666.068 13.2598C666.068 14.8092 664.74 18.4616 662.084 24.2168C645.648 61.0169 632.229 88.4372 621.825 106.478C612.805 122.083 605.556 131.38 600.077 134.368C598.638 135.143 597.283 135.53 596.01 135.53C593.132 135.53 590.725 133.455 588.788 129.305C587.349 126.482 586.63 121.419 586.63 114.114C586.63 106.865 587.322 95.7142 588.705 80.6621C589.148 76.9544 589.369 74.2152 589.369 72.4443C589.369 72.3337 589.341 72.2507 589.286 72.1953C589.231 72.1953 589.175 72.223 589.12 72.2783C589.12 72.2783 587.737 74.4919 584.97 78.9189C570.748 101.995 558.573 118.486 548.446 128.392C541.584 135.088 535.967 138.436 531.596 138.436ZM684.081 95.8525C682.974 95.8525 681.923 95.7419 680.927 95.5205C677.274 94.2477 675.144 92.1172 674.535 89.1289C674.48 88.4095 674.369 88.0498 674.203 88.0498H673.954C673.733 88.0498 673.262 88.3818 672.543 89.0459C669.057 92.0895 665.653 93.6113 662.333 93.6113C659.787 93.6113 657.851 92.6152 656.522 90.623C655.803 89.5716 655.443 88.3265 655.443 86.8877C655.443 84.7295 656.246 82.1286 657.851 79.085C660.175 75.1559 662.914 72.14 666.068 70.0371C669.278 67.9342 672.239 66.8828 674.95 66.8828C677.994 66.8828 680.069 68.4046 681.176 71.4482C681.231 71.6143 681.314 71.6973 681.425 71.6973C681.591 71.6973 681.923 71.4482 682.421 70.9502C683.362 70.1755 684.275 69.7881 685.16 69.7881L685.824 69.8711C687.429 70.2585 688.231 71.1715 688.231 72.6104C688.231 73.3851 687.927 74.1875 687.318 75.0176C685.492 77.2865 683.943 79.6937 682.67 82.2393C681.12 85.4489 680.346 87.8838 680.346 89.5439C680.346 90.374 680.871 90.7891 681.923 90.7891C683.085 90.7891 684.8 90.3464 687.069 89.4609C693.267 87.026 699.88 83.097 706.908 77.6738C708.734 76.1243 709.896 75.3219 710.395 75.2666C710.948 75.2113 711.308 75.1836 711.474 75.1836C712.304 75.1836 713.161 75.6816 714.047 76.6777C714.6 77.2311 714.877 77.7845 714.877 78.3379C714.877 79.334 713.41 81.0218 710.478 83.4014C707.545 85.7809 704.529 87.9115 701.43 89.793C694.457 93.8327 688.674 95.8525 684.081 95.8525ZM662.25 87.4688C662.693 87.4688 663.523 86.9984 664.74 86.0576C666.013 85.2275 667.535 83.9824 669.306 82.3223C671.076 80.6621 672.654 79.0573 674.037 77.5078C675.476 75.9583 676.278 74.9069 676.444 74.3535L676.527 73.6895C676.527 72.6934 676.112 72.1953 675.282 72.1953C674.563 72.1953 673.65 72.5273 672.543 73.1914C670.993 74.1322 669.361 75.5433 667.646 77.4248C665.93 79.251 664.519 81.2708 663.412 83.4844C662.416 85.2552 661.918 86.445 661.918 87.0537C661.918 87.3304 662.029 87.4688 662.25 87.4688ZM698.109 139.681C697.556 139.681 696.864 139.432 696.034 138.934C694.706 138.159 693.931 137.301 693.71 136.36V136.194C693.71 134.866 694.651 130.522 696.532 123.162C700.959 105.62 706.41 86.279 712.885 65.1396C713.549 63.0921 715.375 56.9772 718.363 46.7949C722.846 31.7982 726.526 19.596 729.403 10.1885C731.174 4.43327 732.198 1.47266 732.475 1.30664C732.807 1.14062 733.194 1.05762 733.637 1.05762C734.965 1.05762 736.155 1.58333 737.206 2.63477C737.759 3.18815 738.064 3.74154 738.119 4.29492C738.119 4.84831 737.898 5.81673 737.455 7.2002C735.74 12.6787 732.779 22.8057 728.573 37.5811C725.806 47.376 722.956 57.1156 720.023 66.7998C712.442 92.3662 706.244 114.363 701.43 132.791C700.6 136.333 699.963 138.353 699.521 138.851C699.022 139.404 698.552 139.681 698.109 139.681ZM722.016 139.681C721.462 139.681 720.771 139.432 719.94 138.934C718.612 138.159 717.838 137.301 717.616 136.36V136.194C717.616 134.866 718.557 130.522 720.438 123.162C724.866 105.62 730.316 86.279 736.791 65.1396C737.455 63.0921 739.281 56.9772 742.27 46.7949C746.752 31.7982 750.432 19.596 753.31 10.1885C755.08 4.43327 756.104 1.47266 756.381 1.30664C756.713 1.14062 757.1 1.05762 757.543 1.05762C758.871 1.05762 760.061 1.58333 761.112 2.63477C761.666 3.18815 761.97 3.74154 762.025 4.29492C762.025 4.84831 761.804 5.81673 761.361 7.2002C759.646 12.6787 756.685 22.8057 752.479 37.5811C749.713 47.376 746.863 57.1156 743.93 66.7998C736.348 92.3662 730.15 114.363 725.336 132.791C724.506 136.333 723.869 138.353 723.427 138.851C722.929 139.404 722.458 139.681 722.016 139.681Z" fill="white"/>
</svg>
