<svg width="1282" height="141" viewBox="0 0 1282 141" fill="none" xmlns="http://www.w3.org/2000/svg">
<rect width="1282" height="119" transform="translate(0 3.5)" fill="#1E1E1E"/>
<path d="M490.521 52.29V66.4C490.521 83.4 485.025 97.4533 474.031 108.56C463.151 119.667 448.815 125.22 431.021 125.22C412.435 125.22 397.248 119.327 385.461 107.54C373.675 95.64 367.781 80.85 367.781 63.17C367.781 45.49 373.675 30.7 385.461 18.8C397.248 6.78666 411.981 0.779997 429.661 0.779997C440.768 0.779997 450.911 3.27333 460.091 8.25999C469.385 13.2467 476.695 19.99 482.021 28.49L453.121 44.98C448.361 37.7267 440.768 34.1 430.341 34.1C421.841 34.1 414.928 36.82 409.601 42.26C404.388 47.7 401.781 54.7267 401.781 63.34C401.781 71.5 404.218 78.64 409.091 84.76C413.965 90.7667 421.501 93.77 431.701 93.77C443.488 93.77 451.365 89.5767 455.331 81.19H430.001V52.29H490.521ZM520.553 119.44C516.813 123.18 512.223 125.05 506.783 125.05C501.343 125.05 496.696 123.18 492.843 119.44C489.103 115.587 487.233 110.94 487.233 105.5C487.233 100.06 489.103 95.47 492.843 91.73C496.696 87.8767 501.343 85.95 506.783 85.95C512.223 85.95 516.813 87.8767 520.553 91.73C524.406 95.47 526.333 100.06 526.333 105.5C526.333 110.94 524.406 115.587 520.553 119.44ZM630.713 107.37C618.586 119.27 603.683 125.22 586.003 125.22C568.323 125.22 553.363 119.27 541.123 107.37C528.996 95.3567 522.933 80.5667 522.933 63C522.933 45.4333 528.996 30.7 541.123 18.8C553.363 6.78666 568.323 0.779997 586.003 0.779997C603.683 0.779997 618.586 6.78666 630.713 18.8C642.953 30.7 649.073 45.4333 649.073 63C649.073 80.5667 642.953 95.3567 630.713 107.37ZM565.093 83.74C570.646 89.18 577.616 91.9 586.003 91.9C594.39 91.9 601.303 89.18 606.743 83.74C612.296 78.1867 615.073 71.2733 615.073 63C615.073 54.7267 612.296 47.87 606.743 42.43C601.303 36.8767 594.39 34.1 586.003 34.1C577.616 34.1 570.646 36.8767 565.093 42.43C559.653 47.87 556.933 54.7267 556.933 63C556.933 71.2733 559.653 78.1867 565.093 83.74ZM679.025 119.44C675.285 123.18 670.695 125.05 665.255 125.05C659.815 125.05 655.168 123.18 651.315 119.44C647.575 115.587 645.705 110.94 645.705 105.5C645.705 100.06 647.575 95.47 651.315 91.73C655.168 87.8767 659.815 85.95 665.255 85.95C670.695 85.95 675.285 87.8767 679.025 91.73C682.878 95.47 684.805 100.06 684.805 105.5C684.805 110.94 682.878 115.587 679.025 119.44ZM762.972 122.5L758.892 107.2H724.552L720.472 122.5H683.922L721.832 3.49999H761.612L799.522 122.5H762.972ZM731.862 80H751.582L741.722 43.45L731.862 80ZM835.339 119.44C831.599 123.18 827.009 125.05 821.569 125.05C816.129 125.05 811.482 123.18 807.629 119.44C803.889 115.587 802.019 110.94 802.019 105.5C802.019 100.06 803.889 95.47 807.629 91.73C811.482 87.8767 816.129 85.95 821.569 85.95C827.009 85.95 831.599 87.8767 835.339 91.73C839.192 95.47 841.119 100.06 841.119 105.5C841.119 110.94 839.192 115.587 835.339 119.44ZM916.802 3.49999V36.48H888.752V122.5H854.752V36.48H826.702V3.49999H916.802Z" fill="#E91D27"/>
<path d="M442.03 137.607C441.698 137.607 441.449 137.552 441.283 137.441C441.117 137.386 441.007 137.303 440.951 137.192C440.84 137.082 440.757 137.026 440.702 137.026C440.038 136.252 439.706 135.532 439.706 134.868C439.651 134.259 439.623 133.872 439.623 133.706C439.623 132.323 440.232 131.437 441.449 131.05C442.113 130.828 444.742 130.441 449.335 129.888L454.398 129.224V128.228C454.398 127.231 455.367 123.468 457.304 116.938C459.296 110.353 461.786 102.716 464.774 94.0283C469.7 79.3636 473.905 66.359 477.392 55.0146C486.744 24.4124 492.029 8.83464 493.246 8.28125C493.523 8.11523 493.827 8.03223 494.159 8.03223C495.155 8.03223 496.124 8.61328 497.064 9.77539C497.618 10.4948 497.895 11.2695 497.895 12.0996C497.895 12.321 497.618 13.3724 497.064 15.2539C496.511 17.0801 495.819 19.266 494.989 21.8115C494.159 24.3018 492.914 28.2031 491.254 33.5156C489.649 38.8281 487.989 44.2513 486.273 49.7852C480.684 68.6003 476.368 82.5179 473.324 91.5381C471.775 95.9098 470.087 100.946 468.261 106.646C466.49 112.29 464.94 117.243 463.612 121.504C462.34 125.71 461.703 128.006 461.703 128.394V128.477H462.367C463.861 128.477 466.269 128.366 469.589 128.145C484.696 127.259 495.875 126.816 503.124 126.816C511.093 126.816 515.271 127.453 515.658 128.726C515.935 129.334 516.073 129.971 516.073 130.635C516.073 131.52 515.88 132.24 515.492 132.793L514.828 133.457L500.219 133.789C476.091 134.232 458.355 135.283 447.011 136.943L446.347 137.026C444.299 137.414 442.86 137.607 442.03 137.607ZM520.971 95.1904C519.919 95.1904 518.896 95.0521 517.899 94.7754C513.86 93.1706 511.84 90.459 511.84 86.6406C511.84 82.6562 514.136 78.2845 518.729 73.5254C522.714 69.6517 526.117 67.7148 528.939 67.7148C530.71 67.7148 532.038 68.5449 532.924 70.2051C533.311 70.9245 533.754 71.4225 534.252 71.6992C534.75 71.9206 535.525 72.6676 536.576 73.9404C538.956 77.1501 541.972 78.7826 545.624 78.8379C548.114 78.8379 550.909 78.0908 554.008 76.5967C555.281 76.0433 556.443 75.7666 557.494 75.7666L558.656 75.8496C560.538 76.1816 561.479 76.9564 561.479 78.1738C561.479 78.8932 561.091 79.6403 560.316 80.415C557.328 83.0713 553.51 84.3994 548.861 84.3994C545.652 84.3994 542.525 83.7077 539.481 82.3242C538.153 81.6602 537.379 81.3281 537.157 81.3281C537.102 81.3281 537.074 81.3835 537.074 81.4941C537.074 81.5495 536.881 81.9645 536.493 82.7393C535.331 85.9489 533.477 88.6605 530.932 90.874C527.611 93.7516 524.291 95.1904 520.971 95.1904ZM518.979 89.5459C519.643 89.5459 520.611 89.1862 521.884 88.4668C524.208 87.2493 526.2 85.6169 527.86 83.5693C530.019 80.8024 531.098 78.2292 531.098 75.8496C531.098 75.1855 531.015 74.5768 530.849 74.0234C530.683 73.4701 530.351 73.1934 529.853 73.1934C528.635 73.1934 526.837 74.4661 524.457 77.0117C522.742 78.7826 521.247 80.7471 519.975 82.9053C518.702 85.0081 518.01 86.8066 517.899 88.3008C517.899 89.1309 518.259 89.5459 518.979 89.5459ZM567.621 95.7715H566.459C565.629 95.7715 564.66 95.7161 563.554 95.6055C558.407 94.8861 555.142 92.8385 553.759 89.4629C553.316 88.3561 553.095 87.1663 553.095 85.8936C553.095 82.9053 554.368 79.5573 556.913 75.8496C559.791 71.9759 563.083 69.458 566.791 68.2959C568.119 67.9085 569.364 67.7148 570.526 67.7148C573.349 67.7148 575.701 68.8216 577.582 71.0352C578.578 72.474 579.076 73.9404 579.076 75.4346V76.0986C578.799 78.8102 577.803 80.166 576.088 80.166C575.368 80.166 574.566 79.7786 573.681 79.0039C573.017 78.3398 572.657 77.8418 572.602 77.5098C572.546 77.1777 572.519 76.9564 572.519 76.8457C572.519 76.3477 572.657 75.7113 572.934 74.9365C573.155 74.4385 573.266 74.0234 573.266 73.6914C573.266 73.0827 572.934 72.7783 572.27 72.7783C571.55 72.7783 570.443 73.138 568.949 73.8574C565.961 75.4622 563.415 78.0078 561.312 81.4941C560.095 83.431 559.403 84.8975 559.237 85.8936C559.071 86.8896 558.988 87.526 558.988 87.8027C558.988 88.7988 559.376 89.4629 560.15 89.7949C561.423 90.1823 562.917 90.376 564.633 90.376L566.791 90.293C571.661 89.7949 576.946 88.3838 582.646 86.0596C588.345 83.68 593.188 80.8024 597.172 77.4268C598.555 76.2093 599.468 75.5452 599.911 75.4346C600.354 75.2686 600.686 75.1855 600.907 75.1855C601.405 75.1855 601.959 75.4069 602.567 75.8496C603.563 76.6243 604.062 77.5098 604.062 78.5059C604.062 79.9447 603.01 81.5771 600.907 83.4033C597.753 86.1702 593.326 88.7435 587.626 91.123C581.981 93.4473 576.088 94.9414 569.945 95.6055C568.839 95.7161 568.064 95.7715 567.621 95.7715ZM622.074 96.3525C620.967 96.3525 619.916 96.2419 618.92 96.0205C615.268 94.7477 613.137 92.6172 612.528 89.6289C612.473 88.9095 612.362 88.5498 612.196 88.5498H611.947C611.726 88.5498 611.256 88.8818 610.536 89.5459C607.05 92.5895 603.646 94.1113 600.326 94.1113C597.781 94.1113 595.844 93.1152 594.516 91.123C593.796 90.0716 593.437 88.8265 593.437 87.3877C593.437 85.2295 594.239 82.6286 595.844 79.585C598.168 75.6559 600.907 72.64 604.062 70.5371C607.271 68.4342 610.232 67.3828 612.943 67.3828C615.987 67.3828 618.062 68.9046 619.169 71.9482C619.224 72.1143 619.307 72.1973 619.418 72.1973C619.584 72.1973 619.916 71.9482 620.414 71.4502C621.355 70.6755 622.268 70.2881 623.153 70.2881L623.817 70.3711C625.422 70.7585 626.225 71.6715 626.225 73.1104C626.225 73.8851 625.92 74.6875 625.312 75.5176C623.485 77.7865 621.936 80.1937 620.663 82.7393C619.114 85.9489 618.339 88.3838 618.339 90.0439C618.339 90.874 618.865 91.2891 619.916 91.2891C621.078 91.2891 622.794 90.8464 625.062 89.9609C631.26 87.526 637.873 83.597 644.901 78.1738C646.728 76.6243 647.89 75.8219 648.388 75.7666C648.941 75.7113 649.301 75.6836 649.467 75.6836C650.297 75.6836 651.155 76.1816 652.04 77.1777C652.593 77.7311 652.87 78.2845 652.87 78.8379C652.87 79.834 651.404 81.5218 648.471 83.9014C645.538 86.2809 642.522 88.4115 639.423 90.293C632.45 94.3327 626.667 96.3525 622.074 96.3525ZM600.243 87.9688C600.686 87.9688 601.516 87.4984 602.733 86.5576C604.006 85.7275 605.528 84.4824 607.299 82.8223C609.07 81.1621 610.647 79.5573 612.03 78.0078C613.469 76.4583 614.271 75.4069 614.438 74.8535L614.521 74.1895C614.521 73.1934 614.105 72.6953 613.275 72.6953C612.556 72.6953 611.643 73.0273 610.536 73.6914C608.987 74.6322 607.354 76.0433 605.639 77.9248C603.923 79.751 602.512 81.7708 601.405 83.9844C600.409 85.7552 599.911 86.945 599.911 87.5537C599.911 87.8304 600.022 87.9688 600.243 87.9688ZM636.435 140.015C636.047 140.015 635.549 139.876 634.94 139.6C634.221 139.268 633.612 138.742 633.114 138.022C632.616 137.358 632.367 136.694 632.367 136.03C632.367 133.208 634.553 123.413 638.925 106.646C643.407 89.4352 648.969 69.873 655.609 47.959C657.104 43.3659 658.764 37.915 660.59 31.6064C661.254 29.3376 661.586 28.1478 661.586 28.0371C661.586 27.9818 661.171 27.9541 660.341 27.9541L652.289 28.0371C647.641 28.2031 643.546 28.4798 640.004 28.8672L638.676 28.9502C636.684 28.9502 635.688 27.9818 635.688 26.0449C635.688 25.1042 635.826 24.4124 636.103 23.9697C636.379 23.527 637.099 23.1673 638.261 22.8906C639.81 22.5586 644.901 22.2266 653.534 21.8945C657.463 21.7839 660.147 21.6732 661.586 21.5625C663.025 21.4518 663.772 21.2858 663.827 21.0645C663.882 20.8431 664.325 19.4596 665.155 16.9141C665.819 14.4238 666.373 12.985 666.815 12.5977C667.258 12.2103 667.646 12.0166 667.978 12.0166C668.476 12.0166 669.057 12.238 669.721 12.6807C670.717 13.234 671.27 13.7598 671.381 14.2578C671.492 14.7559 671.547 15.1709 671.547 15.5029C671.547 16.2223 671.187 17.8271 670.468 20.3174L670.302 21.3135C670.302 21.3688 670.329 21.4242 670.385 21.4795C670.44 21.4795 671.907 21.5348 674.784 21.6455C677.717 21.7008 681.342 21.7562 685.658 21.8115C698.275 21.8669 706.106 22.0605 709.149 22.3926C710.81 22.5586 711.916 22.8076 712.47 23.1396C713.023 23.4717 713.383 23.8867 713.549 24.3848C713.881 25.1595 714.047 25.8236 714.047 26.377C714.047 27.7604 713.023 28.4521 710.976 28.4521H710.478C708.43 28.2861 701.236 28.0924 688.896 27.8711C684.192 27.8158 677.33 27.7881 668.31 27.7881L666.4 34.1797L663.661 43.8086C659.732 57.4772 657.768 68.2406 657.768 76.0986C657.768 79.6403 658.21 82.4349 659.096 84.4824C659.76 85.8659 661.033 86.5576 662.914 86.5576C665.57 86.5576 669.167 85.1742 673.705 82.4072C675.753 81.1344 677.883 79.5573 680.097 77.6758C681.978 76.071 683.168 75.2132 683.666 75.1025C684.164 74.9919 684.496 74.9365 684.662 74.9365C685.382 74.9365 686.129 75.3516 686.903 76.1816C687.678 76.9564 688.065 77.6758 688.065 78.3398C688.065 79.2806 687.097 80.5811 685.16 82.2412C677.745 88.8265 671.076 92.1191 665.155 92.1191C659.511 92.1191 655.692 89.1585 653.7 83.2373C653.479 82.5732 653.285 82.0475 653.119 81.6602L652.87 81.0791C652.593 81.5771 651.653 84.7868 650.048 90.708C648.443 96.5739 646.7 103.325 644.818 110.962C642.383 120.425 640.502 128.062 639.174 133.872C638.676 135.92 638.261 137.414 637.929 138.354C637.597 139.295 637.292 139.793 637.016 139.849C636.739 139.959 636.545 140.015 636.435 140.015ZM690.058 95.9375C689.172 95.9375 688.314 95.8545 687.484 95.6885C682.781 94.4157 680.401 90.9847 680.346 85.3955C680.346 82.7946 680.927 79.6956 682.089 76.0986C683.362 72.1143 684.413 69.707 685.243 68.877C686.073 67.9915 686.793 67.5488 687.401 67.5488C688.065 67.5488 688.812 67.8809 689.643 68.5449C690.528 69.1536 690.971 69.6517 690.971 70.0391C691.026 70.4264 691.054 70.6478 691.054 70.7031C691.054 71.4225 690.694 72.5016 689.975 73.9404C688.536 76.9287 687.54 79.668 686.986 82.1582C686.433 84.5931 686.156 86.4746 686.156 87.8027C686.156 88.5221 686.239 89.2139 686.405 89.8779C686.627 90.4867 687.235 90.791 688.231 90.791C690.224 90.791 693.24 89.5736 697.279 87.1387C700.987 84.8698 704.75 81.9645 708.568 78.4229C710.561 76.486 711.833 75.4346 712.387 75.2686C712.995 75.1025 713.355 75.0195 713.466 75.0195C714.296 75.0195 715.126 75.5452 715.956 76.5967C716.62 77.2607 716.952 77.8418 716.952 78.3398C716.952 79.1146 716.011 80.4427 714.13 82.3242C711.252 85.2018 708.319 87.6921 705.331 89.7949C699.41 93.89 694.319 95.9375 690.058 95.9375ZM693.129 64.4775C692.686 64.4775 692.16 64.2839 691.552 63.8965C690.556 63.2878 690.058 62.2087 690.058 60.6592C690.058 58.833 690.473 57.1729 691.303 55.6787C692.188 54.1846 693.295 53.4375 694.623 53.4375C696.947 53.4375 698.109 54.3229 698.109 56.0938C698.109 57.2005 697.584 58.75 696.532 60.7422C695.481 62.679 694.734 63.7858 694.291 64.0625C693.848 64.3392 693.461 64.4775 693.129 64.4775ZM716.371 95.1904C715.32 95.1904 714.296 95.0521 713.3 94.7754C709.26 93.1706 707.24 90.459 707.24 86.6406C707.24 82.6562 709.537 78.2845 714.13 73.5254C718.114 69.6517 721.518 67.7148 724.34 67.7148C726.111 67.7148 727.439 68.5449 728.324 70.2051C728.712 70.9245 729.154 71.4225 729.652 71.6992C730.15 71.9206 730.925 72.6676 731.977 73.9404C734.356 77.1501 737.372 78.7826 741.024 78.8379C743.515 78.8379 746.309 78.0908 749.408 76.5967C750.681 76.0433 751.843 75.7666 752.895 75.7666L754.057 75.8496C755.938 76.1816 756.879 76.9564 756.879 78.1738C756.879 78.8932 756.492 79.6403 755.717 80.415C752.729 83.0713 748.91 84.3994 744.262 84.3994C741.052 84.3994 737.925 83.7077 734.882 82.3242C733.554 81.6602 732.779 81.3281 732.558 81.3281C732.502 81.3281 732.475 81.3835 732.475 81.4941C732.475 81.5495 732.281 81.9645 731.894 82.7393C730.731 85.9489 728.878 88.6605 726.332 90.874C723.012 93.7516 719.691 95.1904 716.371 95.1904ZM714.379 89.5459C715.043 89.5459 716.011 89.1862 717.284 88.4668C719.608 87.2493 721.601 85.6169 723.261 83.5693C725.419 80.8024 726.498 78.2292 726.498 75.8496C726.498 75.1855 726.415 74.5768 726.249 74.0234C726.083 73.4701 725.751 73.1934 725.253 73.1934C724.035 73.1934 722.237 74.4661 719.857 77.0117C718.142 78.7826 716.648 80.7471 715.375 82.9053C714.102 85.0081 713.41 86.8066 713.3 88.3008C713.3 89.1309 713.66 89.5459 714.379 89.5459ZM775.473 97.5146C774.311 97.5146 773.259 97.3486 772.318 97.0166C769.33 95.8545 767.836 93.5856 767.836 90.21C767.836 88.7712 767.919 87.5814 768.085 86.6406C768.362 85.2572 769.33 82.4626 770.99 78.2568C772.152 75.3792 772.733 73.7191 772.733 73.2764C772.733 73.1104 772.678 73.0273 772.567 73.0273C772.291 73.0273 771.765 73.3594 770.99 74.0234C767.67 76.4583 764.211 79.6126 760.614 83.4863C757.46 86.862 754.804 90.127 752.646 93.2812C751.76 94.554 750.875 95.1904 749.989 95.1904C749.215 95.1904 748.412 94.7201 747.582 93.7793C747.25 93.4473 747.029 93.1706 746.918 92.9492C746.807 92.6725 746.752 92.4235 746.752 92.2021C746.752 91.4827 747.001 90.3206 747.499 88.7158C747.886 87.443 749.519 82.5732 752.396 74.1064C753.393 71.1735 754.195 69.0706 754.804 67.7979C755.468 66.5251 756.104 65.861 756.713 65.8057C757.266 65.8057 757.958 66.193 758.788 66.9678C759.674 67.7425 760.116 68.4896 760.116 69.209C760.116 69.873 759.84 71.0905 759.286 72.8613L759.203 73.1934C758.76 74.6322 758.539 75.5176 758.539 75.8496C758.539 75.9049 758.567 75.9326 758.622 75.9326C758.954 75.9326 759.757 75.2962 761.029 74.0234C766.508 68.9323 770.824 66.3867 773.979 66.3867C775.805 66.3867 777.299 67.2721 778.461 69.043C778.959 69.7624 779.208 70.3988 779.208 70.9521C779.263 71.5055 779.291 71.8099 779.291 71.8652C779.291 73.9681 778.018 78.2292 775.473 84.6484C774.2 87.8027 773.563 89.9333 773.563 91.04C773.563 91.8148 773.923 92.2021 774.643 92.2021L775.39 92.1191C778.489 91.3997 781.975 89.9056 785.849 87.6367C789.722 85.3678 793.956 82.3519 798.549 78.5889C799.711 77.5928 800.624 76.8734 801.288 76.4307C802.007 75.9326 802.616 75.6836 803.114 75.6836C803.557 75.6836 804.055 75.8219 804.608 76.0986C806.047 76.818 806.767 77.6481 806.767 78.5889C806.767 79.5296 806.103 80.5811 804.774 81.7432C801.786 84.4548 798.77 86.8896 795.727 89.0479C787.536 94.6924 780.785 97.5146 775.473 97.5146ZM800.458 104.736L799.296 104.653C796.252 103.823 794.73 102.44 794.73 100.503C794.73 99.4515 795.173 98.234 796.059 96.8506C797.553 94.5264 800.292 92.1191 804.276 89.6289L806.435 88.3008L806.269 87.2217C806.047 85.6722 804.94 83.7354 802.948 81.4111C800.237 78.1462 798.881 75.1579 798.881 72.4463C798.881 68.3512 801.731 65.6673 807.431 64.3945L808.676 64.3115C811.775 64.3115 814.265 65.612 816.146 68.2129C817.364 69.8177 817.973 71.5332 817.973 73.3594C817.973 74.3001 817.807 75.2686 817.475 76.2646C817.087 77.0394 816.562 77.4268 815.897 77.4268C814.901 77.4268 814.016 76.818 813.241 75.6006C812.632 74.7152 812.328 73.7467 812.328 72.6953V71.7822C812.328 70.7308 811.885 70.2051 811 70.2051C810.336 70.2051 809.423 70.5094 808.261 71.1182C805.826 72.2803 804.608 73.5531 804.608 74.9365C804.608 75.7666 805.023 76.652 805.854 77.5928C808.067 80.0277 809.644 82.2135 810.585 84.1504L811.415 85.7275L811.498 85.8936C811.498 85.8936 811.526 85.8936 811.581 85.8936C811.747 85.8936 812.217 85.7829 812.992 85.5615C813.822 85.2848 814.874 84.9528 816.146 84.5654C817.419 84.1227 818.664 83.68 819.882 83.2373C821.155 82.7946 822.206 82.4349 823.036 82.1582C825.526 81.0514 828.487 79.502 831.918 77.5098L832.831 76.9287C834.934 75.3792 836.262 74.6045 836.815 74.6045H837.646C838.642 74.6045 839.444 75.3516 840.053 76.8457C840.163 77.1224 840.219 77.4268 840.219 77.7588C840.219 79.4743 838.946 81.1621 836.4 82.8223C831.863 85.5339 826.246 87.9411 819.55 90.0439C817.281 90.8187 815.621 91.4274 814.569 91.8701C813.518 92.2575 812.826 92.6449 812.494 93.0322C812.162 93.4196 811.913 93.9453 811.747 94.6094C811.083 96.9336 809.893 98.9811 808.178 100.752C805.688 103.408 803.114 104.736 800.458 104.736Z" fill="white"/>
</svg>
