<svg width="1282" height="140" viewBox="0 0 1282 140" fill="none" xmlns="http://www.w3.org/2000/svg">
<rect width="1282" height="119" transform="translate(0 3.5)" fill="#1E1E1E"/>
<path d="M490.521 52.29V66.4C490.521 83.4 485.025 97.4533 474.031 108.56C463.151 119.667 448.815 125.22 431.021 125.22C412.435 125.22 397.248 119.327 385.461 107.54C373.675 95.64 367.781 80.85 367.781 63.17C367.781 45.49 373.675 30.7 385.461 18.8C397.248 6.78666 411.981 0.779997 429.661 0.779997C440.768 0.779997 450.911 3.27333 460.091 8.25999C469.385 13.2467 476.695 19.99 482.021 28.49L453.121 44.98C448.361 37.7267 440.768 34.1 430.341 34.1C421.841 34.1 414.928 36.82 409.601 42.26C404.388 47.7 401.781 54.7267 401.781 63.34C401.781 71.5 404.218 78.64 409.091 84.76C413.965 90.7667 421.501 93.77 431.701 93.77C443.488 93.77 451.365 89.5767 455.331 81.19H430.001V52.29H490.521ZM520.553 119.44C516.813 123.18 512.223 125.05 506.783 125.05C501.343 125.05 496.696 123.18 492.843 119.44C489.103 115.587 487.233 110.94 487.233 105.5C487.233 100.06 489.103 95.47 492.843 91.73C496.696 87.8767 501.343 85.95 506.783 85.95C512.223 85.95 516.813 87.8767 520.553 91.73C524.406 95.47 526.333 100.06 526.333 105.5C526.333 110.94 524.406 115.587 520.553 119.44ZM630.713 107.37C618.586 119.27 603.683 125.22 586.003 125.22C568.323 125.22 553.363 119.27 541.123 107.37C528.996 95.3567 522.933 80.5667 522.933 63C522.933 45.4333 528.996 30.7 541.123 18.8C553.363 6.78666 568.323 0.779997 586.003 0.779997C603.683 0.779997 618.586 6.78666 630.713 18.8C642.953 30.7 649.073 45.4333 649.073 63C649.073 80.5667 642.953 95.3567 630.713 107.37ZM565.093 83.74C570.646 89.18 577.616 91.9 586.003 91.9C594.39 91.9 601.303 89.18 606.743 83.74C612.296 78.1867 615.073 71.2733 615.073 63C615.073 54.7267 612.296 47.87 606.743 42.43C601.303 36.8767 594.39 34.1 586.003 34.1C577.616 34.1 570.646 36.8767 565.093 42.43C559.653 47.87 556.933 54.7267 556.933 63C556.933 71.2733 559.653 78.1867 565.093 83.74ZM679.025 119.44C675.285 123.18 670.695 125.05 665.255 125.05C659.815 125.05 655.168 123.18 651.315 119.44C647.575 115.587 645.705 110.94 645.705 105.5C645.705 100.06 647.575 95.47 651.315 91.73C655.168 87.8767 659.815 85.95 665.255 85.95C670.695 85.95 675.285 87.8767 679.025 91.73C682.878 95.47 684.805 100.06 684.805 105.5C684.805 110.94 682.878 115.587 679.025 119.44ZM762.972 122.5L758.892 107.2H724.552L720.472 122.5H683.922L721.832 3.49999H761.612L799.522 122.5H762.972ZM731.862 80H751.582L741.722 43.45L731.862 80ZM835.339 119.44C831.599 123.18 827.009 125.05 821.569 125.05C816.129 125.05 811.482 123.18 807.629 119.44C803.889 115.587 802.019 110.94 802.019 105.5C802.019 100.06 803.889 95.47 807.629 91.73C811.482 87.8767 816.129 85.95 821.569 85.95C827.009 85.95 831.599 87.8767 835.339 91.73C839.192 95.47 841.119 100.06 841.119 105.5C841.119 110.94 839.192 115.587 835.339 119.44ZM916.802 3.49999V36.48H888.752V122.5H854.752V36.48H826.702V3.49999H916.802Z" fill="#E91D27"/>
<path d="M477.06 139.683C475.455 139.683 474.016 139.406 472.743 138.853C470.142 137.524 468.842 135.837 468.842 133.789C468.842 129.915 473.546 124.741 482.953 118.267C486.052 116.108 489.123 114.199 492.167 112.539C495.266 110.824 500.053 108.389 506.527 105.234C506.804 105.068 507.025 104.902 507.191 104.736C507.413 104.57 507.523 103.713 507.523 102.163C507.523 97.404 505.338 93.807 500.966 91.3721C496.649 88.8818 490.202 87.6367 481.625 87.6367C477.585 87.6367 473.103 87.9134 468.178 88.4668C464.027 88.9648 460.375 89.2139 457.221 89.2139C449.916 89.2139 445.019 87.9688 442.528 85.4785C441.145 84.0397 440.453 82.1582 440.453 79.834C440.453 77.1224 441.449 73.7467 443.441 69.707C446.54 63.4538 450.525 57.5326 455.395 51.9434C461.648 44.8047 468.759 38.3854 476.728 32.6855C484.752 26.9857 493.052 22.1712 501.63 18.2422C515.52 11.9889 528.137 8.55794 539.481 7.94922L541.64 7.86621C552.375 7.86621 559.293 11.0205 562.392 17.3291C563.388 19.3213 563.886 21.6455 563.886 24.3018C563.886 27.3454 563.249 30.804 561.977 34.6777C560.704 38.4961 558.684 42.8678 555.917 47.793C553.205 52.6628 550.438 57.0068 547.616 60.8252C544.849 64.5882 542.746 66.7464 541.308 67.2998L540.478 67.3828C539.094 67.3828 538.098 66.7741 537.489 65.5566C537.213 65.0033 537.074 64.4775 537.074 63.9795C537.074 63.0387 537.462 62.098 538.236 61.1572C544.766 53.7419 549.94 45.6901 553.759 37.002C556.304 31.0254 557.577 26.1003 557.577 22.2266C557.577 21.1751 557.494 20.2067 557.328 19.3213C556.166 15.6136 552.541 13.6214 546.454 13.3447L544.462 13.2617C538.043 13.2617 530.351 14.7005 521.386 17.5781C508.104 21.7839 495.294 28.2585 482.953 37.002C475.372 42.5911 468.537 48.8167 462.45 55.6787C454.205 64.9202 449.169 72.972 447.343 79.834C447.177 80.3874 447.094 80.8577 447.094 81.2451C447.094 81.9645 447.315 82.5179 447.758 82.9053C448.367 83.514 449.75 83.8184 451.908 83.8184C454.786 83.8184 458.826 83.5417 464.027 82.9883C469.783 82.3796 474.929 82.0752 479.467 82.0752C483.008 82.0752 486.19 82.2689 489.013 82.6562C495.321 83.5417 500.551 85.4785 504.701 88.4668C506.915 90.127 508.907 92.2852 510.678 94.9414C512.449 97.5423 513.334 99.6729 513.334 101.333C513.334 101.61 513.417 101.748 513.583 101.748C513.749 101.748 514.081 101.61 514.579 101.333C516.405 100.448 517.844 99.7005 518.896 99.0918C526.643 94.9967 536.853 90.6527 549.525 86.0596C555.723 83.9567 559.32 82.9053 560.316 82.9053C560.925 82.9053 561.506 83.2096 562.06 83.8184C562.613 84.4271 562.945 85.0081 563.056 85.5615C563.222 86.1149 563.305 86.5023 563.305 86.7236C563.305 87.2217 563.194 87.6644 562.973 88.0518L554.755 91.123L548.612 93.3643C537.766 97.404 528.524 101.388 520.888 105.317L519.477 106.064C515.935 108.001 513.943 109.274 513.5 109.883C513.334 110.104 513.057 110.796 512.67 111.958C511.508 115.5 509.405 119.014 506.361 122.5C503.373 125.986 499.914 129.113 495.985 131.88C488.681 137.082 482.372 139.683 477.06 139.683ZM477.392 133.291C477.779 133.291 478.554 133.042 479.716 132.544C484.53 130.828 489.206 128.255 493.744 124.824C497.673 121.891 500.744 118.848 502.958 115.693C503.401 115.14 503.622 114.753 503.622 114.531C503.622 114.421 503.567 114.365 503.456 114.365C503.124 114.365 502.322 114.753 501.049 115.527C491.586 120.674 484.364 125.654 479.384 130.469C477.834 131.852 477.06 132.738 477.06 133.125C477.06 133.236 477.17 133.291 477.392 133.291ZM572.436 96.1865C570.775 96.1865 569.171 96.0205 567.621 95.6885C564.245 94.7477 561.838 93.2536 560.399 91.2061C558.905 89.1032 558.158 86.862 558.158 84.4824C558.158 81.4388 559.182 78.4782 561.229 75.6006C563.056 73.1104 565.684 70.9798 569.115 69.209C571.273 68.2129 573.349 67.7148 575.341 67.7148C577.831 67.7148 579.851 68.2406 581.4 69.292C582.95 70.2881 583.752 71.2288 583.808 72.1143C583.918 72.9443 583.974 73.4424 583.974 73.6084C583.974 75.0472 583.199 76.569 581.649 78.1738C579.768 79.7786 577.582 80.9131 575.092 81.5771C572.657 82.2412 570.803 82.5732 569.53 82.5732C568.368 82.5732 567.4 82.4072 566.625 82.0752H566.542C566.044 81.7985 565.712 81.6602 565.546 81.6602C565.269 81.6602 564.993 81.9922 564.716 82.6562L564.633 82.9053C564.024 84.3994 563.72 85.6722 563.72 86.7236C563.72 87.7751 563.996 88.6051 564.55 89.2139C565.712 90.3206 567.427 90.874 569.696 90.874C572.021 90.874 574.898 90.3206 578.329 89.2139C584.693 87.0557 591.583 83.2096 598.998 77.6758C600.935 76.1263 602.18 75.2962 602.733 75.1855C603.342 75.0749 603.729 75.0195 603.896 75.0195C604.726 75.0195 605.473 75.4899 606.137 76.4307C606.856 77.1501 607.216 77.7865 607.216 78.3398C607.216 79.1699 605.998 80.5534 603.563 82.4902C600.52 84.9805 597.421 87.1387 594.267 88.9648C585.966 93.7793 578.689 96.1865 572.436 96.1865ZM569.198 77.3438C569.752 77.3438 570.969 76.984 572.851 76.2646C574.4 75.5452 575.701 74.8258 576.752 74.1064C577.25 73.7744 577.499 73.5807 577.499 73.5254C577.499 73.4147 577.527 73.2764 577.582 73.1104C577.693 72.9443 577.748 72.806 577.748 72.6953C577.748 72.5293 577.637 72.4463 577.416 72.4463C576.752 72.4463 575.756 72.7507 574.428 73.3594C572.159 74.4108 570.388 75.5729 569.115 76.8457C569.005 76.9564 568.949 77.0671 568.949 77.1777C568.949 77.2884 569.032 77.3438 569.198 77.3438ZM601.654 96.3525C601.322 96.3525 600.935 96.2419 600.492 96.0205C599.053 95.5225 598.251 94.8584 598.085 94.0283C597.919 93.1429 597.836 92.4512 597.836 91.9531C597.836 89.1862 599.883 82.5179 603.979 71.9482C605.694 67.0785 606.884 64.5882 607.548 64.4775H607.963C608.406 64.4775 608.987 64.8096 609.706 65.4736C610.757 66.2484 611.283 67.1615 611.283 68.2129C611.283 69.3197 610.757 71.2565 609.706 74.0234C608.599 77.1777 608.046 78.8379 608.046 79.0039C608.157 79.0039 608.599 78.6719 609.374 78.0078C610.149 77.2884 611.173 76.3477 612.445 75.1855C618.201 69.375 622.545 66.4697 625.478 66.4697C628.189 66.4697 630.375 68.7109 632.035 73.1934C632.976 75.8496 634.636 77.1777 637.016 77.1777C638.454 77.1777 640.281 76.7904 642.494 76.0156C643.878 75.5729 645.012 75.3516 645.897 75.3516C647.281 75.3516 648.305 76.071 648.969 77.5098C649.19 78.0078 649.301 78.4229 649.301 78.7549C649.301 79.5296 648.637 80.1937 647.309 80.7471C644.376 82.0199 641.692 82.6562 639.257 82.6562C636.933 82.6562 634.802 82.0752 632.865 80.9131C630.486 79.4743 628.66 77.1501 627.387 73.9404C627.11 73.4424 626.695 73.1934 626.142 73.1934C624.703 73.1934 622.296 74.7428 618.92 77.8418C615.6 80.9408 611.671 85.3125 607.133 90.957C605.694 92.7832 604.587 94.1113 603.812 94.9414C603.093 95.7715 602.567 96.2142 602.235 96.2695C601.959 96.3249 601.765 96.3525 601.654 96.3525ZM648.72 95.2734C648.166 95.2734 647.668 95.1904 647.226 95.0244H647.309C646.534 94.7477 645.704 94.139 644.818 93.1982C643.933 92.2575 643.352 91.3997 643.075 90.625C642.965 90.0163 642.909 89.3799 642.909 88.7158C642.909 86.3916 643.49 83.4587 644.652 79.917C645.759 76.3753 647.06 73.2487 648.554 70.5371C650.048 67.7702 651.348 66.3867 652.455 66.3867C653.783 66.3867 654.669 66.8018 655.111 67.6318C655.554 68.4619 655.775 69.1536 655.775 69.707C655.775 70.3158 655.609 70.9245 655.277 71.5332C653.783 73.9128 652.261 77.2331 650.712 81.4941C649.494 84.7038 648.886 86.7513 648.886 87.6367C648.886 87.9688 648.969 88.1348 649.135 88.1348C649.854 88.1348 654.088 84.3164 661.835 76.6797L662.167 76.3477C666.594 72.0866 669.084 69.7347 669.638 69.292C670.191 68.8493 670.634 68.6279 670.966 68.6279C671.298 68.6279 671.685 68.7386 672.128 68.96C673.733 69.624 674.535 70.6478 674.535 72.0312C674.535 72.806 674.314 73.6637 673.871 74.6045C672.875 76.818 672.377 78.6442 672.377 80.083C672.377 80.5257 672.488 80.8577 672.709 81.0791C672.986 81.2451 673.428 81.3281 674.037 81.3281C674.923 81.3281 676.168 81.0791 677.772 80.5811C680.373 79.8063 683.417 78.5335 686.903 76.7627C689.062 75.6559 690.583 75.0749 691.469 75.0195C692.354 75.0195 693.129 75.5452 693.793 76.5967C694.346 77.3161 694.623 77.9525 694.623 78.5059C694.623 79.502 693.461 80.6364 691.137 81.9092C685.215 85.2848 680.235 86.9727 676.195 86.9727C672.598 86.9727 669.997 85.5615 668.393 82.7393C668.337 82.5732 668.254 82.4349 668.144 82.3242C667.922 81.7708 667.673 81.4941 667.396 81.4941C667.12 81.4941 666.179 82.2965 664.574 83.9014C661.088 87.3877 658.017 90.1546 655.36 92.2021C652.759 94.2497 650.546 95.2734 648.72 95.2734ZM697.196 95.9375C696.311 95.9375 695.453 95.8545 694.623 95.6885C689.919 94.4157 687.54 90.9847 687.484 85.3955C687.484 82.7946 688.065 79.6956 689.228 76.0986C690.5 72.1143 691.552 69.707 692.382 68.877C693.212 67.9915 693.931 67.5488 694.54 67.5488C695.204 67.5488 695.951 67.8809 696.781 68.5449C697.667 69.1536 698.109 69.6517 698.109 70.0391C698.165 70.4264 698.192 70.6478 698.192 70.7031C698.192 71.4225 697.833 72.5016 697.113 73.9404C695.674 76.9287 694.678 79.668 694.125 82.1582C693.572 84.5931 693.295 86.4746 693.295 87.8027C693.295 88.5221 693.378 89.2139 693.544 89.8779C693.765 90.4867 694.374 90.791 695.37 90.791C697.362 90.791 700.378 89.5736 704.418 87.1387C708.126 84.8698 711.889 81.9645 715.707 78.4229C717.699 76.486 718.972 75.4346 719.525 75.2686C720.134 75.1025 720.494 75.0195 720.604 75.0195C721.435 75.0195 722.265 75.5452 723.095 76.5967C723.759 77.2607 724.091 77.8418 724.091 78.3398C724.091 79.1146 723.15 80.4427 721.269 82.3242C718.391 85.2018 715.458 87.6921 712.47 89.7949C706.549 93.89 701.457 95.9375 697.196 95.9375ZM700.268 64.4775C699.825 64.4775 699.299 64.2839 698.69 63.8965C697.694 63.2878 697.196 62.2087 697.196 60.6592C697.196 58.833 697.611 57.1729 698.441 55.6787C699.327 54.1846 700.434 53.4375 701.762 53.4375C704.086 53.4375 705.248 54.3229 705.248 56.0938C705.248 57.2005 704.722 58.75 703.671 60.7422C702.619 62.679 701.872 63.7858 701.43 64.0625C700.987 64.3392 700.6 64.4775 700.268 64.4775ZM729.486 95.7715H728.324C727.494 95.7715 726.526 95.7161 725.419 95.6055C720.272 94.8861 717.007 92.8385 715.624 89.4629C715.181 88.3561 714.96 87.1663 714.96 85.8936C714.96 82.9053 716.233 79.5573 718.778 75.8496C721.656 71.9759 724.949 69.458 728.656 68.2959C729.984 67.9085 731.229 67.7148 732.392 67.7148C735.214 67.7148 737.566 68.8216 739.447 71.0352C740.443 72.474 740.941 73.9404 740.941 75.4346V76.0986C740.665 78.8102 739.669 80.166 737.953 80.166C737.234 80.166 736.431 79.7786 735.546 79.0039C734.882 78.3398 734.522 77.8418 734.467 77.5098C734.411 77.1777 734.384 76.9564 734.384 76.8457C734.384 76.3477 734.522 75.7113 734.799 74.9365C735.02 74.4385 735.131 74.0234 735.131 73.6914C735.131 73.0827 734.799 72.7783 734.135 72.7783C733.415 72.7783 732.309 73.138 730.814 73.8574C727.826 75.4622 725.281 78.0078 723.178 81.4941C721.96 83.431 721.269 84.8975 721.103 85.8936C720.937 86.8896 720.854 87.526 720.854 87.8027C720.854 88.7988 721.241 89.4629 722.016 89.7949C723.288 90.1823 724.783 90.376 726.498 90.376L728.656 90.293C733.526 89.7949 738.811 88.3838 744.511 86.0596C750.211 83.68 755.053 80.8024 759.037 77.4268C760.421 76.2093 761.334 75.5452 761.776 75.4346C762.219 75.2686 762.551 75.1855 762.772 75.1855C763.271 75.1855 763.824 75.4069 764.433 75.8496C765.429 76.6243 765.927 77.5098 765.927 78.5059C765.927 79.9447 764.875 81.5771 762.772 83.4033C759.618 86.1702 755.191 88.7435 749.491 91.123C743.847 93.4473 737.953 94.9414 731.811 95.6055C730.704 95.7161 729.929 95.7715 729.486 95.7715ZM771.322 96.1865C769.662 96.1865 768.057 96.0205 766.508 95.6885C763.132 94.7477 760.725 93.2536 759.286 91.2061C757.792 89.1032 757.045 86.862 757.045 84.4824C757.045 81.4388 758.069 78.4782 760.116 75.6006C761.942 73.1104 764.571 70.9798 768.002 69.209C770.16 68.2129 772.235 67.7148 774.228 67.7148C776.718 67.7148 778.738 68.2406 780.287 69.292C781.837 70.2881 782.639 71.2288 782.694 72.1143C782.805 72.9443 782.86 73.4424 782.86 73.6084C782.86 75.0472 782.086 76.569 780.536 78.1738C778.655 79.7786 776.469 80.9131 773.979 81.5771C771.544 82.2412 769.69 82.5732 768.417 82.5732C767.255 82.5732 766.286 82.4072 765.512 82.0752H765.429C764.931 81.7985 764.599 81.6602 764.433 81.6602C764.156 81.6602 763.879 81.9922 763.603 82.6562L763.52 82.9053C762.911 84.3994 762.606 85.6722 762.606 86.7236C762.606 87.7751 762.883 88.6051 763.437 89.2139C764.599 90.3206 766.314 90.874 768.583 90.874C770.907 90.874 773.785 90.3206 777.216 89.2139C783.58 87.0557 790.469 83.2096 797.885 77.6758C799.822 76.1263 801.067 75.2962 801.62 75.1855C802.229 75.0749 802.616 75.0195 802.782 75.0195C803.612 75.0195 804.359 75.4899 805.023 76.4307C805.743 77.1501 806.103 77.7865 806.103 78.3398C806.103 79.1699 804.885 80.5534 802.45 82.4902C799.407 84.9805 796.308 87.1387 793.153 88.9648C784.853 93.7793 777.576 96.1865 771.322 96.1865ZM768.085 77.3438C768.638 77.3438 769.856 76.984 771.737 76.2646C773.287 75.5452 774.587 74.8258 775.639 74.1064C776.137 73.7744 776.386 73.5807 776.386 73.5254C776.386 73.4147 776.413 73.2764 776.469 73.1104C776.579 72.9443 776.635 72.806 776.635 72.6953C776.635 72.5293 776.524 72.4463 776.303 72.4463C775.639 72.4463 774.643 72.7507 773.314 73.3594C771.046 74.4108 769.275 75.5729 768.002 76.8457C767.891 76.9564 767.836 77.0671 767.836 77.1777C767.836 77.2884 767.919 77.3438 768.085 77.3438ZM800.458 104.736L799.296 104.653C796.252 103.823 794.73 102.44 794.73 100.503C794.73 99.4515 795.173 98.234 796.059 96.8506C797.553 94.5264 800.292 92.1191 804.276 89.6289L806.435 88.3008L806.269 87.2217C806.047 85.6722 804.94 83.7354 802.948 81.4111C800.237 78.1462 798.881 75.1579 798.881 72.4463C798.881 68.3512 801.731 65.6673 807.431 64.3945L808.676 64.3115C811.775 64.3115 814.265 65.612 816.146 68.2129C817.364 69.8177 817.973 71.5332 817.973 73.3594C817.973 74.3001 817.807 75.2686 817.475 76.2646C817.087 77.0394 816.562 77.4268 815.897 77.4268C814.901 77.4268 814.016 76.818 813.241 75.6006C812.632 74.7152 812.328 73.7467 812.328 72.6953V71.7822C812.328 70.7308 811.885 70.2051 811 70.2051C810.336 70.2051 809.423 70.5094 808.261 71.1182C805.826 72.2803 804.608 73.5531 804.608 74.9365C804.608 75.7666 805.023 76.652 805.854 77.5928C808.067 80.0277 809.644 82.2135 810.585 84.1504L811.415 85.7275L811.498 85.8936C811.498 85.8936 811.526 85.8936 811.581 85.8936C811.747 85.8936 812.217 85.7829 812.992 85.5615C813.822 85.2848 814.874 84.9528 816.146 84.5654C817.419 84.1227 818.664 83.68 819.882 83.2373C821.155 82.7946 822.206 82.4349 823.036 82.1582C825.526 81.0514 828.487 79.502 831.918 77.5098L832.831 76.9287C834.934 75.3792 836.262 74.6045 836.815 74.6045H837.646C838.642 74.6045 839.444 75.3516 840.053 76.8457C840.163 77.1224 840.219 77.4268 840.219 77.7588C840.219 79.4743 838.946 81.1621 836.4 82.8223C831.863 85.5339 826.246 87.9411 819.55 90.0439C817.281 90.8187 815.621 91.4274 814.569 91.8701C813.518 92.2575 812.826 92.6449 812.494 93.0322C812.162 93.4196 811.913 93.9453 811.747 94.6094C811.083 96.9336 809.893 98.9811 808.178 100.752C805.688 103.408 803.114 104.736 800.458 104.736Z" fill="white"/>
</svg>
