<svg width="2292" height="1569" viewBox="0 0 2292 1569" fill="none" xmlns="http://www.w3.org/2000/svg">
<g clip-path="url(#clip0_380_2524)">
<path d="M2187.06 0H104.42C46.75 0 0 46.75 0 104.42V1463.77C0 1521.45 46.75 1568.2 104.42 1568.2H2187.06C2244.73 1568.2 2291.48 1521.45 2291.48 1463.77V104.42C2291.48 46.75 2244.73 0 2187.06 0ZM2224.4 1452.96C2224.4 1482.35 2200.57 1506.18 2171.18 1506.18H1644.37C1614.98 1506.18 1591.15 1482.35 1591.15 1452.96V1177.04C1591.15 1147.65 1567.32 1123.82 1537.93 1123.82H125.13C92.33 1123.82 65.74 1097.23 65.74 1064.43V122C65.74 89.2 92.33 62.61 125.13 62.61H1606.45C1639.25 62.61 1665.84 89.2 1665.84 122V196.77C1665.84 226.16 1689.67 249.99 1719.06 249.99H2171.18C2200.57 249.99 2224.4 273.82 2224.4 303.21V1452.96Z" fill="white"/>
</g>
<defs>
<clipPath id="clip0_380_2524">
<rect width="2291.48" height="1568.2" fill="white"/>
</clipPath>
</defs>
</svg>
