<svg width="1282" height="161" viewBox="0 0 1282 161" fill="none" xmlns="http://www.w3.org/2000/svg">
<rect width="1282" height="119" transform="translate(0 7.5)" fill="#1E1E1E"/>
<path d="M267.07 129.22C249.164 129.22 234.317 123.27 222.53 111.37C210.744 99.47 204.85 84.68 204.85 67C204.85 49.32 210.744 34.53 222.53 22.63C234.317 10.73 249.164 4.78 267.07 4.78C278.064 4.78 288.207 7.38666 297.5 12.6C306.794 17.8133 314.047 24.84 319.26 33.68L289.68 50.68C287.754 46.8267 284.75 43.7667 280.67 41.5C276.59 39.2333 272.057 38.1 267.07 38.1C258.684 38.1 251.884 40.82 246.67 46.26C241.457 51.7 238.85 58.6133 238.85 67C238.85 75.3867 241.457 82.3 246.67 87.74C251.884 93.18 258.684 95.9 267.07 95.9C272.17 95.9 276.704 94.7667 280.67 92.5C284.75 90.2333 287.754 87.1167 289.68 83.15L319.26 100.15C314.047 109.103 306.794 116.187 297.5 121.4C288.207 126.613 278.064 129.22 267.07 129.22ZM365.482 128.88C352.788 128.88 341.965 124.573 333.012 115.96C324.172 107.347 319.752 96.6933 319.752 84C319.752 71.3067 324.172 60.6533 333.012 52.04C341.852 43.4267 352.675 39.12 365.482 39.12C378.288 39.12 389.112 43.4267 397.952 52.04C406.792 60.6533 411.212 71.3067 411.212 84C411.212 96.6933 406.792 107.347 397.952 115.96C389.112 124.573 378.288 128.88 365.482 128.88ZM355.112 94.88C357.832 97.6 361.288 98.96 365.482 98.96C369.675 98.96 373.075 97.6 375.682 94.88C378.402 92.0467 379.762 88.42 379.762 84C379.762 79.58 378.402 76.01 375.682 73.29C373.075 70.4567 369.675 69.04 365.482 69.04C361.288 69.04 357.832 70.4567 355.112 73.29C352.505 76.01 351.202 79.58 351.202 84C351.202 88.42 352.505 92.0467 355.112 94.88ZM417.709 89.61V60.03H485.709V89.61H417.709ZM601.139 111.37C589.012 123.27 574.109 129.22 556.429 129.22C538.749 129.22 523.789 123.27 511.549 111.37C499.422 99.3567 493.359 84.5667 493.359 67C493.359 49.4333 499.422 34.7 511.549 22.8C523.789 10.7867 538.749 4.78 556.429 4.78C574.109 4.78 589.012 10.7867 601.139 22.8C613.379 34.7 619.499 49.4333 619.499 67C619.499 84.5667 613.379 99.3567 601.139 111.37ZM535.519 87.74C541.072 93.18 548.042 95.9 556.429 95.9C564.816 95.9 571.729 93.18 577.169 87.74C582.722 82.1867 585.499 75.2733 585.499 67C585.499 58.7267 582.722 51.87 577.169 46.43C571.729 40.8767 564.816 38.1 556.429 38.1C548.042 38.1 541.072 40.8767 535.519 46.43C530.079 51.87 527.359 58.7267 527.359 67C527.359 75.2733 530.079 82.1867 535.519 87.74ZM679.678 39.12C691.124 39.12 700.474 43.37 707.728 51.87C714.981 60.37 718.608 71.08 718.608 84C718.608 96.92 714.981 107.63 707.728 116.13C700.474 124.63 691.124 128.88 679.678 128.88C669.931 128.88 662.338 125.537 656.898 118.85V160.5H625.448V41.5H656.898V49.15C662.338 42.4633 669.931 39.12 679.678 39.12ZM660.978 95.39C663.811 98.45 667.494 99.98 672.028 99.98C676.561 99.98 680.188 98.45 682.908 95.39C685.741 92.33 687.158 88.5333 687.158 84C687.158 79.4667 685.741 75.67 682.908 72.61C680.188 69.55 676.561 68.02 672.028 68.02C667.494 68.02 663.811 69.55 660.978 72.61C658.258 75.67 656.898 79.4667 656.898 84C656.898 88.5333 658.258 92.33 660.978 95.39ZM850.127 41.5H883.277L858.627 126.5H826.667L816.127 86.55L805.587 126.5H773.627L748.977 41.5H782.127L791.987 88.59L804.227 41.5H828.027L840.267 88.59L850.127 41.5ZM904.2 35.04C899.44 35.04 895.303 33.34 891.79 29.94C888.39 26.4267 886.69 22.3467 886.69 17.7C886.69 13.0533 888.39 9.02999 891.79 5.63C895.303 2.11666 899.44 0.359993 904.2 0.359993C908.847 0.359993 912.87 2.11666 916.27 5.63C919.783 9.02999 921.54 13.0533 921.54 17.7C921.54 22.3467 919.783 26.4267 916.27 29.94C912.87 33.34 908.847 35.04 904.2 35.04ZM888.39 126.5V41.5H919.84V126.5H888.39ZM984.38 71.42H966.53V89.78C966.53 92.6133 967.21 94.71 968.57 96.07C969.93 97.43 971.913 98.2233 974.52 98.45C977.24 98.5633 980.527 98.5067 984.38 98.28V126.5C966.587 128.993 953.893 127.463 946.3 121.91C938.82 116.357 935.08 106.213 935.08 91.48V71.42H923.18V41.5H935.08V27.05L966.53 17.7V41.5H984.38V71.42ZM1044.65 39.12C1053.94 39.12 1061.36 42.35 1066.92 48.81C1072.58 55.1567 1075.42 64.6767 1075.42 77.37V126.5H1043.97V80.77C1043.97 73.1767 1040.45 69.38 1033.43 69.38C1029.69 69.38 1026.8 70.57 1024.76 72.95C1022.83 75.33 1021.87 78.6167 1021.87 82.81V126.5H990.416V7.49999H1021.87V49.83C1027.08 42.69 1034.67 39.12 1044.65 39.12Z" fill="#E91D27"/>
<path d="M576.171 144.679C575.673 144.679 575.009 144.264 574.179 143.434C573.183 142.604 572.657 141.718 572.602 140.777V139.2C572.602 137.429 573.017 134.745 573.847 131.148L574.013 130.567C574.289 129.295 574.428 128.382 574.428 127.828C574.428 127.773 574.4 127.745 574.345 127.745C574.179 127.745 573.764 128.077 573.1 128.741L572.851 128.907C563.111 137.651 554.201 142.022 546.122 142.022C539.813 142.022 535.027 139.034 531.762 133.058C529.714 129.184 528.69 124.314 528.69 118.448C528.69 113.523 529.41 107.851 530.849 101.432C535.718 82.5059 543.327 65.6276 553.676 50.7969C564.079 35.9108 575.147 25.2581 586.879 18.8389C592.855 15.5739 598.472 13.9414 603.729 13.9414C607.216 13.9414 610.564 14.6608 613.773 16.0996C620.58 19.4753 623.983 25.3135 623.983 33.6143C623.983 41.417 620.829 50.8522 614.521 61.9199C610.979 68.1178 608.848 71.2721 608.129 71.3828L607.465 71.4658C606.911 71.4658 606.33 71.1615 605.722 70.5527C604.615 69.612 604.062 68.6436 604.062 67.6475C604.062 66.6514 604.587 65.3786 605.639 63.8291C614.438 50.2712 618.837 39.4525 618.837 31.373C618.837 29.3809 618.56 27.6377 618.007 26.1436C616.402 21.9932 612.75 19.918 607.05 19.918C605.556 19.918 603.951 20.0563 602.235 20.333C595.539 21.6058 588.677 25.0091 581.649 30.543C574.677 36.0215 568.036 42.9388 561.728 51.2949C554.81 60.5365 548.889 70.6911 543.964 81.7588C539.094 92.7712 535.884 103.756 534.335 114.713C534.114 116.65 534.003 118.448 534.003 120.108C534.003 123.373 534.446 126.14 535.331 128.409C537.213 133.279 540.588 135.714 545.458 135.714C548.668 135.714 552.32 134.579 556.415 132.311C562.558 128.99 569.171 122.903 576.254 114.049C578.412 111.614 579.491 109.981 579.491 109.151C579.491 108.985 579.464 108.847 579.408 108.736C579.076 108.238 577.554 107.989 574.843 107.989L571.688 108.072C570.028 108.183 567.178 108.238 563.139 108.238C560.759 108.238 559.32 108.211 558.822 108.155C557.107 108.045 556.249 107.049 556.249 105.167C556.249 104.835 556.304 104.503 556.415 104.171C556.636 103.23 557.162 102.594 557.992 102.262C559.486 101.93 564.384 101.764 572.685 101.764C582.369 101.764 592.302 101.93 602.484 102.262C607.576 102.483 610.508 102.76 611.283 103.092C612.169 103.645 612.611 104.669 612.611 106.163C612.611 107.436 612.252 108.266 611.532 108.653C611.145 108.819 610.287 108.902 608.959 108.902L601.571 108.57L588.539 108.238C586.547 112.223 584.665 116.954 582.895 122.433C581.179 127.911 579.796 133.279 578.744 138.536C578.08 141.801 577.554 143.627 577.167 144.015C576.78 144.457 576.448 144.679 576.171 144.679ZM632.118 99.1904C631.067 99.1904 630.043 99.0521 629.047 98.7754C625.007 97.1706 622.987 94.459 622.987 90.6406C622.987 86.6562 625.284 82.2845 629.877 77.5254C633.861 73.6517 637.265 71.7148 640.087 71.7148C641.858 71.7148 643.186 72.5449 644.071 74.2051C644.459 74.9245 644.901 75.4225 645.399 75.6992C645.897 75.9206 646.672 76.6676 647.724 77.9404C650.103 81.1501 653.119 82.7826 656.771 82.8379C659.262 82.8379 662.056 82.0908 665.155 80.5967C666.428 80.0433 667.59 79.7666 668.642 79.7666L669.804 79.8496C671.685 80.1816 672.626 80.9564 672.626 82.1738C672.626 82.8932 672.239 83.6403 671.464 84.415C668.476 87.0713 664.657 88.3994 660.009 88.3994C656.799 88.3994 653.673 87.7077 650.629 86.3242C649.301 85.6602 648.526 85.3281 648.305 85.3281C648.249 85.3281 648.222 85.3835 648.222 85.4941C648.222 85.5495 648.028 85.9645 647.641 86.7393C646.479 89.9489 644.625 92.6605 642.079 94.874C638.759 97.7516 635.438 99.1904 632.118 99.1904ZM630.126 93.5459C630.79 93.5459 631.758 93.1862 633.031 92.4668C635.355 91.2493 637.348 89.6169 639.008 87.5693C641.166 84.8024 642.245 82.2292 642.245 79.8496C642.245 79.1855 642.162 78.5768 641.996 78.0234C641.83 77.4701 641.498 77.1934 641 77.1934C639.783 77.1934 637.984 78.4661 635.604 81.0117C633.889 82.7826 632.395 84.7471 631.122 86.9053C629.849 89.0081 629.158 90.8066 629.047 92.3008C629.047 93.1309 629.407 93.5459 630.126 93.5459ZM690.722 100.353C689.615 100.353 688.563 100.242 687.567 100.021C683.915 98.7477 681.785 96.6172 681.176 93.6289C681.12 92.9095 681.01 92.5498 680.844 92.5498H680.595C680.373 92.5498 679.903 92.8818 679.184 93.5459C675.697 96.5895 672.294 98.1113 668.974 98.1113C666.428 98.1113 664.491 97.1152 663.163 95.123C662.444 94.0716 662.084 92.8265 662.084 91.3877C662.084 89.2295 662.886 86.6286 664.491 83.585C666.815 79.6559 669.555 76.64 672.709 74.5371C675.919 72.4342 678.879 71.3828 681.591 71.3828C684.634 71.3828 686.71 72.9046 687.816 75.9482C687.872 76.1143 687.955 76.1973 688.065 76.1973C688.231 76.1973 688.563 75.9482 689.062 75.4502C690.002 74.6755 690.915 74.2881 691.801 74.2881L692.465 74.3711C694.07 74.7585 694.872 75.6715 694.872 77.1104C694.872 77.8851 694.568 78.6875 693.959 79.5176C692.133 81.7865 690.583 84.1937 689.311 86.7393C687.761 89.9489 686.986 92.3838 686.986 94.0439C686.986 94.874 687.512 95.2891 688.563 95.2891C689.726 95.2891 691.441 94.8464 693.71 93.9609C699.908 91.526 706.521 87.597 713.549 82.1738C715.375 80.6243 716.537 79.8219 717.035 79.7666C717.589 79.7113 717.948 79.6836 718.114 79.6836C718.944 79.6836 719.802 80.1816 720.688 81.1777C721.241 81.7311 721.518 82.2845 721.518 82.8379C721.518 83.834 720.051 85.5218 717.118 87.9014C714.185 90.2809 711.169 92.4115 708.07 94.293C701.098 98.3327 695.315 100.353 690.722 100.353ZM668.891 91.9688C669.333 91.9688 670.163 91.4984 671.381 90.5576C672.654 89.7275 674.175 88.4824 675.946 86.8223C677.717 85.1621 679.294 83.5573 680.678 82.0078C682.117 80.4583 682.919 79.4069 683.085 78.8535L683.168 78.1895C683.168 77.1934 682.753 76.6953 681.923 76.6953C681.203 76.6953 680.29 77.0273 679.184 77.6914C677.634 78.6322 676.002 80.0433 674.286 81.9248C672.571 83.751 671.16 85.7708 670.053 87.9844C669.057 89.7552 668.559 90.945 668.559 91.5537C668.559 91.8304 668.669 91.9688 668.891 91.9688ZM705.082 144.015C704.695 144.015 704.197 143.876 703.588 143.6C702.868 143.268 702.26 142.742 701.762 142.022C701.264 141.358 701.015 140.694 701.015 140.03C701.015 137.208 703.201 127.413 707.572 110.646C712.055 93.4352 717.616 73.873 724.257 51.959C725.751 47.3659 727.411 41.915 729.237 35.6064C729.901 33.3376 730.233 32.1478 730.233 32.0371C730.233 31.9818 729.818 31.9541 728.988 31.9541L720.937 32.0371C716.288 32.2031 712.193 32.4798 708.651 32.8672L707.323 32.9502C705.331 32.9502 704.335 31.9818 704.335 30.0449C704.335 29.1042 704.473 28.4124 704.75 27.9697C705.027 27.527 705.746 27.1673 706.908 26.8906C708.458 26.5586 713.549 26.2266 722.182 25.8945C726.111 25.7839 728.795 25.6732 730.233 25.5625C731.672 25.4518 732.419 25.2858 732.475 25.0645C732.53 24.8431 732.973 23.4596 733.803 20.9141C734.467 18.4238 735.02 16.985 735.463 16.5977C735.906 16.2103 736.293 16.0166 736.625 16.0166C737.123 16.0166 737.704 16.238 738.368 16.6807C739.364 17.234 739.918 17.7598 740.028 18.2578C740.139 18.7559 740.194 19.1709 740.194 19.5029C740.194 20.2223 739.835 21.8271 739.115 24.3174L738.949 25.3135C738.949 25.3688 738.977 25.4242 739.032 25.4795C739.088 25.4795 740.554 25.5348 743.432 25.6455C746.365 25.7008 749.989 25.7562 754.306 25.8115C766.923 25.8669 774.753 26.0605 777.797 26.3926C779.457 26.5586 780.564 26.8076 781.117 27.1396C781.671 27.4717 782.03 27.8867 782.196 28.3848C782.528 29.1595 782.694 29.8236 782.694 30.377C782.694 31.7604 781.671 32.4521 779.623 32.4521H779.125C777.077 32.2861 769.883 32.0924 757.543 31.8711C752.839 31.8158 745.977 31.7881 736.957 31.7881L735.048 38.1797L732.309 47.8086C728.38 61.4772 726.415 72.2406 726.415 80.0986C726.415 83.6403 726.858 86.4349 727.743 88.4824C728.407 89.8659 729.68 90.5576 731.562 90.5576C734.218 90.5576 737.815 89.1742 742.353 86.4072C744.4 85.1344 746.531 83.5573 748.744 81.6758C750.626 80.071 751.815 79.2132 752.313 79.1025C752.812 78.9919 753.144 78.9365 753.31 78.9365C754.029 78.9365 754.776 79.3516 755.551 80.1816C756.326 80.9564 756.713 81.6758 756.713 82.3398C756.713 83.2806 755.744 84.5811 753.808 86.2412C746.392 92.8265 739.724 96.1191 733.803 96.1191C728.158 96.1191 724.34 93.1585 722.348 87.2373C722.126 86.5732 721.933 86.0475 721.767 85.6602L721.518 85.0791C721.241 85.5771 720.3 88.7868 718.695 94.708C717.09 100.574 715.347 107.325 713.466 114.962C711.031 124.425 709.149 132.062 707.821 137.872C707.323 139.92 706.908 141.414 706.576 142.354C706.244 143.295 705.94 143.793 705.663 143.849C705.386 143.959 705.193 144.015 705.082 144.015Z" fill="white"/>
</svg>
