<svg width="1282" height="161" viewBox="0 0 1282 161" fill="none" xmlns="http://www.w3.org/2000/svg">
<rect width="1282" height="119" transform="translate(0 6)" fill="#1E1E1E"/>
<path d="M335.548 92.02H374.648V125H301.548V5.99999H335.548V92.02ZM405.308 93.21C408.028 98.8767 413.808 101.71 422.648 101.71C427.861 101.71 432.678 99.8967 437.098 96.27L457.668 113.61C449.168 122.79 437.154 127.38 421.628 127.38C407.121 127.38 395.448 123.187 386.608 114.8C377.881 106.3 373.518 95.6467 373.518 82.84C373.518 69.92 377.768 59.1533 386.268 50.54C394.881 41.9267 405.704 37.62 418.738 37.62C431.658 37.62 442.254 41.87 450.528 50.37C458.914 58.7567 463.108 69.3533 463.108 82.16C463.108 85.9 462.654 89.5833 461.748 93.21H405.308ZM404.798 72.98H433.358C431.431 66.18 426.841 62.78 419.588 62.78C412.221 62.78 407.291 66.18 404.798 72.98ZM521.724 69.92H503.874V88.28C503.874 91.1133 504.554 93.21 505.914 94.57C507.274 95.93 509.258 96.7233 511.864 96.95C514.584 97.0633 517.871 97.0067 521.724 96.78V125C503.931 127.493 491.238 125.963 483.644 120.41C476.164 114.857 472.424 104.713 472.424 89.98V69.92H460.524V40H472.424V25.55L503.874 16.2V40H521.724V69.92ZM535.351 53.6L531.951 5.99999H560.851L557.451 53.6H535.351ZM594.595 64.99C594.595 66.35 595.615 67.4267 597.655 68.22C599.808 69.0133 602.471 69.6367 605.645 70.09C608.818 70.43 612.218 71.1667 615.845 72.3C619.471 73.4333 622.871 74.85 626.045 76.55C629.218 78.25 631.825 80.97 633.865 84.71C636.018 88.3367 637.095 92.7567 637.095 97.97C637.095 103.41 635.848 108.17 633.355 112.25C630.975 116.33 627.801 119.39 623.835 121.43C619.868 123.47 615.788 124.943 611.595 125.85C607.515 126.87 603.265 127.38 598.845 127.38C578.331 127.38 565.071 120.637 559.065 107.15L586.435 94.91C588.588 100.69 592.611 103.58 598.505 103.58C602.358 103.58 604.285 102.333 604.285 99.84C604.285 98.3667 602.868 97.1767 600.035 96.27C597.201 95.3633 593.801 94.4567 589.835 93.55C585.868 92.53 581.845 91.2267 577.765 89.64C573.798 87.94 570.398 85.1633 567.565 81.31C564.731 77.4567 563.315 72.64 563.315 66.86C563.315 57.5667 566.828 50.37 573.855 45.27C580.995 40.17 589.211 37.62 598.505 37.62C617.091 37.62 629.388 44.8167 635.395 59.21L609.385 68.56C607.345 63.8 604.171 61.42 599.865 61.42C596.351 61.42 594.595 62.61 594.595 64.99ZM719.642 5.99999C731.995 5.99999 742.308 9.90999 750.582 17.73C758.855 25.4367 762.992 35.75 762.992 48.67C762.992 61.59 758.855 71.96 750.582 79.78C742.308 87.4867 731.995 91.34 719.642 91.34H706.042V125H672.042V5.99999H719.642ZM719.642 58.36C722.248 58.36 724.458 57.51 726.272 55.81C728.085 53.9967 728.992 51.6167 728.992 48.67C728.992 45.7233 728.085 43.4 726.272 41.7C724.458 39.8867 722.248 38.98 719.642 38.98H706.042V58.36H719.642ZM766.345 125V0.899997H797.795V125H766.345ZM863.873 40H895.323V125H863.873V117.35C858.433 124.037 850.84 127.38 841.093 127.38C829.647 127.38 820.297 123.13 813.043 114.63C805.79 106.13 802.163 95.42 802.163 82.5C802.163 69.58 805.79 58.87 813.043 50.37C820.297 41.87 829.647 37.62 841.093 37.62C850.84 37.62 858.433 40.9633 863.873 47.65V40ZM837.693 93.89C840.527 96.95 844.21 98.48 848.743 98.48C853.277 98.48 856.903 96.95 859.623 93.89C862.457 90.83 863.873 87.0333 863.873 82.5C863.873 77.9667 862.457 74.17 859.623 71.11C856.903 68.05 853.277 66.52 848.743 66.52C844.21 66.52 840.527 68.05 837.693 71.11C834.973 74.17 833.613 77.9667 833.613 82.5C833.613 87.0333 834.973 90.83 837.693 93.89ZM958.299 40H993.999L965.099 124.83C960.906 137.183 954.389 146.08 945.549 151.52C936.709 157.073 925.036 159.567 910.529 159V129.25C916.309 129.25 920.729 128.797 923.789 127.89C926.849 127.097 929.286 125.567 931.099 123.3L897.099 40H932.799L947.929 85.39L958.299 40Z" fill="#E91D27"/>
<path d="M462.533 141.851C461.924 141.851 461.177 141.574 460.292 141.021C459.407 140.522 458.826 140.052 458.549 139.609C458.327 139.167 458.217 138.641 458.217 138.032C458.217 136.815 458.77 134.103 459.877 129.897C465.189 108.813 474.237 79.3734 487.021 41.5771L493.578 22.2363C494.076 20.6868 494.325 19.6908 494.325 19.248C494.325 19.1374 494.27 19.082 494.159 19.082C494.104 19.0267 492.471 18.999 489.262 18.999C486.052 19.0544 482.178 19.1374 477.641 19.248C473.158 19.3034 468.869 19.3864 464.774 19.4971C460.679 19.6077 457.636 19.7184 455.644 19.8291L453.07 19.9121C451.355 19.9121 450.137 19.7738 449.418 19.4971C448.422 18.999 447.924 17.7816 447.924 15.8447C447.924 15.1253 448.09 14.5996 448.422 14.2676C448.754 13.9355 449.556 13.7419 450.829 13.6865C456.086 13.2438 471.387 12.8564 496.732 12.5244L497.562 10.0342C498.337 8.09733 499.361 7.12891 500.634 7.12891C502.626 7.12891 503.705 8.54004 503.871 11.3623V12.5244L539.481 12.6904L557.328 12.9395C560.206 13.0501 561.866 13.2715 562.309 13.6035C562.53 13.8249 562.668 14.0462 562.724 14.2676C562.834 14.4889 562.945 14.6826 563.056 14.8486C563.388 15.568 563.554 16.2874 563.554 17.0068C563.554 17.9476 563.305 18.584 562.807 18.916C562.641 19.0267 562.032 19.082 560.98 19.082C559.32 19.1927 557.356 19.248 555.087 19.248L513.334 18.999C506.14 18.999 502.377 19.0544 502.045 19.165C501.99 19.2757 501.796 19.8568 501.464 20.9082C501.132 21.9596 500.717 23.2878 500.219 24.8926C499.721 26.4974 498.614 29.8454 496.898 34.9365C495.238 39.9723 493.412 45.5892 491.42 51.7871C487.657 63.1868 484.724 72.1517 482.621 78.6816C480.574 85.1562 478.775 90.9115 477.226 95.9473C476.229 99.4336 474.874 104.137 473.158 110.059C471.443 115.98 469.783 121.763 468.178 127.407C466.573 133.052 465.411 137.174 464.691 139.775C464.304 141.159 463.585 141.851 462.533 141.851ZM525.121 97.6904C524.07 97.6904 523.046 97.5521 522.05 97.2754C518.01 95.6706 515.99 92.959 515.99 89.1406C515.99 85.1562 518.287 80.7845 522.88 76.0254C526.864 72.1517 530.268 70.2148 533.09 70.2148C534.861 70.2148 536.189 71.0449 537.074 72.7051C537.462 73.4245 537.904 73.9225 538.402 74.1992C538.9 74.4206 539.675 75.1676 540.727 76.4404C543.106 79.6501 546.122 81.2826 549.774 81.3379C552.265 81.3379 555.059 80.5908 558.158 79.0967C559.431 78.5433 560.593 78.2666 561.645 78.2666L562.807 78.3496C564.688 78.6816 565.629 79.4564 565.629 80.6738C565.629 81.3932 565.242 82.1403 564.467 82.915C561.479 85.5713 557.66 86.8994 553.012 86.8994C549.802 86.8994 546.675 86.2077 543.632 84.8242C542.304 84.1602 541.529 83.8281 541.308 83.8281C541.252 83.8281 541.225 83.8835 541.225 83.9941C541.225 84.0495 541.031 84.4645 540.644 85.2393C539.481 88.4489 537.628 91.1605 535.082 93.374C531.762 96.2516 528.441 97.6904 525.121 97.6904ZM523.129 92.0459C523.793 92.0459 524.761 91.6862 526.034 90.9668C528.358 89.7493 530.351 88.1169 532.011 86.0693C534.169 83.3024 535.248 80.7292 535.248 78.3496C535.248 77.6855 535.165 77.0768 534.999 76.5234C534.833 75.9701 534.501 75.6934 534.003 75.6934C532.785 75.6934 530.987 76.9661 528.607 79.5117C526.892 81.2826 525.398 83.2471 524.125 85.4053C522.852 87.5081 522.16 89.3066 522.05 90.8008C522.05 91.6309 522.41 92.0459 523.129 92.0459ZM572.768 160.444C571.55 160.444 570.277 160.306 568.949 160.029C562.309 158.314 558.988 153.887 558.988 146.748C558.988 141.934 560.593 136.289 563.803 129.814C568.23 120.739 575.424 111.193 585.385 101.177L590.697 95.8643L589.95 90.9668C588.677 83.8835 587.958 80.3418 587.792 80.3418C587.515 80.3418 586.575 81.1165 584.97 82.666C576.226 91.0221 569.475 95.2002 564.716 95.2002C562.668 95.2002 560.953 94.4808 559.569 93.042C558.241 91.5479 557.577 89.8047 557.577 87.8125C557.577 86.8717 557.743 85.848 558.075 84.7412C559.016 81.4762 560.842 78.4603 563.554 75.6934C567.151 71.875 570.775 69.9658 574.428 69.9658C576.586 69.9658 578.44 70.6852 579.989 72.124C581.594 73.5628 582.396 74.6143 582.396 75.2783C582.396 75.389 582.424 75.4443 582.479 75.4443C582.812 75.4443 583.725 74.5866 585.219 72.8711C586.934 71.1556 588.345 70.2979 589.452 70.2979C590.891 70.2979 591.859 71.7367 592.357 74.6143C592.468 75.6104 592.994 78.5986 593.935 83.5791C594.875 88.5042 595.429 91.1605 595.595 91.5479C595.65 91.6585 595.705 91.7139 595.761 91.7139C595.816 91.7139 595.871 91.7139 595.927 91.7139C596.037 91.7139 596.757 91.2712 598.085 90.3857C604.172 86.0693 609.678 82.9704 614.604 81.0889C617.315 80.0374 619.501 79.5117 621.161 79.5117C622.379 79.5117 623.319 79.8438 623.983 80.5078C624.703 81.1165 625.062 81.6976 625.062 82.251C625.062 83.0257 623.845 83.9111 621.41 84.9072C618.09 86.2907 614.548 88.0339 610.785 90.1367C607.077 92.2396 603.84 94.2594 601.073 96.1963C598.362 98.0778 597.006 99.3229 597.006 99.9316L597.421 103.584C597.974 107.624 598.251 111.553 598.251 115.371C598.251 119.521 597.919 123.561 597.255 127.49C596.037 134.961 593.962 141.408 591.029 146.831C588.318 151.812 585.329 155.326 582.064 157.373C578.855 159.421 575.756 160.444 572.768 160.444ZM569.032 154.883C570.471 154.883 572.27 154.357 574.428 153.306C579.242 150.815 583.227 146.471 586.381 140.273C590.255 132.415 592.191 123.368 592.191 113.13C592.191 110.252 592.025 107.319 591.693 104.331L589.203 106.821C582.618 113.462 577.25 120.352 573.1 127.49C567.676 136.732 564.965 144.064 564.965 149.487C564.965 151.922 565.684 153.555 567.123 154.385C567.676 154.717 568.313 154.883 569.032 154.883ZM563.969 89.5557C564.411 89.5557 565.269 89.196 566.542 88.4766C568.811 87.3145 571.578 85.3776 574.843 82.666L575.258 82.251C576.807 80.9782 577.61 80.2588 577.665 80.0928C577.72 79.8714 577.748 79.7054 577.748 79.5947C577.748 79.4287 577.72 79.2074 577.665 78.9307C577.665 78.654 577.61 78.2943 577.499 77.8516C577.388 77.3535 577.305 76.9108 577.25 76.5234C577.084 75.5273 576.586 75.0293 575.756 75.0293C575.368 75.0293 574.898 75.14 574.345 75.3613C572.685 76.0807 570.886 77.4919 568.949 79.5947C567.012 81.6976 565.463 84.0771 564.301 86.7334C563.803 87.8402 563.554 88.6149 563.554 89.0576C563.554 89.3896 563.692 89.5557 563.969 89.5557ZM630.873 98.6865C629.213 98.6865 627.608 98.5205 626.059 98.1885C622.683 97.2477 620.276 95.7536 618.837 93.7061C617.343 91.6032 616.596 89.362 616.596 86.9824C616.596 83.9388 617.619 80.9782 619.667 78.1006C621.493 75.6104 624.122 73.4798 627.553 71.709C629.711 70.7129 631.786 70.2148 633.778 70.2148C636.269 70.2148 638.288 70.7406 639.838 71.792C641.387 72.7881 642.19 73.7288 642.245 74.6143C642.356 75.4443 642.411 75.9424 642.411 76.1084C642.411 77.5472 641.636 79.069 640.087 80.6738C638.205 82.2786 636.02 83.4131 633.529 84.0771C631.094 84.7412 629.241 85.0732 627.968 85.0732C626.806 85.0732 625.837 84.9072 625.062 84.5752H624.979C624.481 84.2985 624.149 84.1602 623.983 84.1602C623.707 84.1602 623.43 84.4922 623.153 85.1562L623.07 85.4053C622.462 86.8994 622.157 88.1722 622.157 89.2236C622.157 90.2751 622.434 91.1051 622.987 91.7139C624.149 92.8206 625.865 93.374 628.134 93.374C630.458 93.374 633.336 92.8206 636.767 91.7139C643.131 89.5557 650.02 85.7096 657.436 80.1758C659.372 78.6263 660.618 77.7962 661.171 77.6855C661.78 77.5749 662.167 77.5195 662.333 77.5195C663.163 77.5195 663.91 77.9899 664.574 78.9307C665.294 79.6501 665.653 80.2865 665.653 80.8398C665.653 81.6699 664.436 83.0534 662.001 84.9902C658.957 87.4805 655.858 89.6387 652.704 91.4648C644.403 96.2793 637.126 98.6865 630.873 98.6865ZM627.636 79.8438C628.189 79.8438 629.407 79.484 631.288 78.7646C632.838 78.0452 634.138 77.3258 635.189 76.6064C635.688 76.2744 635.937 76.0807 635.937 76.0254C635.937 75.9147 635.964 75.7764 636.02 75.6104C636.13 75.4443 636.186 75.306 636.186 75.1953C636.186 75.0293 636.075 74.9463 635.854 74.9463C635.189 74.9463 634.193 75.2507 632.865 75.8594C630.596 76.9108 628.826 78.0729 627.553 79.3457C627.442 79.4564 627.387 79.5671 627.387 79.6777C627.387 79.7884 627.47 79.8438 627.636 79.8438ZM649.384 142.515C648.996 142.515 648.498 142.376 647.89 142.1C647.17 141.768 646.562 141.242 646.063 140.522C645.565 139.858 645.316 139.194 645.316 138.53C645.316 135.708 647.502 125.913 651.874 109.146C656.356 91.9352 661.918 72.373 668.559 50.459C670.053 45.8659 671.713 40.415 673.539 34.1064C674.203 31.8376 674.535 30.6478 674.535 30.5371C674.535 30.4818 674.12 30.4541 673.29 30.4541L665.238 30.5371C660.59 30.7031 656.495 30.9798 652.953 31.3672L651.625 31.4502C649.633 31.4502 648.637 30.4818 648.637 28.5449C648.637 27.6042 648.775 26.9124 649.052 26.4697C649.328 26.027 650.048 25.6673 651.21 25.3906C652.759 25.0586 657.851 24.7266 666.483 24.3945C670.412 24.2839 673.096 24.1732 674.535 24.0625C675.974 23.9518 676.721 23.7858 676.776 23.5645C676.832 23.3431 677.274 21.9596 678.104 19.4141C678.769 16.9238 679.322 15.485 679.765 15.0977C680.207 14.7103 680.595 14.5166 680.927 14.5166C681.425 14.5166 682.006 14.738 682.67 15.1807C683.666 15.734 684.219 16.2598 684.33 16.7578C684.441 17.2559 684.496 17.6709 684.496 18.0029C684.496 18.7223 684.136 20.3271 683.417 22.8174L683.251 23.8135C683.251 23.8688 683.279 23.9242 683.334 23.9795C683.389 23.9795 684.856 24.0348 687.733 24.1455C690.666 24.2008 694.291 24.2562 698.607 24.3115C711.225 24.3669 719.055 24.5605 722.099 24.8926C723.759 25.0586 724.866 25.3076 725.419 25.6396C725.972 25.9717 726.332 26.3867 726.498 26.8848C726.83 27.6595 726.996 28.3236 726.996 28.877C726.996 30.2604 725.972 30.9521 723.925 30.9521H723.427C721.379 30.7861 714.185 30.5924 701.845 30.3711C697.141 30.3158 690.279 30.2881 681.259 30.2881L679.35 36.6797L676.61 46.3086C672.681 59.9772 670.717 70.7406 670.717 78.5986C670.717 82.1403 671.16 84.9349 672.045 86.9824C672.709 88.3659 673.982 89.0576 675.863 89.0576C678.52 89.0576 682.117 87.6742 686.654 84.9072C688.702 83.6344 690.832 82.0573 693.046 80.1758C694.927 78.571 696.117 77.7132 696.615 77.6025C697.113 77.4919 697.445 77.4365 697.611 77.4365C698.331 77.4365 699.078 77.8516 699.853 78.6816C700.627 79.4564 701.015 80.1758 701.015 80.8398C701.015 81.7806 700.046 83.0811 698.109 84.7412C690.694 91.3265 684.026 94.6191 678.104 94.6191C672.46 94.6191 668.642 91.6585 666.649 85.7373C666.428 85.0732 666.234 84.5475 666.068 84.1602L665.819 83.5791C665.543 84.0771 664.602 87.2868 662.997 93.208C661.392 99.0739 659.649 105.825 657.768 113.462C655.333 122.925 653.451 130.562 652.123 136.372C651.625 138.42 651.21 139.914 650.878 140.854C650.546 141.795 650.242 142.293 649.965 142.349C649.688 142.459 649.494 142.515 649.384 142.515ZM690.722 117.28H690.473C690.251 117.28 689.781 117.114 689.062 116.782C688.397 116.395 687.816 115.897 687.318 115.288C686.82 114.679 686.571 114.126 686.571 113.628C686.571 112.687 688.259 106.102 691.635 93.8721C696.228 77.1598 699.687 64.9023 702.011 57.0996L708.651 33.9404C712.857 19.5524 715.513 11.2793 716.62 9.12109C717.284 7.79297 717.782 7.10124 718.114 7.0459C718.446 6.99056 718.64 6.96289 718.695 6.96289C719.249 6.96289 719.857 7.23958 720.521 7.79297C721.186 8.29102 721.601 8.70605 721.767 9.03809C721.933 9.37012 722.016 9.72982 722.016 10.1172C722.016 11.0026 721.518 12.9948 720.521 16.0938C719.138 20.2441 717.201 26.8848 714.711 36.0156C713.549 40.332 712.138 45.4232 710.478 51.2891L704.252 73.2861C701.817 81.7529 700.461 86.6227 700.185 87.8955L700.019 89.2236H700.102C700.323 89.0576 700.793 88.3936 701.513 87.2314C707.213 78.82 711.861 73.2861 715.458 70.6299C717.284 69.3018 718.917 68.6377 720.355 68.6377C721.85 68.6377 723.178 69.3294 724.34 70.7129C725.281 71.6536 725.889 72.9818 726.166 74.6973C726.498 76.4128 726.664 79.5947 726.664 84.2432C726.664 87.6188 726.802 89.3896 727.079 89.5557C727.411 89.7217 727.688 89.8047 727.909 89.8047C728.463 89.8047 728.988 89.7217 729.486 89.5557C734.633 88.6702 740.443 85.7926 746.918 80.9229C749.408 78.9307 751.041 77.9346 751.815 77.9346C752.203 77.9899 752.701 78.1836 753.31 78.5156C754.693 79.3457 755.385 80.2035 755.385 81.0889C755.385 81.8083 755.025 82.5277 754.306 83.2471C750.266 87.0101 746.337 89.86 742.519 91.7969C738.368 93.8444 734.743 94.8682 731.645 94.8682C728.988 94.8682 726.719 94.1211 724.838 92.627C722.237 90.5241 720.937 86.9271 720.937 81.8359V81.1719C721.047 79.8991 721.103 78.8477 721.103 78.0176C721.103 76.0807 720.881 75.057 720.438 74.9463C719.664 74.9463 718.004 76.4958 715.458 79.5947C712.636 82.8597 709.481 87.0931 705.995 92.2949C702.951 96.7773 700.185 101.149 697.694 105.41C695.204 109.671 693.489 113.047 692.548 115.537C692.105 116.699 691.496 117.28 690.722 117.28ZM760.531 98.6865C758.871 98.6865 757.266 98.5205 755.717 98.1885C752.341 97.2477 749.934 95.7536 748.495 93.7061C747.001 91.6032 746.254 89.362 746.254 86.9824C746.254 83.9388 747.278 80.9782 749.325 78.1006C751.151 75.6104 753.78 73.4798 757.211 71.709C759.369 70.7129 761.444 70.2148 763.437 70.2148C765.927 70.2148 767.947 70.7406 769.496 71.792C771.046 72.7881 771.848 73.7288 771.903 74.6143C772.014 75.4443 772.069 75.9424 772.069 76.1084C772.069 77.5472 771.295 79.069 769.745 80.6738C767.864 82.2786 765.678 83.4131 763.188 84.0771C760.753 84.7412 758.899 85.0732 757.626 85.0732C756.464 85.0732 755.495 84.9072 754.721 84.5752H754.638C754.14 84.2985 753.808 84.1602 753.642 84.1602C753.365 84.1602 753.088 84.4922 752.812 85.1562L752.729 85.4053C752.12 86.8994 751.815 88.1722 751.815 89.2236C751.815 90.2751 752.092 91.1051 752.646 91.7139C753.808 92.8206 755.523 93.374 757.792 93.374C760.116 93.374 762.994 92.8206 766.425 91.7139C772.789 89.5557 779.678 85.7096 787.094 80.1758C789.031 78.6263 790.276 77.7962 790.829 77.6855C791.438 77.5749 791.825 77.5195 791.991 77.5195C792.821 77.5195 793.568 77.9899 794.232 78.9307C794.952 79.6501 795.312 80.2865 795.312 80.8398C795.312 81.6699 794.094 83.0534 791.659 84.9902C788.616 87.4805 785.517 89.6387 782.362 91.4648C774.062 96.2793 766.785 98.6865 760.531 98.6865ZM757.294 79.8438C757.847 79.8438 759.065 79.484 760.946 78.7646C762.496 78.0452 763.796 77.3258 764.848 76.6064C765.346 76.2744 765.595 76.0807 765.595 76.0254C765.595 75.9147 765.622 75.7764 765.678 75.6104C765.788 75.4443 765.844 75.306 765.844 75.1953C765.844 75.0293 765.733 74.9463 765.512 74.9463C764.848 74.9463 763.852 75.2507 762.523 75.8594C760.255 76.9108 758.484 78.0729 757.211 79.3457C757.1 79.4564 757.045 79.5671 757.045 79.6777C757.045 79.7884 757.128 79.8438 757.294 79.8438ZM789.75 98.8525C789.418 98.8525 789.031 98.7419 788.588 98.5205C787.149 98.0225 786.347 97.3584 786.181 96.5283C786.015 95.6429 785.932 94.9512 785.932 94.4531C785.932 91.6862 787.979 85.0179 792.074 74.4482C793.79 69.5785 794.979 67.0882 795.644 66.9775H796.059C796.501 66.9775 797.082 67.3096 797.802 67.9736C798.853 68.7484 799.379 69.6615 799.379 70.7129C799.379 71.8197 798.853 73.7565 797.802 76.5234C796.695 79.6777 796.142 81.3379 796.142 81.5039C796.252 81.5039 796.695 81.1719 797.47 80.5078C798.244 79.7884 799.268 78.8477 800.541 77.6855C806.296 71.875 810.64 68.9697 813.573 68.9697C816.285 68.9697 818.471 71.2109 820.131 75.6934C821.072 78.3496 822.732 79.6777 825.111 79.6777C826.55 79.6777 828.376 79.2904 830.59 78.5156C831.973 78.0729 833.108 77.8516 833.993 77.8516C835.377 77.8516 836.4 78.571 837.064 80.0098C837.286 80.5078 837.396 80.9229 837.396 81.2549C837.396 82.0296 836.732 82.6937 835.404 83.2471C832.471 84.5199 829.787 85.1562 827.353 85.1562C825.028 85.1562 822.898 84.5752 820.961 83.4131C818.581 81.9743 816.755 79.6501 815.482 76.4404C815.206 75.9424 814.791 75.6934 814.237 75.6934C812.799 75.6934 810.391 77.2428 807.016 80.3418C803.695 83.4408 799.766 87.8125 795.229 93.457C793.79 95.2832 792.683 96.6113 791.908 97.4414C791.189 98.2715 790.663 98.7142 790.331 98.7695C790.054 98.8249 789.861 98.8525 789.75 98.8525Z" fill="white"/>
</svg>
