<svg width="80" height="66" viewBox="0 0 80 66" fill="none" xmlns="http://www.w3.org/2000/svg">
<path d="M31.5161 38.3678H30.9294V40.5189H31.5161C32.1119 40.5189 32.5939 40.0358 32.5939 39.4419C32.5939 38.8479 32.1104 38.3694 31.5161 38.3694V38.3678Z" fill="#D4C187"/>
<path d="M27.1263 30.0973C26.5473 29.5756 25.9684 29.0525 25.3864 28.5278H10.3173C6.94227 28.5416 4.70508 30.1065 3.69657 33.3485C2.49868 38.8078 1.30233 44.2671 0.104436 49.7233C-0.922547 56.3305 5.8383 60.0311 11.0009 55.8474C12.633 54.1548 14.2636 52.4607 15.8957 50.7681C16.7717 49.7741 17.9019 49.0586 19.5894 48.9217H26.3918C27.6621 48.6447 28.6275 48.1108 29.0401 47.1091H20.9428C17.0181 47.1091 16.1974 47.9569 13.5445 50.6789C12.245 52.0129 10.944 53.3454 9.64445 54.6749C5.69665 58.0108 0.600221 54.5102 1.85662 49.5679C3.05297 44.2671 4.25086 38.9663 5.44875 33.6655C6.23708 31.4682 7.89073 30.3342 10.2773 30.0957H27.1232L27.1263 30.0973Z" fill="#E91D27"/>
<path d="M13.329 33.6777C14.1682 33.6777 14.858 34.3671 14.858 35.2057V37.7737H17.4277C18.2669 37.7737 18.9567 38.4585 18.9567 39.3017C18.9567 40.1449 18.2669 40.8296 17.4277 40.8296H14.858V43.3977C14.858 44.2363 14.1682 44.9256 13.329 44.9256C12.4899 44.9256 11.7955 44.2363 11.7955 43.3977V40.8296H9.23034C8.3912 40.8296 7.70142 40.1449 7.70142 39.3017C7.70142 38.4585 8.3912 37.7737 9.23034 37.7737H11.7955V35.2057C11.7955 34.3671 12.4853 33.6777 13.329 33.6777Z" fill="url(#paint0_linear_374_2589)"/>
<path d="M25.9409 38.3678H29.5037V40.5189H25.9409C25.3496 40.5189 24.8677 40.0358 24.8677 39.4419C24.8677 38.8479 25.3511 38.3694 25.9409 38.3694V38.3678Z" fill="url(#paint1_linear_374_2589)"/>
<path d="M10.1312 27.2907H17.1538V26.4336C17.1538 25.9935 16.7935 25.632 16.3516 25.632H10.9364C10.4915 25.632 10.1296 25.992 10.1296 26.4336V27.2907H10.1312Z" fill="url(#paint2_linear_374_2589)"/>
<path d="M55.0519 28.5278L53.3967 30.1019L55.0519 28.5278Z" fill="#010101"/>
<path d="M54.9349 50.7512C55.4553 51.4682 56.1774 51.9883 57.0782 52.3207H76.7972C78.5601 52.3207 80.0044 50.8774 80.0044 49.1156V31.7375C80.0044 29.9757 78.5601 28.5278 76.7972 28.5278H55.0519L53.3967 30.1019H76.8387C77.7194 30.1019 78.4416 30.8235 78.4416 31.7083V49.1433C78.4416 50.0295 77.7194 50.7497 76.8387 50.7497H54.9349V50.7512Z" fill="#E91D27"/>
<path d="M53.6538 32.4731H57.1089V35.9213H53.6538V32.4731Z" fill="#E91D27"/>
<path d="M48.4834 38.5401H51.9339V41.9884H48.4834V38.5401Z" fill="url(#paint3_linear_374_2589)"/>
<path d="M59.9929 32.4731H63.4434V35.9213H59.9929V32.4731Z" fill="#E91D27"/>
<path d="M54.3945 38.5401H57.845V41.9884H54.3945V38.5401Z" fill="url(#paint4_linear_374_2589)"/>
<path d="M66.3318 32.4731H69.7823V35.9213H66.3318V32.4731Z" fill="#E91D27"/>
<path d="M60.4763 38.5401H63.9314V41.9884H60.4763V38.5401Z" fill="#F4E7BD"/>
<path d="M72.6709 32.4731H76.1214V35.9213H72.6709V32.4731Z" fill="#E91D27"/>
<path d="M67.1895 38.5401H76.1213V41.9884H67.1895V38.5401Z" fill="url(#paint5_linear_374_2589)"/>
<path d="M72.6709 44.6042H76.1214V48.0524H72.6709V44.6042Z" fill="#E91D27"/>
<path d="M65.394 44.6042H68.8445V48.0524H65.394V44.6042Z" fill="#E91D27"/>
<path d="M49.5845 44.6042L52.7686 48.0524H62.3425V44.6042H49.5845Z" fill="#E91D27"/>
<path d="M22.2839 21.9591C22.518 21.7298 22.9645 21.8052 23.2924 22.1191L58.2961 55.9659C59.0798 56.7244 57.0674 58.7355 56.3083 57.9523L22.4441 22.967C22.13 22.6438 22.0499 22.1945 22.2839 21.9591Z" fill="url(#paint6_linear_374_2589)"/>
<path d="M47.4319 45.4612L58.2945 55.9658C59.0782 56.7244 57.0658 58.7355 56.3068 57.9523L45.7998 47.0922L47.4319 45.4612Z" fill="#E91D27"/>
<path d="M22.284 21.9591C22.518 21.7298 22.9646 21.8052 23.2925 22.1191L25.7252 24.4764L24.8014 25.4043L22.4426 22.9685C22.1285 22.6454 22.0484 22.1961 22.2825 21.9607L22.284 21.9591Z" fill="#816A48"/>
<path d="M58.3377 21.9591C58.1083 21.7298 57.6571 21.8052 57.3292 22.1191L22.3255 55.9659C21.5418 56.7244 23.5542 58.7355 24.3133 57.9523L58.1775 22.967C58.4963 22.6438 58.5717 22.1945 58.3377 21.9591Z" fill="url(#paint7_linear_374_2589)"/>
<path d="M33.1898 45.4612L22.3272 55.9658C21.5435 56.7244 23.5559 58.7355 24.315 57.9523L34.8265 47.0922L33.1898 45.4612Z" fill="#E91D27"/>
<path d="M58.3377 21.9591C58.1083 21.7298 57.6572 21.8052 57.3292 22.1191L54.8965 24.4764L55.8203 25.4043L58.1791 22.9685C58.4979 22.6454 58.5733 22.1961 58.3393 21.9607L58.3377 21.9591Z" fill="#816A48"/>
<path fill-rule="evenodd" clip-rule="evenodd" d="M15.172 18.7925H8.01695C3.89516 18.7925 1.8335 17.6077 1.8335 11.8299C1.8335 6.0521 3.89516 4.85346 8.01695 4.85346H15.1335V7.92316H8.03543C6.16469 7.92316 5.51339 8.68635 5.51339 11.8314C5.51339 14.9765 6.16469 15.7244 8.03543 15.7244H11.8893V11.5453H15.172V18.7941V18.7925ZM20.8766 15.4936V18.7925H17.5939V15.4936H20.8766ZM22.3254 11.8345C22.3254 6.57218 23.5818 4.58572 29.7468 4.58572C35.9118 4.58572 37.1682 6.57218 37.1682 11.8345C37.1682 17.0969 35.9072 19.0787 29.7468 19.0787C23.5864 19.0787 22.3254 17.0969 22.3254 11.8345ZM26.0069 11.8345C26.0069 14.9412 26.5227 15.9905 29.7484 15.9905C32.974 15.9905 33.4898 14.9412 33.4898 11.8345C33.4898 8.7279 32.974 7.67851 29.7484 7.67851C26.5227 7.67851 26.0069 8.7279 26.0069 11.8345ZM41.8812 15.4936V18.7925H38.5986V15.4936H41.8812ZM50.1048 4.85346H54.1511L60.9828 18.7925H57.2044L55.9295 16.0844H48.4465L47.1716 18.7925H43.2762L50.1079 4.85346H50.1048ZM49.7814 13.244H54.573L52.168 8.16935L49.7814 13.244ZM65.6373 15.4982V18.7971H62.3547V15.4982H65.6373ZM69.4912 7.87084H64.5503V4.85807H78.1751V7.87084H73.2281V18.7971H69.4912V7.87084Z" fill="#E91D27"/>
<path fill-rule="evenodd" clip-rule="evenodd" d="M3.97055 65.8796C3.22996 65.8796 2.85889 65.5518 2.85889 64.8964V62.3144C2.85889 61.6589 3.22996 61.3312 3.97055 61.3312H8.13854V62.1082H4.3832C4.0614 62.1082 3.89973 62.2544 3.89973 62.5483V64.6609C3.89973 64.9548 4.0614 65.101 4.3832 65.101H7.20547V63.9254C7.20547 63.7254 7.09308 63.6254 6.86828 63.6254H4.76812V62.9653H7.35637C7.89988 62.9653 8.17241 63.1915 8.17241 63.6454V65.8796H3.97209H3.97055ZM50.6775 64.6625C50.6775 64.9564 50.8392 65.1025 51.161 65.1025H54.8409V65.8796H50.7483C50.0077 65.8796 49.6367 65.5518 49.6367 64.8964V62.3144C49.6367 61.6589 50.0077 61.3312 50.7483 61.3312H54.8409V62.1082H51.161C50.8392 62.1082 50.6775 62.2544 50.6775 62.5483V64.6609V64.6625ZM14.7439 61.3312C15.4814 61.3312 15.8509 61.6589 15.8509 62.3144V65.8842H14.8101V64.347H11.3211V65.8842H10.2803V62.3144C10.2803 61.6589 10.6483 61.3312 11.3827 61.3312H14.7439ZM11.3273 63.6869H14.8162V62.5529C14.8162 62.2559 14.6561 62.1082 14.3374 62.1082H11.8015C11.4859 62.1082 11.3273 62.2559 11.3273 62.5529V63.6869ZM18.9827 61.3312C19.1952 61.3312 19.3399 61.405 19.4184 61.5512L21.6741 65.0133L23.9344 61.5512C24.016 61.405 24.1607 61.3312 24.3701 61.3312H24.8151C25.1938 61.3312 25.3817 61.5112 25.3817 61.8697V65.8857H24.4533V62.4744L22.3439 65.6657C22.2561 65.8119 22.1252 65.8857 21.9497 65.8857H21.4062C21.2368 65.8857 21.1044 65.8119 21.0074 65.6657L18.9026 62.4791V65.8857H17.9742V61.8697C17.9742 61.5112 18.162 61.3312 18.5362 61.3312H18.9811H18.9827ZM28.5566 65.8842H27.5157V61.3297H28.5566V65.8842ZM36.5969 61.3358V65.3518C36.5969 65.7072 36.4091 65.8857 36.0349 65.8857H35.5191C35.3066 65.8857 35.1419 65.8134 35.0264 65.6703L31.6221 62.1513V65.8857H30.6937V61.8697C30.6937 61.5143 30.8815 61.3358 31.2557 61.3358H31.7715C31.9839 61.3358 32.1487 61.4081 32.2642 61.5512L35.6731 65.0841V61.3358H36.5969ZM39.8133 65.8842C39.0758 65.8842 38.7063 65.5565 38.7063 64.901V62.319C38.7063 61.6636 39.0758 61.3358 39.8133 61.3358H43.9813V62.1129H40.226C39.9073 62.1129 39.7471 62.259 39.7471 62.5529V64.6656C39.7471 64.9594 39.9073 65.1056 40.226 65.1056H43.0483V63.9301C43.0483 63.73 42.9359 63.63 42.7111 63.63H40.6109V62.9699H43.1992C43.7427 62.9699 44.0152 63.1961 44.0152 63.65V65.8842H39.8149H39.8133ZM61.5217 61.3358C62.2622 61.3358 62.6333 61.6636 62.6333 62.319V65.8842H61.5925V64.347H58.0989V65.8842H57.058V62.319C57.058 61.6636 57.4276 61.3358 58.1651 61.3358H61.5217ZM58.0989 63.6869H61.5879V62.5529C61.5879 62.259 61.4277 62.1129 61.109 62.1129H58.5731C58.2575 62.1129 58.0989 62.259 58.0989 62.5529V63.6869ZM65.802 62.9745H68.9523V63.63H65.802V65.8888H64.7612V61.3343H69.9839V62.1113H65.802V62.973V62.9745ZM72.9093 62.9745H76.2566V63.6346H72.9093V65.1102H77.1435V65.8873H71.8685V61.3373H77.1435V62.1144H72.9093V62.9714V62.9745Z" fill="#F4E5BA"/>
<path d="M3.44557 3.25929V0.649659H1.8335V0.111115H5.79054V0.649659H4.17231V3.25929H3.44557ZM7.28097 1.69905V3.25929H6.56347V0.111115H7.28097V1.24513H9.85074V0.111115H10.5775V3.25929H9.85074V1.69905H7.28097ZM12.2357 1.24513H14.5515V1.69905H12.2357V2.72075H15.1658V3.25929H11.5136V0.111115H15.1658V0.649659H12.2357V1.24513Z" fill="#F4E5BA"/>
<defs>
<linearGradient id="paint0_linear_374_2589" x1="7.70296" y1="39.3001" x2="18.9551" y2="39.3001" gradientUnits="userSpaceOnUse">
<stop offset="0.21" stop-color="#E7D5A7"/>
<stop offset="0.5" stop-color="#B7A076"/>
<stop offset="0.8" stop-color="#F6E8C1"/>
</linearGradient>
<linearGradient id="paint1_linear_374_2589" x1="24.8677" y1="39.4434" x2="29.5037" y2="39.4434" gradientUnits="userSpaceOnUse">
<stop stop-color="#E6D19B"/>
<stop offset="1" stop-color="#CCB572"/>
</linearGradient>
<linearGradient id="paint2_linear_374_2589" x1="10.1312" y1="26.4613" x2="17.1553" y2="26.4613" gradientUnits="userSpaceOnUse">
<stop stop-color="#CCB572"/>
<stop offset="1" stop-color="#E6D19B"/>
</linearGradient>
<linearGradient id="paint3_linear_374_2589" x1="48.4834" y1="40.265" x2="51.9339" y2="40.265" gradientUnits="userSpaceOnUse">
<stop stop-color="#CCB572"/>
<stop offset="1" stop-color="#E6D19B"/>
</linearGradient>
<linearGradient id="paint4_linear_374_2589" x1="54.3945" y1="40.265" x2="57.845" y2="40.265" gradientUnits="userSpaceOnUse">
<stop stop-color="#CCB572"/>
<stop offset="1" stop-color="#E6D19B"/>
</linearGradient>
<linearGradient id="paint5_linear_374_2589" x1="67.1895" y1="40.265" x2="76.1213" y2="40.265" gradientUnits="userSpaceOnUse">
<stop stop-color="#CCB572"/>
<stop offset="0.49" stop-color="#A88E40"/>
<stop offset="1" stop-color="#E6D19B"/>
</linearGradient>
<linearGradient id="paint6_linear_374_2589" x1="23.9176" y1="23.7917" x2="56.9581" y2="56.6599" gradientUnits="userSpaceOnUse">
<stop offset="0.07" stop-color="#F9E8B8"/>
<stop offset="0.31" stop-color="#FBEABF"/>
<stop offset="0.6" stop-color="#A88E40"/>
<stop offset="0.65" stop-color="#BAA15B"/>
<stop offset="0.72" stop-color="#CDB676"/>
<stop offset="0.79" stop-color="#DBC58A"/>
<stop offset="0.86" stop-color="#E3CE97"/>
<stop offset="0.93" stop-color="#E6D19B"/>
</linearGradient>
<linearGradient id="paint7_linear_374_2589" x1="29.907" y1="50.4527" x2="55.725" y2="24.9134" gradientUnits="userSpaceOnUse">
<stop offset="0.31" stop-color="#FBEABF"/>
<stop offset="0.6" stop-color="#A88E40"/>
<stop offset="0.66" stop-color="#BAA15B"/>
<stop offset="0.75" stop-color="#CDB676"/>
<stop offset="0.83" stop-color="#DBC58A"/>
<stop offset="0.92" stop-color="#E3CE97"/>
<stop offset="1" stop-color="#E6D19B"/>
</linearGradient>
</defs>
</svg>
