<svg width="19" height="18" viewBox="0 0 19 18" fill="none" xmlns="http://www.w3.org/2000/svg">
<path d="M8.93485 0.974893C9.11337 0.613187 9.62915 0.613187 9.80766 0.974893L12.1185 5.65722C12.1894 5.80086 12.3264 5.90041 12.485 5.92344L17.6522 6.67429C18.0514 6.73229 18.2108 7.22283 17.9219 7.50438L14.1829 11.1491C14.0682 11.2609 14.0158 11.422 14.0429 11.5798L14.9256 16.7262C14.9938 17.1238 14.5765 17.4269 14.2195 17.2392L9.59772 14.8094C9.45594 14.7349 9.28657 14.7349 9.14479 14.8094L4.52306 17.2392C4.16603 17.4269 3.74876 17.1238 3.81694 16.7262L4.69962 11.5798C4.72669 11.422 4.67435 11.2609 4.55965 11.1491L0.820592 7.50438C0.531753 7.22283 0.691138 6.73229 1.0903 6.67429L6.25756 5.92344C6.41607 5.90041 6.5531 5.80086 6.62398 5.65722L8.93485 0.974893Z" fill="#ED2412"/>
</svg>
