<svg width="209" height="78" viewBox="0 0 209 78" fill="none" xmlns="http://www.w3.org/2000/svg">
<path d="M47.808 49.568V54.88C47.808 61.28 45.7387 66.5707 41.6 70.752C37.504 74.9333 32.1067 77.024 25.408 77.024C18.4107 77.024 12.6933 74.8053 8.256 70.368C3.81867 65.888 1.6 60.32 1.6 53.664C1.6 47.008 3.81867 41.44 8.256 36.96C12.6933 32.4373 18.24 30.176 24.896 30.176C29.0773 30.176 32.896 31.1147 36.352 32.992C39.8507 34.8693 42.6027 37.408 44.608 40.608L33.728 46.816C31.936 44.0853 29.0773 42.72 25.152 42.72C21.952 42.72 19.3493 43.744 17.344 45.792C15.3813 47.84 14.4 50.4853 14.4 53.728C14.4 56.8 15.3173 59.488 17.152 61.792C18.9867 64.0533 21.824 65.184 25.664 65.184C30.1013 65.184 33.0667 63.6053 34.56 60.448H25.024V49.568H47.808ZM59.114 74.848C57.706 76.256 55.978 76.96 53.93 76.96C51.882 76.96 50.1327 76.256 48.682 74.848C47.274 73.3973 46.57 71.648 46.57 69.6C46.57 67.552 47.274 65.824 48.682 64.416C50.1327 62.9653 51.882 62.24 53.93 62.24C55.978 62.24 57.706 62.9653 59.114 64.416C60.5647 65.824 61.29 67.552 61.29 69.6C61.29 71.648 60.5647 73.3973 59.114 74.848ZM100.586 70.304C96.0207 74.784 90.41 77.024 83.754 77.024C77.098 77.024 71.466 74.784 66.858 70.304C62.2927 65.7813 60.01 60.2133 60.01 53.6C60.01 46.9867 62.2927 41.44 66.858 36.96C71.466 32.4373 77.098 30.176 83.754 30.176C90.41 30.176 96.0207 32.4373 100.586 36.96C105.194 41.44 107.498 46.9867 107.498 53.6C107.498 60.2133 105.194 65.7813 100.586 70.304ZM75.882 61.408C77.9727 63.456 80.5967 64.48 83.754 64.48C86.9113 64.48 89.514 63.456 91.562 61.408C93.6527 59.3173 94.698 56.7147 94.698 53.6C94.698 50.4853 93.6527 47.904 91.562 45.856C89.514 43.7653 86.9113 42.72 83.754 42.72C80.5967 42.72 77.9727 43.7653 75.882 45.856C73.834 47.904 72.81 50.4853 72.81 53.6C72.81 56.7147 73.834 59.3173 75.882 61.408ZM118.774 74.848C117.366 76.256 115.638 76.96 113.59 76.96C111.542 76.96 109.793 76.256 108.342 74.848C106.934 73.3973 106.23 71.648 106.23 69.6C106.23 67.552 106.934 65.824 108.342 64.416C109.793 62.9653 111.542 62.24 113.59 62.24C115.638 62.24 117.366 62.9653 118.774 64.416C120.225 65.824 120.95 67.552 120.95 69.6C120.95 71.648 120.225 73.3973 118.774 74.848ZM150.378 76L148.842 70.24H135.914L134.378 76H120.617L134.89 31.2H149.866L164.138 76H150.378ZM138.666 60H146.09L142.378 46.24L138.666 60ZM177.621 74.848C176.213 76.256 174.485 76.96 172.437 76.96C170.389 76.96 168.64 76.256 167.189 74.848C165.781 73.3973 165.077 71.648 165.077 69.6C165.077 67.552 165.781 65.824 167.189 64.416C168.64 62.9653 170.389 62.24 172.437 62.24C174.485 62.24 176.213 62.9653 177.621 64.416C179.072 65.824 179.797 67.552 179.797 69.6C179.797 71.648 179.072 73.3973 177.621 74.848ZM208.29 31.2V43.616H197.73V76H184.93V43.616H174.37V31.2H208.29Z" fill="#E91D27"/>
<path d="M17.28 0.599998V6.808H12V23H5.6V6.808H0.32V0.599998H17.28ZM28.1218 6.552C29.8711 6.552 31.2684 7.16 32.3138 8.376C33.3804 9.57067 33.9138 11.3627 33.9138 13.752V23H27.9938V14.392C27.9938 12.9627 27.3324 12.248 26.0098 12.248C25.3058 12.248 24.7618 12.472 24.3778 12.92C24.0151 13.368 23.8338 13.9867 23.8338 14.776V23H17.9138V0.599998H23.8338V8.568C24.8151 7.224 26.2444 6.552 28.1218 6.552ZM40.5775 17.016C41.0895 18.0827 42.1775 18.616 43.8415 18.616C44.8228 18.616 45.7295 18.2747 46.5615 17.592L50.4335 20.856C48.8335 22.584 46.5722 23.448 43.6495 23.448C40.9188 23.448 38.7215 22.6587 37.0575 21.08C35.4148 19.48 34.5935 17.4747 34.5935 15.064C34.5935 12.632 35.3935 10.6053 36.9935 8.984C38.6148 7.36267 40.6522 6.552 43.1055 6.552C45.5375 6.552 47.5322 7.352 49.0895 8.952C50.6682 10.5307 51.4575 12.5253 51.4575 14.936C51.4575 15.64 51.3722 16.3333 51.2015 17.016H40.5775ZM40.4815 13.208H45.8575C45.4948 11.928 44.6308 11.288 43.2655 11.288C41.8788 11.288 40.9508 11.928 40.4815 13.208Z" fill="#DF140E"/>
</svg>
