<svg width="1282" height="138" viewBox="0 0 1282 138" fill="none" xmlns="http://www.w3.org/2000/svg">
<rect width="1282" height="119" fill="#1E1E1E"/>
<path d="M479.711 119L446.051 -8.10623e-06H483.451L499.601 65.45L518.811 -8.10623e-06H544.991L564.201 65.45L580.351 -8.10623e-06H617.751L584.091 119H550.601L531.901 55.42L513.201 119H479.711ZM684.011 -8.10623e-06H718.011V119H684.011V75.14H655.111V119H621.111V-8.10623e-06H655.111V42.16H684.011V-8.10623e-06ZM835.978 -8.10623e-06L795.688 73.78V119H761.688V73.78L721.398 -8.10623e-06H759.138L778.688 41.82L798.238 -8.10623e-06H835.978Z" fill="#E91D27"/>
<path d="M583.821 137.179C583.323 137.179 582.659 136.764 581.829 135.934C580.833 135.104 580.307 134.218 580.252 133.277V131.7C580.252 129.929 580.667 127.245 581.497 123.648L581.663 123.067C581.939 121.795 582.078 120.882 582.078 120.328C582.078 120.273 582.05 120.245 581.995 120.245C581.829 120.245 581.414 120.577 580.75 121.241L580.501 121.407C570.761 130.151 561.852 134.522 553.772 134.522C547.464 134.522 542.677 131.534 539.412 125.558C537.364 121.684 536.34 116.814 536.34 110.948C536.34 106.023 537.06 100.351 538.499 93.9316C543.368 75.0059 550.977 58.1276 561.326 43.2969C571.729 28.4108 582.797 17.7581 594.529 11.3389C600.505 8.07389 606.122 6.44141 611.38 6.44141C614.866 6.44141 618.214 7.16081 621.423 8.59961C628.23 11.9753 631.633 17.8135 631.633 26.1143C631.633 33.917 628.479 43.3522 622.171 54.4199C618.629 60.6178 616.498 63.7721 615.779 63.8828L615.115 63.9658C614.561 63.9658 613.98 63.6615 613.372 63.0527C612.265 62.112 611.712 61.1436 611.712 60.1475C611.712 59.1514 612.237 57.8786 613.289 56.3291C622.088 42.7712 626.487 31.9525 626.487 23.873C626.487 21.8809 626.21 20.1377 625.657 18.6436C624.052 14.4932 620.4 12.418 614.7 12.418C613.206 12.418 611.601 12.5563 609.885 12.833C603.189 14.1058 596.327 17.5091 589.299 23.043C582.327 28.5215 575.686 35.4388 569.378 43.7949C562.46 53.0365 556.539 63.1911 551.614 74.2588C546.744 85.2712 543.534 96.2559 541.985 107.213C541.764 109.15 541.653 110.948 541.653 112.608C541.653 115.873 542.096 118.64 542.981 120.909C544.863 125.779 548.238 128.214 553.108 128.214C556.318 128.214 559.97 127.079 564.065 124.811C570.208 121.49 576.821 115.403 583.904 106.549C586.062 104.114 587.141 102.481 587.141 101.651C587.141 101.485 587.114 101.347 587.058 101.236C586.726 100.738 585.204 100.489 582.493 100.489L579.339 100.572C577.678 100.683 574.828 100.738 570.789 100.738C568.409 100.738 566.97 100.711 566.472 100.655C564.757 100.545 563.899 99.5485 563.899 97.667C563.899 97.335 563.954 97.0029 564.065 96.6709C564.286 95.7301 564.812 95.0938 565.642 94.7617C567.136 94.4297 572.034 94.2637 580.335 94.2637C590.019 94.2637 599.952 94.4297 610.134 94.7617C615.226 94.9831 618.158 95.2598 618.933 95.5918C619.819 96.1452 620.261 97.1689 620.261 98.6631C620.261 99.9359 619.902 100.766 619.182 101.153C618.795 101.319 617.937 101.402 616.609 101.402L609.221 101.07L596.189 100.738C594.197 104.723 592.315 109.454 590.545 114.933C588.829 120.411 587.446 125.779 586.394 131.036C585.73 134.301 585.204 136.127 584.817 136.515C584.43 136.957 584.098 137.179 583.821 137.179ZM634.668 91.6904C633.617 91.6904 632.593 91.5521 631.597 91.2754C627.557 89.6706 625.537 86.959 625.537 83.1406C625.537 79.1562 627.834 74.7845 632.427 70.0254C636.411 66.1517 639.815 64.2148 642.637 64.2148C644.408 64.2148 645.736 65.0449 646.621 66.7051C647.009 67.4245 647.451 67.9225 647.949 68.1992C648.448 68.4206 649.222 69.1676 650.274 70.4404C652.653 73.6501 655.669 75.2826 659.322 75.3379C661.812 75.3379 664.606 74.5908 667.705 73.0967C668.978 72.5433 670.14 72.2666 671.192 72.2666L672.354 72.3496C674.235 72.6816 675.176 73.4564 675.176 74.6738C675.176 75.3932 674.789 76.1403 674.014 76.915C671.026 79.5713 667.207 80.8994 662.559 80.8994C659.349 80.8994 656.223 80.2077 653.179 78.8242C651.851 78.1602 651.076 77.8281 650.855 77.8281C650.799 77.8281 650.772 77.8835 650.772 77.9941C650.772 78.0495 650.578 78.4645 650.191 79.2393C649.029 82.4489 647.175 85.1605 644.629 87.374C641.309 90.2516 637.989 91.6904 634.668 91.6904ZM632.676 86.0459C633.34 86.0459 634.309 85.6862 635.581 84.9668C637.906 83.7493 639.898 82.1169 641.558 80.0693C643.716 77.3024 644.795 74.7292 644.795 72.3496C644.795 71.6855 644.712 71.0768 644.546 70.5234C644.38 69.9701 644.048 69.6934 643.55 69.6934C642.333 69.6934 640.534 70.9661 638.155 73.5117C636.439 75.2826 634.945 77.2471 633.672 79.4053C632.399 81.5081 631.708 83.3066 631.597 84.8008C631.597 85.6309 631.957 86.0459 632.676 86.0459ZM688.172 92.8525C687.065 92.8525 686.013 92.7419 685.017 92.5205C681.365 91.2477 679.235 89.1172 678.626 86.1289C678.57 85.4095 678.46 85.0498 678.294 85.0498H678.045C677.823 85.0498 677.353 85.3818 676.634 86.0459C673.147 89.0895 669.744 90.6113 666.424 90.6113C663.878 90.6113 661.941 89.6152 660.613 87.623C659.894 86.5716 659.534 85.3265 659.534 83.8877C659.534 81.7295 660.336 79.1286 661.941 76.085C664.265 72.1559 667.005 69.14 670.159 67.0371C673.369 64.9342 676.329 63.8828 679.041 63.8828C682.084 63.8828 684.16 65.4046 685.266 68.4482C685.322 68.6143 685.405 68.6973 685.515 68.6973C685.681 68.6973 686.013 68.4482 686.512 67.9502C687.452 67.1755 688.365 66.7881 689.251 66.7881L689.915 66.8711C691.52 67.2585 692.322 68.1715 692.322 69.6104C692.322 70.3851 692.018 71.1875 691.409 72.0176C689.583 74.2865 688.033 76.6937 686.761 79.2393C685.211 82.4489 684.436 84.8838 684.436 86.5439C684.436 87.374 684.962 87.7891 686.013 87.7891C687.176 87.7891 688.891 87.3464 691.16 86.4609C697.358 84.026 703.971 80.097 710.999 74.6738C712.825 73.1243 713.987 72.3219 714.485 72.2666C715.039 72.2113 715.398 72.1836 715.564 72.1836C716.394 72.1836 717.252 72.6816 718.138 73.6777C718.691 74.2311 718.968 74.7845 718.968 75.3379C718.968 76.334 717.501 78.0218 714.568 80.4014C711.635 82.7809 708.619 84.9115 705.52 86.793C698.548 90.8327 692.765 92.8525 688.172 92.8525ZM666.341 84.4688C666.783 84.4688 667.613 83.9984 668.831 83.0576C670.104 82.2275 671.625 80.9824 673.396 79.3223C675.167 77.6621 676.744 76.0573 678.128 74.5078C679.567 72.9583 680.369 71.9069 680.535 71.3535L680.618 70.6895C680.618 69.6934 680.203 69.1953 679.373 69.1953C678.653 69.1953 677.74 69.5273 676.634 70.1914C675.084 71.1322 673.452 72.5433 671.736 74.4248C670.021 76.251 668.61 78.2708 667.503 80.4844C666.507 82.2552 666.009 83.445 666.009 84.0537C666.009 84.3304 666.119 84.4688 666.341 84.4688ZM697.432 136.515C697.045 136.515 696.547 136.376 695.938 136.1C695.219 135.768 694.61 135.242 694.112 134.522C693.614 133.858 693.365 133.194 693.365 132.53C693.365 129.708 695.551 119.913 699.922 103.146C704.405 85.9352 709.966 66.373 716.607 44.459C718.101 39.8659 719.761 34.415 721.587 28.1064C722.251 25.8376 722.583 24.6478 722.583 24.5371C722.583 24.4818 722.168 24.4541 721.338 24.4541L713.287 24.5371C708.638 24.7031 704.543 24.9798 701.001 25.3672L699.673 25.4502C697.681 25.4502 696.685 24.4818 696.685 22.5449C696.685 21.6042 696.823 20.9124 697.1 20.4697C697.377 20.027 698.096 19.6673 699.258 19.3906C700.808 19.0586 705.899 18.7266 714.532 18.3945C718.461 18.2839 721.145 18.1732 722.583 18.0625C724.022 17.9518 724.769 17.7858 724.825 17.5645C724.88 17.3431 725.323 15.9596 726.153 13.4141C726.817 10.9238 727.37 9.48503 727.813 9.09766C728.256 8.71029 728.643 8.5166 728.975 8.5166C729.473 8.5166 730.054 8.73796 730.718 9.18066C731.714 9.73405 732.268 10.2598 732.378 10.7578C732.489 11.2559 732.544 11.6709 732.544 12.0029C732.544 12.7223 732.185 14.3271 731.465 16.8174L731.299 17.8135C731.299 17.8688 731.327 17.9242 731.382 17.9795C731.438 17.9795 732.904 18.0348 735.782 18.1455C738.715 18.2008 742.339 18.2562 746.656 18.3115C759.273 18.3669 767.103 18.5605 770.147 18.8926C771.807 19.0586 772.914 19.3076 773.467 19.6396C774.021 19.9717 774.38 20.3867 774.546 20.8848C774.878 21.6595 775.044 22.3236 775.044 22.877C775.044 24.2604 774.021 24.9521 771.973 24.9521H771.475C769.428 24.7861 762.234 24.5924 749.893 24.3711C745.189 24.3158 738.327 24.2881 729.307 24.2881L727.398 30.6797L724.659 40.3086C720.73 53.9772 718.765 64.7406 718.765 72.5986C718.765 76.1403 719.208 78.9349 720.093 80.9824C720.757 82.3659 722.03 83.0576 723.912 83.0576C726.568 83.0576 730.165 81.6742 734.703 78.9072C736.75 77.6344 738.881 76.0573 741.094 74.1758C742.976 72.571 744.165 71.7132 744.664 71.6025C745.162 71.4919 745.494 71.4365 745.66 71.4365C746.379 71.4365 747.126 71.8516 747.901 72.6816C748.676 73.4564 749.063 74.1758 749.063 74.8398C749.063 75.7806 748.095 77.0811 746.158 78.7412C738.742 85.3265 732.074 88.6191 726.153 88.6191C720.508 88.6191 716.69 85.6585 714.698 79.7373C714.476 79.0732 714.283 78.5475 714.117 78.1602L713.868 77.5791C713.591 78.0771 712.65 81.2868 711.045 87.208C709.441 93.0739 707.697 99.8252 705.816 107.462C703.381 116.925 701.499 124.562 700.171 130.372C699.673 132.42 699.258 133.914 698.926 134.854C698.594 135.795 698.29 136.293 698.013 136.349C697.736 136.459 697.543 136.515 697.432 136.515Z" fill="white"/>
</svg>
