<svg width="161" height="132" viewBox="0 0 161 132" fill="none" xmlns="http://www.w3.org/2000/svg">
<g clip-path="url(#clip0_277_1167)">
<path d="M63.4262 76.7715H62.2456V81.0882H63.4262C64.6254 81.0882 65.5953 80.1186 65.5953 78.9268C65.5953 77.7349 64.6223 76.7746 63.4262 76.7746V76.7715Z" fill="#D4C187"/>
<path d="M54.5916 60.1749C53.4265 59.1282 52.2614 58.0783 51.0901 57.0254H20.7636C13.9713 57.0532 9.46896 60.1935 7.43934 66.6994C5.02859 77.6549 2.62093 88.6104 0.210178 99.5597C-1.85663 112.819 11.7496 120.245 22.1394 111.849C25.4239 108.453 28.7054 105.053 31.99 101.656C33.7531 99.6616 36.0275 98.2258 39.4237 97.951H53.1135C55.6699 97.3952 57.6128 96.3237 58.4432 94.3136H42.1474C34.2489 94.3136 32.5973 96.0149 27.2584 101.477C24.6431 104.154 22.0247 106.828 19.4095 109.496C11.4645 116.191 1.20795 109.166 3.73645 99.2479C6.14411 88.6104 8.55486 77.973 10.9656 67.3355C12.5521 62.9262 15.8801 60.6505 20.683 60.1719H54.5854L54.5916 60.1749Z" fill="#E91D27"/>
<path d="M26.8246 67.3604C28.5134 67.3604 29.9016 68.7437 29.9016 70.4265V75.5801H35.0732C36.762 75.5801 38.1502 76.9541 38.1502 78.6462C38.1502 80.3383 36.762 81.7124 35.0732 81.7124H29.9016V86.8659C29.9016 88.5488 28.5134 89.9321 26.8246 89.9321C25.1358 89.9321 23.7383 88.5488 23.7383 86.8659V81.7124H18.576C16.8872 81.7124 15.499 80.3383 15.499 78.6462C15.499 76.9541 16.8872 75.5801 18.576 75.5801H23.7383V70.4265C23.7383 68.7437 25.1265 67.3604 26.8246 67.3604Z" fill="url(#paint0_linear_277_1167)"/>
<path d="M52.2057 76.7715H59.376V81.0882H52.2057C51.0158 81.0882 50.0459 80.1186 50.0459 78.9268C50.0459 77.7349 51.0189 76.7746 52.2057 76.7746V76.7715Z" fill="url(#paint1_linear_277_1167)"/>
<path d="M20.3888 54.5425H34.5218V52.8226C34.5218 51.9395 33.7967 51.2139 32.9074 51.2139H22.0094C21.1139 51.2139 20.3857 51.9364 20.3857 52.8226V54.5425H20.3888Z" fill="url(#paint2_linear_277_1167)"/>
<path d="M110.792 57.0254L107.461 60.1842L110.792 57.0254Z" fill="#010101"/>
<path d="M110.556 101.622C111.604 103.061 113.057 104.105 114.87 104.772H154.554C158.102 104.772 161.009 101.876 161.009 98.34V63.4665C161.009 59.931 158.102 57.0254 154.554 57.0254H110.792L107.461 60.1842H154.638C156.41 60.1842 157.864 61.6324 157.864 63.4079V98.3956C157.864 100.174 156.41 101.619 154.638 101.619H110.556V101.622Z" fill="#E91D27"/>
<path d="M107.979 64.9424H114.932V71.8621H107.979V64.9424Z" fill="#E91D27"/>
<path d="M97.5732 77.1182H104.517V84.0379H97.5732V77.1182Z" fill="url(#paint3_linear_277_1167)"/>
<path d="M120.735 64.9424H127.679V71.8621H120.735V64.9424Z" fill="#E91D27"/>
<path d="M109.469 77.1182H116.413V84.0379H109.469V77.1182Z" fill="url(#paint4_linear_277_1167)"/>
<path d="M133.493 64.9424H140.437V71.8621H133.493V64.9424Z" fill="#E91D27"/>
<path d="M121.708 77.1182H128.662V84.0379H121.708V77.1182Z" fill="#F4E7BD"/>
<path d="M146.25 64.9424H153.194V71.8621H146.25V64.9424Z" fill="#E91D27"/>
<path d="M135.219 77.1182H153.194V84.0379H135.219V77.1182Z" fill="url(#paint5_linear_277_1167)"/>
<path d="M146.25 89.2871H153.194V96.2068H146.25V89.2871Z" fill="#E91D27"/>
<path d="M131.605 89.2871H138.55V96.2068H131.605V89.2871Z" fill="#E91D27"/>
<path d="M99.7886 89.2871L106.197 96.2068H125.464V89.2871H99.7886Z" fill="#E91D27"/>
<path d="M44.8464 43.8434C45.3174 43.3833 46.216 43.5346 46.876 44.1645L117.321 112.087C118.898 113.609 114.848 117.645 113.321 116.073L45.1687 45.8659C44.5365 45.2174 44.3754 44.3158 44.8464 43.8434Z" fill="url(#paint6_linear_277_1167)"/>
<path d="M95.4569 91.0068L117.318 112.087C118.895 113.609 114.845 117.645 113.318 116.074L92.1724 94.2799L95.4569 91.0068Z" fill="#E91D27"/>
<path d="M44.8466 43.8434C45.3176 43.3833 46.2162 43.5346 46.8762 44.1645L51.7721 48.895L49.9129 50.757L45.1657 45.869C44.5336 45.2205 44.3725 44.3189 44.8435 43.8465L44.8466 43.8434Z" fill="#816A48"/>
<path d="M117.405 43.8434C116.943 43.3833 116.035 43.5346 115.375 44.1645L44.9301 112.087C43.3529 113.609 47.4028 117.645 48.9305 116.073L117.082 45.8659C117.724 45.2174 117.876 44.3158 117.405 43.8434Z" fill="url(#paint7_linear_277_1167)"/>
<path d="M66.7945 91.0068L44.9335 112.087C43.3563 113.609 47.4062 117.645 48.9339 116.074L70.0884 94.2799L66.7945 91.0068Z" fill="#E91D27"/>
<path d="M117.405 43.8434C116.943 43.3833 116.035 43.5346 115.375 44.1645L110.479 48.895L112.338 50.757L117.085 45.869C117.727 45.2205 117.879 44.3189 117.408 43.8465L117.405 43.8434Z" fill="#816A48"/>
<path fill-rule="evenodd" clip-rule="evenodd" d="M30.5336 37.4891H16.1341C7.83904 37.4891 3.68994 35.1115 3.68994 23.5168C3.68994 11.9222 7.83904 9.51677 16.1341 9.51677H30.4561V15.6769H16.1713C12.4065 15.6769 11.0957 17.2085 11.0957 23.5199C11.0957 29.8313 12.4065 31.332 16.1713 31.332H23.9273V22.9456H30.5336V37.4922V37.4891ZM42.0141 30.8688V37.4891H35.4078V30.8688H42.0141ZM44.93 23.5261C44.93 12.9658 47.4585 8.97949 59.8655 8.97949C72.2725 8.97949 74.801 12.9658 74.801 23.5261C74.801 34.0863 72.2632 38.0634 59.8655 38.0634C47.4678 38.0634 44.93 34.0863 44.93 23.5261ZM52.3388 23.5261C52.3388 29.7603 53.3769 31.8662 59.8686 31.8662C66.3603 31.8662 67.3983 29.7603 67.3983 23.5261C67.3983 17.2918 66.3603 15.186 59.8686 15.186C53.3769 15.186 52.3388 17.2918 52.3388 23.5261ZM84.286 30.8688V37.4891H77.6797V30.8688H84.286ZM100.836 9.51677H108.979L122.728 37.4891H115.124L112.558 32.0546H97.4987L94.933 37.4891H87.0934L100.842 9.51677H100.836ZM100.185 26.3545H109.828L104.988 16.171L100.185 26.3545ZM132.095 30.8781V37.4983H125.489V30.8781H132.095ZM139.851 15.5719H129.908V9.52603H157.328V15.5719H147.372V37.4983H139.851V15.5719Z" fill="#E91D27"/>
<path fill-rule="evenodd" clip-rule="evenodd" d="M7.99065 131.981C6.50019 131.981 5.75342 131.323 5.75342 130.008V124.827C5.75342 123.511 6.50019 122.854 7.99065 122.854H16.3787V124.413H8.82109C8.17347 124.413 7.84811 124.706 7.84811 125.296V129.536C7.84811 130.125 8.17347 130.419 8.82109 130.419H14.5009V128.06C14.5009 127.658 14.2747 127.458 13.8223 127.458H9.59575V126.133H14.8046C15.8984 126.133 16.4469 126.587 16.4469 127.498V131.981H7.99375H7.99065ZM101.988 129.539C101.988 130.129 102.314 130.422 102.961 130.422H110.367V131.981H102.131C100.64 131.981 99.8937 131.323 99.8937 130.008V124.827C99.8937 123.511 100.64 122.854 102.131 122.854H110.367V124.413H102.961C102.314 124.413 101.988 124.706 101.988 125.296V129.536V129.539ZM29.6719 122.854C31.1562 122.854 31.8999 123.511 31.8999 124.827V131.99H29.8052V128.906H22.7836V131.99H20.6889V124.827C20.6889 123.511 21.4295 122.854 22.9076 122.854H29.6719ZM22.796 127.581H29.8176V125.305C29.8176 124.709 29.4953 124.413 28.8539 124.413H23.7504C23.1152 124.413 22.796 124.709 22.796 125.305V127.581ZM38.2025 122.854C38.6302 122.854 38.9214 123.002 39.0795 123.295L43.619 130.243L48.1678 123.295C48.3321 123.002 48.6233 122.854 49.0447 122.854H49.9403C50.7025 122.854 51.0806 123.215 51.0806 123.934V131.994H49.2121V125.148L44.9669 131.552C44.7903 131.845 44.5269 131.994 44.1737 131.994H43.0798C42.739 131.994 42.4725 131.845 42.2773 131.552L38.0414 125.157V131.994H36.1729V123.934C36.1729 123.215 36.551 122.854 37.3039 122.854H38.1995H38.2025ZM57.47 131.99H55.3753V122.851H57.47V131.99ZM73.6512 122.863V130.922C73.6512 131.635 73.2731 131.994 72.5202 131.994H71.4821C71.0545 131.994 70.7229 131.848 70.4905 131.561L63.6394 124.499V131.994H61.7709V123.934C61.7709 123.221 62.149 122.863 62.9019 122.863H63.94C64.3676 122.863 64.6992 123.008 64.9316 123.295L71.792 130.385V122.863H73.6512ZM80.1243 131.99C78.64 131.99 77.8963 131.333 77.8963 130.017V124.836C77.8963 123.521 78.64 122.863 80.1243 122.863H88.5123V124.422H80.9547C80.3133 124.422 79.991 124.716 79.991 125.305V129.545C79.991 130.135 80.3133 130.428 80.9547 130.428H86.6346V128.069C86.6346 127.668 86.4084 127.467 85.9559 127.467H81.7294V126.142H86.9382C88.032 126.142 88.5805 126.596 88.5805 127.507V131.99H80.1274H80.1243ZM123.812 122.863C125.303 122.863 126.049 123.521 126.049 124.836V131.99H123.955V128.906H116.924V131.99H114.829V124.836C114.829 123.521 115.573 122.863 117.057 122.863H123.812ZM116.924 127.581H123.945V125.305C123.945 124.716 123.623 124.422 122.982 124.422H117.878C117.243 124.422 116.924 124.716 116.924 125.305V127.581ZM132.427 126.151H138.766V127.467H132.427V132H130.332V122.86H140.842V124.419H132.427V126.148V126.151ZM146.73 126.151H153.466V127.476H146.73V130.437H155.251V131.997H144.635V122.866H155.251V124.425H146.73V126.145V126.151Z" fill="#F4E5BA"/>
<path d="M6.93423 6.31762V1.08073H3.68994V0H11.6535V1.08073H8.3968V6.31762H6.93423ZM14.653 3.1866V6.31762H13.209V0H14.653V2.2757H19.8246V0H21.2872V6.31762H19.8246V3.1866H14.653ZM24.6245 2.2757H29.2848V3.1866H24.6245V5.23689H30.5212V6.31762H23.1712V0H30.5212V1.08073H24.6245V2.2757Z" fill="#F4E5BA"/>
</g>
<defs>
<linearGradient id="paint0_linear_277_1167" x1="15.5021" y1="78.6431" x2="38.1471" y2="78.6431" gradientUnits="userSpaceOnUse">
<stop offset="0.21" stop-color="#E7D5A7"/>
<stop offset="0.5" stop-color="#B7A076"/>
<stop offset="0.8" stop-color="#F6E8C1"/>
</linearGradient>
<linearGradient id="paint1_linear_277_1167" x1="50.0459" y1="78.9298" x2="59.376" y2="78.9298" gradientUnits="userSpaceOnUse">
<stop stop-color="#E6D19B"/>
<stop offset="1" stop-color="#CCB572"/>
</linearGradient>
<linearGradient id="paint2_linear_277_1167" x1="20.3888" y1="52.8782" x2="34.5249" y2="52.8782" gradientUnits="userSpaceOnUse">
<stop stop-color="#CCB572"/>
<stop offset="1" stop-color="#E6D19B"/>
</linearGradient>
<linearGradient id="paint3_linear_277_1167" x1="97.5732" y1="80.5796" x2="104.517" y2="80.5796" gradientUnits="userSpaceOnUse">
<stop stop-color="#CCB572"/>
<stop offset="1" stop-color="#E6D19B"/>
</linearGradient>
<linearGradient id="paint4_linear_277_1167" x1="109.469" y1="80.5796" x2="116.413" y2="80.5796" gradientUnits="userSpaceOnUse">
<stop stop-color="#CCB572"/>
<stop offset="1" stop-color="#E6D19B"/>
</linearGradient>
<linearGradient id="paint5_linear_277_1167" x1="135.219" y1="80.5796" x2="153.194" y2="80.5796" gradientUnits="userSpaceOnUse">
<stop stop-color="#CCB572"/>
<stop offset="0.49" stop-color="#A88E40"/>
<stop offset="1" stop-color="#E6D19B"/>
</linearGradient>
<linearGradient id="paint6_linear_277_1167" x1="48.1341" y1="47.5209" x2="114.439" y2="113.669" gradientUnits="userSpaceOnUse">
<stop offset="0.07" stop-color="#F9E8B8"/>
<stop offset="0.31" stop-color="#FBEABF"/>
<stop offset="0.6" stop-color="#A88E40"/>
<stop offset="0.65" stop-color="#BAA15B"/>
<stop offset="0.72" stop-color="#CDB676"/>
<stop offset="0.79" stop-color="#DBC58A"/>
<stop offset="0.86" stop-color="#E3CE97"/>
<stop offset="0.93" stop-color="#E6D19B"/>
</linearGradient>
<linearGradient id="paint7_linear_277_1167" x1="60.1879" y1="101.023" x2="112" y2="49.6239" gradientUnits="userSpaceOnUse">
<stop offset="0.31" stop-color="#FBEABF"/>
<stop offset="0.6" stop-color="#A88E40"/>
<stop offset="0.66" stop-color="#BAA15B"/>
<stop offset="0.75" stop-color="#CDB676"/>
<stop offset="0.83" stop-color="#DBC58A"/>
<stop offset="0.92" stop-color="#E3CE97"/>
<stop offset="1" stop-color="#E6D19B"/>
</linearGradient>
<clipPath id="clip0_277_1167">
<rect width="161" height="132" fill="white"/>
</clipPath>
</defs>
</svg>
